<svg xmlns="http://www.w3.org/2000/svg" width="657.169" height="273.088" viewBox="0 0 657.169 273.088">
  <g id="me-logo-white" transform="translate(0.02 0.01)">
    <path id="パス_112" data-name="パス 112" d="M817.291,89.582c-3.8,1.729-7.552,3.6-11.424,5.167-15.678,6.35-31.386,12.611-47.09,18.9a41.954,41.954,0,0,1-4.832,1.76c-1.755.465-1.662,1.3-.97,2.622q10.384,19.862,20.7,39.754c1.507,2.917,2.8,5.942,4.187,8.915-.325.232-.65.47-.976.7a22.251,22.251,0,0,1-2.86-3.03c-3.459-5.338-6.871-10.7-10.175-16.137-4.775-7.857-9.442-15.776-14.16-23.669-.258-.434-.578-.836-1.1-1.6-17.706,37.437-35.392,74.579-54.617,110.947-.418-.2-.836-.387-1.254-.583,4.656-12.689,11.068-24.639,16.251-37.111,5.2-12.518,10.985-24.794,16.468-37.194,5.513-12.462,10.975-24.944,16.752-38.072-7.671,2.968-14.847,5.663-21.955,8.5-17.376,6.948-34.618,14.279-52.913,18.594-9.731,2.292-19.472,2.927-29.337.418a27.442,27.442,0,0,1-20.541-30.844,102.472,102.472,0,0,1,3.283-12.658c.449-1.5.423-2.488-.785-3.624-1.8-1.693-3.376-3.624-5.173-5.591-5.136,5-10.294,10-15.42,15.022Q581.668,128.093,563.98,145.4a3.191,3.191,0,0,1-2.39.965,101.6,101.6,0,0,1-13.1-3.665c-5.518-2.173-7.578-5.839-7.026-11.791.475-5.121,1.352-10.211,2.06-15.311.139-.986.3-1.972.568-3.7-3.861,4.254-7.093,8.141-10.665,11.677-7.805,7.723-15.167,16.024-25.078,21.243-6.06,3.2-12.725,4.527-18.729.924-5.348-3.211-9.659-8.058-10.965-14.656-.527-2.659-.7-5.389-1.063-8.285-4.254,3.505-8.394,7.062-12.684,10.417-4.331,3.386-8.688,6.763-13.262,9.8-5.353,3.552-11.517,5.162-17.727,3.6-8.425-2.111-12.771-8.745-14.625-16.69-2.22-9.493.7-18.352,4.878-26.844,1.347-2.741,2.653-5.5,3.83-8.471-5.709,3.66-12.033,5.265-18.543,6.4-.656.114-1.327,1.182-1.667,1.951-6.84,15.363-16.375,28.671-30.147,38.526-6.737,4.822-14.289,7.872-22.9,6.974a4.654,4.654,0,0,1-1.993-.459c-5.591-3.66-12.41-5.539-16.519-11.347a27.972,27.972,0,0,1-5.1-19.033,50.957,50.957,0,0,1,3.1-14c7.986-20.339,21.527-35.8,41.52-45.1a47.182,47.182,0,0,1,12.08-3.428c5.131-.852,9.628.991,13.319,4.734a5.227,5.227,0,0,0,2.3,1.425c7.547,1.848,10.8,7.289,11.135,14.2a43.9,43.9,0,0,1-.428,7.444c-.3,2.447-.878,4.858-1.4,7.681,11.945-2.4,20.577-9.266,27.546-18.409-3.273-.94-6.468-1.528-9.385-2.767a19.343,19.343,0,0,1-9.679-9.607c-1.5-2.989-1.461-3.221,1.755-3.743,7.718-1.249,15.414-2.71,23.184-3.531,4.8-.506,7.914-2.055,10.438-6.577,5.808-10.417,12.369-20.412,18.718-30.519,2.385-3.794,3.149-4,6.649-1.363a57.619,57.619,0,0,1,8.187,7.428c3.226,3.593,2.473,7.764.284,11.522-2.674,4.6-5.756,8.962-8.657,13.427-.454.7-.9,1.409-1.626,2.54,2.457.114,4.47.2,6.489.3,8.151.428,13.1,4.481,15.089,12.3.428,1.688-.532,2.189-1.874,2.344-3.841.449-7.692.826-11.527,1.28-5.973.707-11.951,1.373-17.892,2.266a4.267,4.267,0,0,0-2.53,2.142q-7.155,13.535-14.1,27.179c-2.3,4.5-4.827,8.941-6.535,13.67a79.987,79.987,0,0,0-4.1,15.843c-.666,4.713,2.168,6.814,6.51,4.883a49.48,49.48,0,0,0,10.691-7.041c11.192-9.075,20.685-19.869,30.473-30.385a216.061,216.061,0,0,0,29.688-41.04c.124-.222.274-.434.449-.7,5.286,2.189,10.051,4.847,13.933,8.843,3.314,3.412,3.965,6.711,1.574,10.758-3.8,6.427-8.012,12.611-11.966,18.951-4.868,7.8-9.865,15.533-14.361,23.54-2.07,3.686-3.216,7.924-4.512,12-.325,1.027-.021,2.937.7,3.443a4.151,4.151,0,0,0,3.748.129,51.355,51.355,0,0,0,9.189-6.561c6.6-6.4,13.122-12.916,19.193-19.808,7.067-8.022,10.531-18.037,13.855-27.99,2.008-6.009,3.505-12.183,5.395-18.228a3.116,3.116,0,0,1,2.256-1.75c6.319-.315,11.961,2.1,17.392,4.92,2.23,1.156,2.571,3.691,2.1,5.942-.95,4.522-2.178,8.987-3.335,13.463q-5.846,22.673-11.718,45.345a7.163,7.163,0,0,0-.005,1.229c4.636-4.032,9.189-7.63,13.329-11.662,8.626-8.394,17.03-17.01,25.522-25.538.367-.367.692-.769,1.063-1.125,2.777-2.648,3.634-5.322,2.659-9.509-2.653-11.378.31-21.3,9.406-29.239,4.249-3.712,11.45-3.608,15.2-1.275,4.5,2.793,6.5,8.084,5.271,13.985-1.791,8.569-6.979,15.187-12.446,21.645-.759.9-1.492,1.822-2.426,2.968l4.9,5.962c.645-.883,1.084-1.476,1.513-2.08,8.094-11.424,16.752-22.337,29.26-29.306,8.048-4.486,16.344-8.492,25.7-9.493,5.694-.609,10.944.026,14.986,4.853,1.347,1.605,3.335,2.684,5.059,3.959,6.6,4.889,7.475,13.231,5.477,20.035-2.6,8.848-8.383,15.538-15.084,21.434a60.116,60.116,0,0,1-40.028,15.322c-4.187.052-8.394-1.358-12.978-2.163-1.678,5.828-2.777,12.059.847,18.083,2.349,3.9,6.3,5.038,10.562,5.477,11.259,1.156,21.836-1.9,32.279-5.41,18.646-6.262,37.2-12.766,55.8-19.173.8-.274,1.58-.625,2.607-1.032-.785-1.59-1.471-3.035-2.2-4.455-4.863-9.375-9.757-18.729-14.578-28.124a19.178,19.178,0,0,1-1.032-3.474l.909-.594a15.19,15.19,0,0,1,2.39,2.4c6.1,9.648,12.142,19.343,18.2,29.022.3.49.656.945,1.2,1.719,1.1-2.266,2.065-4.238,3.03-6.205q11.84-24.167,23.674-48.329c.867-1.771,1.642-3.6,2.612-5.312.32-.568,1.125-.862,1.709-1.28.1.749.506,1.616.263,2.23-2.08,5.26-4.29,10.474-6.442,15.709-5.668,13.794-11.321,27.592-17.159,41.835.976-.274,1.729-.439,2.457-.692q27.613-9.633,55.215-19.265c1.409-.49,2.917-1.373,4.145.392v1.032Zm-430.165-17.7a14.661,14.661,0,0,0-1.394.547c-.743.423-1.482.862-2.2,1.327-12.973,8.383-21.718,20.308-28.191,34.04a29.134,29.134,0,0,0-2.612,17.8c1.125,6.205,6.029,8.843,11.6,6.4a23.02,23.02,0,0,0,5.033-3.061A62.209,62.209,0,0,0,383.5,113.4c2.963-4.713,5.777-9.524,8.652-14.294.9-1.487.795-2.55-.619-3.944a24.152,24.152,0,0,1-4.249-6.05c-2.834-5.451-2.225-11.1-.165-17.232ZM646.312,101.91c.176.32.346.64.521.96,2.018,0,4.114.356,6.045-.057,14.4-3.072,27.086-9.2,36.409-21.067a18.071,18.071,0,0,0,2.839-4.538c1.466-3.841-.563-6.757-4.641-6.732-6.205.036-11.548,2.777-16.23,6.417a175.739,175.739,0,0,0-15.574,13.83c-3.443,3.407-6.267,7.434-9.37,11.187Z" transform="translate(-160.147 -5.959)" fill="#f6f8f9"/>
    <path id="パス_113" data-name="パス 113" d="M455.3,415.784c3.325-9.369,6.613-18.754,9.984-28.1,2.555-7.083,5.224-14.124,8.027-21.681-4.424,1.482-8.425,2.86-12.451,4.166-9.628,3.113-19.2,6.417-28.94,9.163a26.7,26.7,0,0,1-10.691.537c-6.83-.96-11.3-5-12.637-12.023-2.731,1.874-5.281,3.717-7.919,5.42a24.058,24.058,0,0,1-13.251,3.614,15.1,15.1,0,0,1-14.7-10.072c-.279-.707-.527-1.425-.831-2.24-3.278,2.137-6.453,4.285-9.705,6.313a52.012,52.012,0,0,1-19.436,7.2c-9.648,1.549-20.587-1.425-23.963-13.365-2.8,1.874-5.487,3.83-8.322,5.539-9.137,5.524-18.754,8.931-29.652,6.4-4.1-.955-7.253-3.366-10.164-6.639-1.786,3.717-3.49,7.31-5.234,10.887-4.176,8.559-8.332,17.133-12.611,25.641-.511,1.012-1.987,2.5-2.571,2.323-1.409-.434-3.35-1.523-3.65-2.7-.594-2.37-1.007-5.3-.124-7.434,2.777-6.732,6.174-13.205,9.364-19.761,1.869-3.83,3.81-7.625,5.968-11.94-4.837,2.576-8.987,5.1-13.386,7.067-8.347,3.743-16.943,5.276-25.569.883-2.4-1.223-4.434-3.144-6.917-4.945-2.442,4.662-5,9.292-7.325,14.041-3.577,7.32-6.985,14.718-10.479,22.079-1.1,2.328-3.624,2.478-5.374.279-1.853-2.328-2.488-4.951-1.125-7.707,3.81-7.692,7.707-15.337,11.558-23,1.182-2.349,2.339-4.713,3.81-7.681-3.247,2.184-5.833,4.083-8.574,5.72a17.126,17.126,0,0,1-10.8,2.514c-5.4-.547-8.476-5.766-7.78-10.836.046-.33.1-.661.2-1.332-2.922,2.1-5.529,4.135-8.291,5.921-4.254,2.757-8.59,5.41-13.747,6.184-5.952.893-9.586-1.75-10.577-7.527-3.567,2.024-7.036,4.4-10.83,6a18.049,18.049,0,0,1-8.007,1.234c-5.978-.408-9.132-4.109-9.55-10.887-1.76,1.414-3.216,2.777-4.858,3.861-3.577,2.364-7.186,4.692-10.9,6.824a6.045,6.045,0,0,0-3.1,3.789c-2.56,8.74-5.482,17.35-10.257,25.192a24.658,24.658,0,0,1-2.87,3.949c-1.466,1.58-3.123,3.128-5.58,2.142a5.021,5.021,0,0,1-3.417-5.487,42.67,42.67,0,0,1,2.659-9.813c2.989-7.206,6.324-14.268,9.514-21.387.16-.361.263-.743.4-1.115-3.469,1.879-6.757,3.856-10.211,5.472a18.029,18.029,0,0,1-12.069,1.456c-6.974-1.719-11.058-6.215-11.925-13.954-.965.738-1.745,1.285-2.468,1.895-6.9,5.854-14.5,10.433-23.38,12.586A28.73,28.73,0,0,1,7.811,376.7c-4.243-2.653-6.448-6.773-7.325-11.641-.119-.656-.336-1.291-.506-1.936v-4.646c1.75-4.347,3.077-8.926,5.343-12.983,3.851-6.886,9.9-11.775,16.421-16.086.609-.4,1.383-1.461,1.239-1.982-2.442-8.874,1.719-15.559,7.625-21.15,8.084-7.656,17.856-11.93,29.213-11.223,6.479.4,12.245,2.762,15.926,8.59a8.7,8.7,0,0,1,.547,9.086c-1.358,2.545-3.928,3.49-6.763,3.464a10.331,10.331,0,0,1-2.488-.521c-1.781-.47-2.251-1.378-1.456-3.211,1.394-3.226.129-5.637-3.263-6.757-10.887-3.6-24.949,3.516-28.418,14.413a32.735,32.735,0,0,0-.707,3.9c1.383-.15,2.364-.2,3.324-.367a36.475,36.475,0,0,1,17.6.774,16.054,16.054,0,0,1,2.633,1.017c3.758,1.982,4.228,5.906.7,8.2-8.027,5.235-16.638,6.747-25.682,2.777a4.313,4.313,0,0,0-4.718.268c-7.919,5.333-13.5,12.229-15.858,21.7-2.349,9.447,6.019,14.361,12.369,13.711,10.17-1.038,18.6-6.066,26.219-12.281,6.03-4.92,11.445-10.624,16.912-16.2,6.3-6.427,13.313-11.651,21.986-14.377a22.439,22.439,0,0,1,12.715-.108,10.753,10.753,0,0,1,7.909,7.594,43.078,43.078,0,0,1,2.406-4.878,3,3,0,0,1,2.225-1.265c4.486.377,6.262,2.9,4.512,6.964-3.763,8.745-7.836,17.35-11.785,26.018a2.757,2.757,0,0,0-.268,1.822,54.5,54.5,0,0,0,5.214-3.335c4.218-3.392,8.461-6.778,12.384-10.49,1.616-1.528,2.483-3.861,3.619-5.875,2.571-4.563,5.049-9.173,7.661-13.711.728-1.26,1.032-3.392,3.464-2.333,3.825,1.662,4.935,3.154,3.9,5.787-.872,2.23-1.926,4.4-2.994,6.541-3.175,6.375-6.427,12.715-9.586,19.1-1.007,2.034-2,4.419-.165,6.257,2.055,2.06,4.615.516,6.4-.619a64.913,64.913,0,0,0,16.24-14.176A112.718,112.718,0,0,0,165.729,332.6c.805-1.621,1.765-2.757,3.737-2.184,2.049.6,3.763,1.8,3.6,4.094a13.112,13.112,0,0,1-1.549,5.312c-3.593,6.448-7.511,12.72-11.047,19.2a19.081,19.081,0,0,0-1.982,6.8c-.258,2.184.9,2.9,2.875,1.895a68.1,68.1,0,0,0,9.782-5.627,73.433,73.433,0,0,0,22.951-27.05,3.146,3.146,0,0,1,.5-.9c1.327-1.28,1.125-4.62,3.959-3.753,4.589,1.414,6.541,4.491,4.909,8.084-2.292,5.054-5.25,9.808-7.9,14.707-1.915,3.546-3.918,7.057-5.6,10.712-.5,1.074-.558,3.226.088,3.737a4.367,4.367,0,0,0,3.965.289,58.182,58.182,0,0,0,9.132-6.148c4.331-3.66,8.368-7.666,12.5-11.563a9.388,9.388,0,0,0,1.962-2.359c2.973-5.709,5.937-11.424,8.75-17.211,1.425-2.932,3.164-3.577,5.08-1,1.889,2.54,3.722,2.055,6.138,1.378a37.019,37.019,0,0,1,8.8-1.673,14.479,14.479,0,0,1,14.8,11.775c1.12,5.281-.165,10.206-2.086,15.053a7.621,7.621,0,0,0-.687,2.235c5.271-2.953,10.779-5.6,13.587-11.429,2.235-4.636,4.316-9.349,6.442-14.036,1.28-2.824,2.948-3.237,5.42-1.229a17.241,17.241,0,0,1,1.7,1.776c3.268-1.125,6.3-2.282,9.406-3.216,8.482-2.566,17.381,2.318,19.746,8.146,1.977,4.868,1.621,9.746-.114,14.589-.687,1.915-1.487,3.784-2.483,6.288,4.527-2.664,8.347-5.266,10.836-9.369,5.9-9.705,13.164-17.856,24.268-21.687a25.888,25.888,0,0,1,17.66.088c5.4,1.946,7.878,6.618,6.241,12.059-2.251,7.485-7.516,12.694-14.181,15.91-5.317,2.566-11.316,3.923-17.159,5.1-3.061.614-6.432-.336-9.679-.578-1.048,4.718,1.977,8.394,7.5,9.008,5.766.64,11.161-.867,16.194-3.35,4.455-2.194,8.564-5.069,12.885-7.547,4.76-2.731,7.671-6.855,10.583-11.481,6.236-9.912,15.177-16.767,26.931-19.219a21.636,21.636,0,0,1,12.678,1.079c2.044.836,3.717,2.581,5.766,4.063,3.872-5.684,7.909-11.625,11.961-17.557,3.779-5.534,7.5-11.114,11.4-16.555,1.048-1.456,1.786-4.233,4.62-2.684,2.483,1.358,3.706,5.044,2.261,7.341-3.6,5.74-7.5,11.3-11.125,17.03-6.84,10.81-13.752,21.578-20.226,32.6-1.895,3.221-2.8,7.186-3.448,10.934a6.23,6.23,0,0,0,5.565,7.614,28.709,28.709,0,0,0,10.691-.465c13.561-3.686,27-7.8,40.931-11.889-.955-2.024-1.523-3.319-2.163-4.579-4.434-8.724-8.9-17.433-13.282-26.183a6.983,6.983,0,0,1-.217-2.447c.645.434,1.5.723,1.895,1.322,5.126,7.831,10.185,15.7,15.26,23.566.547.847,1.094,1.683,1.956,3,1.843-4.1,3.4-7.764,5.116-11.347,6.329-13.241,12.663-26.477,19.105-39.662a39.3,39.3,0,0,1,3.676-5.224c.3.16.609.315.914.475a13.934,13.934,0,0,1-.465,3.108q-8.425,21.712-16.953,43.378c-1.156,2.948-2.437,5.849-3.882,9.3,1.543-.382,2.669-.578,3.743-.934q15.765-5.219,31.51-10.479a44.918,44.918,0,0,1,5.436-1.559c.64-.124,1.42.48,2.137.754-.454.547-.8,1.347-1.383,1.6-6.778,2.917-13.551,5.844-20.4,8.574-7.49,2.994-15.063,5.782-22.6,8.673-.537.206-1.043.506-1.559.759,5.286,10.108,10.51,20.107,15.74,30.1-.263.212-.527.428-.795.64a10.659,10.659,0,0,1-2.08-1.76c-5.157-7.284-10.257-14.614-15.373-21.929-.186-.263-.377-.521-.759-1.043-1.8,3.676-3.459,7.119-5.162,10.546q-8.8,17.748-17.629,35.5c-.3.6-.5,1.244-.743,1.869h-1.033ZM102.6,349.6c-.558-2.06-1.347-3.49-1.239-4.847.47-5.818-3.17-9.633-8.74-8.038a38.79,38.79,0,0,0-11.388,5.637c-7.072,4.982-12.673,11.321-15.213,19.885-.888,3-.681,5.968,1.533,8.2a6.665,6.665,0,0,0,8.383.96A159.224,159.224,0,0,0,92.709,360.95,32.528,32.528,0,0,0,102.6,349.6Zm312.78-3.4c-.619-1.874-1.337-3.17-1.44-4.512-.237-3.133-.95-4.424-4.006-5a16.289,16.289,0,0,0-5.854-.067c-7.129,1.316-12.1,5.916-16.2,11.5-2.591,3.531-4.889,7.315-5.25,11.878-.48,6.076,3.479,10.072,9.034,8.7,7.661-1.895,13.4-6.938,18.228-12.828,2.406-2.937,3.83-6.68,5.482-9.669Zm-108.242.919c.165-5.88-2.008-8.11-6.664-8.208a24.779,24.779,0,0,0-24.268,19.658,8.182,8.182,0,0,0,.852,4.889c3.774,7.294,11.367,8.027,17.4,4.171,7.79-4.982,12.08-12.462,12.684-20.5Zm-64.1-8.755c-5.684.8-11.894,2.684-15.254,9.6a56.684,56.684,0,0,1-4.543,8.069c-2.044,2.886-1.5,5.374.165,8.079,3.361,5.477,9.452,7.831,14.263,4.94a39.48,39.48,0,0,0,8.817-7.005c3.959-4.336,6.489-9.478,5.931-15.678C251.954,341.225,249.1,338.386,243.039,338.36Zm88.816,14.769c4.119,1.275,8,.7,11.811-.31,6.861-1.822,12.988-5.074,17.577-10.572a7.406,7.406,0,0,0,1.44-5.617c-.516-2.235-3.164-2.488-5.214-2.292a37.809,37.809,0,0,0-6.757,1.482c-9.07,2.607-14.619,9.07-18.852,17.309Z" transform="translate(0 -142.706)" fill="#f6f8f9"/>
    <path id="パス_114" data-name="パス 114" d="M185.089,0c4.527,2.793,9.22,5.353,13.541,8.43,6.4,4.558,7.733,9.029,4.739,16.313-2.576,6.262-5.8,12.255-8.605,18.429-10.469,23.049-20.954,46.089-31.273,69.205-3.913,8.771-7.382,17.737-11.063,26.617-.258.625-.573,1.223-.991,2.1a30.1,30.1,0,0,1-2.8-1.187c-2.411-1.322-4.718-2.844-7.186-4.042-7.573-3.665-9.628-11.956-7.568-18.352a157.632,157.632,0,0,1,6.752-17.216c6.282-13.742,12.818-27.365,19.245-41.035a4.118,4.118,0,0,0,.47-2.271c-4.78,4.8-9.715,9.447-14.3,14.423-16.493,17.867-33.575,35.232-47.833,55.035-2.4,3.33-4.187,7.088-6.319,10.608-1.8,2.963-2.4,3.226-5.57,1.9-3.722-1.549-7.392-3.232-11.011-5a7.513,7.513,0,0,1-4.254-7.165A62.776,62.776,0,0,1,72.279,113.8c3.681-15.879,7.232-31.81,13.169-47.059a81.476,81.476,0,0,0,3.737-11.305c-2.715,3.1-5.575,6.086-8.115,9.328-13.943,17.789-28.036,35.47-41.592,53.548-6.21,8.28-11.274,17.417-16.963,26.1a2.649,2.649,0,0,1-2.442.79c-6.267-3.572-12.08-7.779-14.769-14.805-1.156-3.025.041-6.169,1.92-8.735,5.322-7.268,10.567-14.614,16.23-21.614,13.406-16.566,26.617-33.322,40.7-49.3,14.253-16.178,29.482-31.5,44.23-47.24,2.313-2.468,4.429-3.381,7.6-1.223,3.608,2.457,7.64,4.285,11.331,6.633,3.175,2.024,4.027,5.544,2.839,9.333Q122.291,43.41,114.511,68.6c-.65,2.111-1.074,4.3-1.781,7.2,2.731-3.061,4.914-5.622,7.212-8.079,9.452-10.1,18.863-20.251,28.434-30.24,10.763-11.233,21.687-22.311,32.507-33.487a49.933,49.933,0,0,0,3.17-4h1.032Z" transform="translate(-2.355)" fill="#f6f8f9"/>
    <path id="パス_115" data-name="パス 115" d="M734.568,51.97c-7.924-.1-12.591-4.93-12.384-13.148.155-6.184,5.606-13.855,14.005-13.763,7.521.083,13.582,5.792,13.556,12.715C749.714,46.374,743.607,52.089,734.568,51.97Z" transform="translate(-349.381 -12.127)" fill="#f6f8f9"/>
    <path id="パス_116" data-name="パス 116" d="M413.645,323.936c.108,3.164-2.235,5.441-5.715,5.56-2.643.088-4.62-2.122-4.723-5.281-.1-3.02,2.338-6.066,4.966-6.215,3.319-.191,5.333,1.993,5.472,5.931Z" transform="translate(-195.07 -153.839)" fill="#f6f8f9"/>
  </g>
</svg>
