<?xml version="1.0" encoding="UTF-8"?><svg id="_レイヤー_1" xmlns="http://www.w3.org/2000/svg" viewBox="0 0 1273 529"><path d="M1273,162c-7.37,3.35-14.63,6.97-22.13,10.01-30.37,12.3-60.8,24.43-91.22,36.61-3.08,1.23-6.16,2.57-9.36,3.41-3.4,.9-3.22,2.51-1.88,5.08,13.41,25.65,26.8,51.3,40.1,77.01,2.92,5.65,5.42,11.51,8.11,17.27-.63,.45-1.26,.91-1.89,1.36-1.87-1.94-4.1-3.65-5.54-5.87-6.7-10.34-13.31-20.73-19.71-31.26-9.25-15.22-18.29-30.56-27.43-45.85-.5-.84-1.12-1.62-2.14-3.09-34.3,72.52-68.56,144.47-105.8,214.92-.81-.38-1.62-.75-2.43-1.13,9.02-24.58,21.44-47.73,31.48-71.89,10.07-24.25,21.28-48.03,31.9-72.05,10.68-24.14,21.26-48.32,32.45-73.75-14.86,5.75-28.76,10.97-42.53,16.47-33.66,13.46-67.06,27.66-102.5,36.02-18.85,4.44-37.72,5.67-56.83,.81-26.62-6.77-44.21-32.49-39.79-59.75,1.35-8.3,3.95-16.43,6.36-24.52,.87-2.91,.82-4.82-1.52-7.02-3.49-3.28-6.54-7.02-10.02-10.83-9.95,9.69-19.94,19.37-29.87,29.1-22.83,22.36-45.61,44.77-68.51,67.06-1.13,1.1-3.3,2.2-4.63,1.87-8.53-2.09-17.24-3.9-25.37-7.1-10.69-4.21-14.68-11.31-13.61-22.84,.92-9.92,2.62-19.78,3.99-29.66,.27-1.91,.59-3.82,1.1-7.16-7.48,8.24-13.74,15.77-20.66,22.62-15.12,14.96-29.38,31.04-48.58,41.15-11.74,6.19-24.65,8.77-36.28,1.79-10.36-6.22-18.71-15.61-21.24-28.39-1.02-5.15-1.36-10.44-2.06-16.05-8.24,6.79-16.26,13.68-24.57,20.18-8.39,6.56-16.83,13.1-25.69,18.99-10.37,6.88-22.31,10-34.34,6.98-16.32-4.09-24.74-16.94-28.33-32.33-4.3-18.39,1.35-35.55,9.45-52,2.61-5.31,5.14-10.66,7.42-16.41-11.06,7.09-23.31,10.2-35.92,12.39-1.27,.22-2.57,2.29-3.23,3.78-13.25,29.76-31.72,55.54-58.4,74.63-13.05,9.34-27.68,15.25-44.36,13.51-1.31-.14-2.82-.21-3.86-.89-10.83-7.09-24.04-10.73-32-21.98-7.84-11.07-11.05-23.65-9.88-36.87,.81-9.17,2.65-18.59,6-27.12,15.47-39.4,41.7-69.35,80.43-87.36,7.28-3.38,15.44-5.32,23.4-6.64,9.94-1.65,18.65,1.92,25.8,9.17,1.2,1.22,2.83,2.36,4.45,2.76,14.62,3.58,20.93,14.12,21.57,27.51,.23,4.79-.24,9.64-.83,14.42-.58,4.74-1.7,9.41-2.72,14.88,23.14-4.65,39.86-17.95,53.36-35.66-6.34-1.82-12.53-2.96-18.18-5.36-8.57-3.63-14.57-10.3-18.75-18.61-2.91-5.79-2.83-6.24,3.4-7.25,14.95-2.42,29.86-5.25,44.91-6.84,9.3-.98,15.33-3.98,20.22-12.74,11.25-20.18,23.96-39.54,36.26-59.12,4.62-7.35,6.1-7.75,12.88-2.64,5.68,4.28,11.11,9.1,15.86,14.39,6.25,6.96,4.79,15.04,.55,22.32-5.18,8.91-11.15,17.36-16.77,26.01-.88,1.36-1.75,2.73-3.15,4.92,4.76,.22,8.66,.38,12.57,.58,15.79,.83,25.38,8.68,29.23,23.82,.83,3.27-1.03,4.24-3.63,4.54-7.44,.87-14.9,1.6-22.33,2.48-11.57,1.37-23.15,2.66-34.66,4.39-1.83,.27-3.95,2.36-4.9,4.15-9.24,17.48-18.33,35.04-27.32,52.65-4.45,8.72-9.35,17.32-12.66,26.48-3.58,9.91-6.48,20.28-7.95,30.69-1.29,9.13,4.2,13.2,12.61,9.46,7.46-3.32,14.3-8.44,20.71-13.64,21.68-17.58,40.07-38.49,59.03-58.86,22.5-24.16,41.28-50.88,57.51-79.5,.24-.43,.53-.84,.87-1.36,10.24,4.24,19.47,9.39,26.99,17.13,6.42,6.61,7.68,13,3.05,20.84-7.36,12.45-15.52,24.43-23.18,36.71-9.43,15.11-19.11,30.09-27.82,45.6-4.01,7.14-6.23,15.35-8.74,23.24-.63,1.99-.04,5.69,1.35,6.67,1.71,1.2,5.45,1.36,7.26,.25,6.22-3.79,12.61-7.68,17.8-12.71,12.78-12.4,25.42-25.02,37.18-38.37,13.69-15.54,20.4-34.94,26.84-54.22,3.89-11.64,6.79-23.6,10.45-35.31,.46-1.49,2.81-3.31,4.37-3.39,12.24-.61,23.17,4.06,33.69,9.53,4.32,2.24,4.98,7.15,4.07,11.51-1.84,8.76-4.22,17.41-6.46,26.08-7.55,29.28-15.14,58.56-22.7,87.84-.12,.46-.01,.97-.01,2.38,8.98-7.81,17.8-14.78,25.82-22.59,16.71-16.26,32.99-32.95,49.44-49.47,.71-.71,1.34-1.49,2.06-2.18,5.38-5.13,7.04-10.31,5.15-18.42-5.14-22.04,.6-41.26,18.22-56.64,8.23-7.19,22.18-6.99,29.45-2.47,8.71,5.41,12.6,15.66,10.21,27.09-3.47,16.6-13.52,29.42-24.11,41.93-1.47,1.74-2.89,3.53-4.7,5.75,3.11,3.78,6.12,7.44,9.5,11.55,1.25-1.71,2.1-2.86,2.93-4.03,15.68-22.13,32.45-43.27,56.68-56.77,15.59-8.69,31.66-16.45,49.79-18.39,11.03-1.18,21.2,.05,29.03,9.4,2.61,3.11,6.46,5.2,9.8,7.67,12.78,9.47,14.48,25.63,10.61,38.81-5.03,17.14-16.24,30.1-29.22,41.52-22.08,19.44-48.21,29.31-77.54,29.68-8.11,.1-16.26-2.63-25.14-4.19-3.25,11.29-5.38,23.36,1.64,35.03,4.55,7.56,12.2,9.76,20.46,10.61,21.81,2.24,42.3-3.68,62.53-10.48,36.12-12.13,72.07-24.73,108.09-37.14,1.55-.53,3.06-1.21,5.05-2-1.52-3.08-2.85-5.88-4.27-8.63-9.42-18.16-18.9-36.28-28.24-54.48-1.05-2.05-1.35-4.47-2-6.73l1.76-1.15c1.56,1.53,3.49,2.84,4.63,4.64,11.82,18.69,23.52,37.47,35.26,56.22,.59,.95,1.27,1.83,2.32,3.33,2.14-4.39,4-8.21,5.87-12.02,15.29-31.21,30.57-62.41,45.86-93.62,1.68-3.43,3.18-6.97,5.06-10.29,.62-1.1,2.18-1.67,3.31-2.48,.2,1.45,.98,3.13,.51,4.32-4.03,10.19-8.31,20.29-12.48,30.43-10.98,26.72-21.93,53.45-33.24,81.04,1.89-.53,3.35-.85,4.76-1.34,35.66-12.44,71.3-24.9,106.96-37.32,2.73-.95,5.65-2.66,8.03,.76v2ZM439.71,127.71c-1.53,.59-2.16,.76-2.7,1.06-1.44,.82-2.87,1.67-4.27,2.57-25.13,16.24-42.07,39.34-54.61,65.94-5.11,10.84-7.22,22.54-5.06,34.48,2.18,12.02,11.68,17.13,22.47,12.4,3.46-1.52,6.79-3.57,9.75-5.93,10.74-8.55,20.08-18.45,27.4-30.1,5.74-9.13,11.19-18.45,16.76-27.69,1.74-2.88,1.54-4.94-1.2-7.64-3.35-3.3-6.03-7.5-8.23-11.72-5.49-10.56-4.31-21.5-.32-33.38Zm502.08,58.17c.34,.62,.67,1.24,1.01,1.86,3.91,0,7.97,.69,11.71-.11,27.89-5.95,52.47-17.83,70.53-40.81,2.13-2.71,4.29-5.61,5.5-8.79,2.84-7.44-1.09-13.09-8.99-13.04-12.02,.07-22.37,5.38-31.44,12.43-10.6,8.24-20.61,17.34-30.17,26.79-6.67,6.6-12.14,14.4-18.15,21.67Z"/><path d="M882,529c6.44-18.15,12.81-36.33,19.34-54.44,4.95-13.72,10.12-27.36,15.55-42-8.57,2.87-16.32,5.54-24.12,8.07-18.65,6.03-37.2,12.43-56.06,17.75-6.51,1.84-13.95,1.99-20.71,1.04-13.23-1.86-21.88-9.68-24.48-23.29-5.29,3.63-10.23,7.2-15.34,10.5-7.79,5.04-16.56,6.96-25.67,7-13.32,.07-23.61-7.15-28.48-19.51-.54-1.37-1.02-2.76-1.61-4.34-6.35,4.14-12.5,8.3-18.8,12.23-11.58,7.22-24.22,11.79-37.65,13.95-18.69,3-39.88-2.76-46.42-25.89-5.43,3.63-10.63,7.42-16.12,10.73-17.7,10.7-36.33,17.3-57.44,12.39-7.94-1.85-14.05-6.52-19.69-12.86-3.46,7.2-6.76,14.16-10.14,21.09-8.09,16.58-16.14,33.19-24.43,49.67-.99,1.96-3.85,4.85-4.98,4.5-2.73-.84-6.49-2.95-7.07-5.24-1.15-4.59-1.95-10.27-.24-14.4,5.38-13.04,11.96-25.58,18.14-38.28,3.62-7.42,7.38-14.77,11.56-23.13-9.37,4.99-17.41,9.87-25.93,13.69-16.17,7.25-32.82,10.22-49.53,1.71-4.64-2.37-8.59-6.09-13.4-9.58-4.73,9.03-9.69,18-14.19,27.2-6.93,14.18-13.53,28.51-20.3,42.77-2.14,4.51-7.02,4.8-10.41,.54-3.59-4.51-4.82-9.59-2.18-14.93,7.38-14.9,14.93-29.71,22.39-44.56,2.29-4.55,4.53-9.13,7.38-14.88-6.29,4.23-11.3,7.91-16.61,11.08-6.39,3.82-13.27,5.65-20.93,4.87-10.46-1.06-16.42-11.17-15.07-20.99,.09-.64,.19-1.28,.39-2.58-5.66,4.07-10.71,8.01-16.06,11.47-8.24,5.34-16.64,10.48-26.63,11.98-11.53,1.73-18.57-3.39-20.49-14.58-6.91,3.92-13.63,8.52-20.98,11.63-4.7,1.99-10.38,2.74-15.51,2.39-11.58-.79-17.69-7.96-18.5-21.09-3.41,2.74-6.23,5.38-9.41,7.48-6.93,4.58-13.92,9.09-21.12,13.22-3.12,1.79-4.99,3.89-6.01,7.34-4.96,16.93-10.62,33.61-19.87,48.8-1.64,2.69-3.43,5.35-5.56,7.65-2.84,3.06-6.05,6.06-10.81,4.15-4.72-1.9-7.33-5.94-6.62-10.63,.98-6.46,2.66-12.98,5.15-19.01,5.79-13.96,12.25-27.64,18.43-41.43,.31-.7,.51-1.44,.77-2.16-6.72,3.64-13.09,7.47-19.78,10.6-7.38,3.45-15.4,4.79-23.38,2.82-13.51-3.33-21.42-12.04-23.1-27.03-1.87,1.43-3.38,2.49-4.78,3.67-13.37,11.34-28.09,20.21-45.29,24.38-15.65,3.79-30.45,1.25-44.05-7.25-8.22-5.14-12.49-13.12-14.19-22.55-.23-1.27-.65-2.5-.98-3.75,0-3,0-6,0-9,3.39-8.42,5.96-17.29,10.35-25.15,7.46-13.34,19.18-22.81,31.81-31.16,1.18-.78,2.68-2.83,2.4-3.84-4.73-17.19,3.33-30.14,14.77-40.97,15.66-14.83,34.59-23.11,56.59-21.74,12.55,.78,23.72,5.35,30.85,16.64,3.54,5.6,4.16,11.77,1.06,17.6-2.63,4.93-7.61,6.76-13.1,6.71-1.61-.01-3.23-.59-4.82-1.01-3.45-.91-4.36-2.67-2.82-6.22,2.7-6.25,.25-10.92-6.32-13.09-21.09-6.97-48.33,6.81-55.05,27.92-.68,2.14-.83,4.46-1.37,7.55,2.68-.29,4.58-.39,6.44-.71,11.48-1.99,22.86-2.08,34.09,1.5,1.74,.55,3.5,1.13,5.1,1.97,7.28,3.84,8.19,11.44,1.36,15.89-15.55,10.14-32.23,13.07-49.75,5.38-3.45-1.51-5.99-1.6-9.14,.52-15.34,10.33-26.16,23.69-30.72,42.04-4.55,18.3,11.66,27.82,23.96,26.56,19.7-2.01,36.03-11.75,50.79-23.79,11.68-9.53,22.17-20.58,32.76-31.38,12.21-12.45,25.79-22.57,42.59-27.85,8.16-2.56,16.48-2.4,24.63-.21,7.11,1.91,12.48,6.17,15.32,14.71,1.8-3.76,2.92-6.81,4.66-9.45,.83-1.26,2.91-2.57,4.31-2.45,8.69,.73,12.13,5.62,8.74,13.49-7.29,16.94-15.18,33.61-22.83,50.4-.4,.87-.79,1.75-.52,3.53,3.38-2.13,7-3.97,10.1-6.46,8.17-6.57,16.39-13.13,23.99-20.32,3.13-2.96,4.81-7.48,7.01-11.38,4.98-8.84,9.78-17.77,14.84-26.56,1.41-2.44,2-6.57,6.71-4.52,7.41,3.22,9.56,6.11,7.56,11.21-1.69,4.32-3.73,8.52-5.8,12.67-6.15,12.35-12.45,24.63-18.57,37-1.95,3.94-3.87,8.56-.32,12.12,3.98,3.99,8.94,1,12.4-1.2,11.84-7.52,22.62-16.38,31.46-27.46,9.67-12.12,18.64-24.69,25.56-38.6,1.56-3.14,3.42-5.34,7.24-4.23,3.97,1.16,7.29,3.49,6.98,7.93-.24,3.5-1.3,7.23-3,10.29-6.96,12.49-14.55,24.64-21.4,37.2-2.15,3.94-3.31,8.67-3.84,13.17-.5,4.23,1.74,5.61,5.57,3.67,6.49-3.3,13.13-6.59,18.95-10.9,18.85-13.96,34.13-31.12,44.46-52.4,.29-.6,.51-1.3,.96-1.74,2.57-2.48,2.18-8.95,7.67-7.27,8.89,2.74,12.67,8.7,9.51,15.66-4.44,9.79-10.17,19-15.3,28.49-3.71,6.87-7.59,13.67-10.85,20.75-.96,2.08-1.08,6.25,.17,7.24,1.72,1.36,5.71,1.66,7.68,.56,6.19-3.47,12.28-7.34,17.69-11.91,8.39-7.09,16.21-14.85,24.21-22.4,1.44-1.35,2.9-2.85,3.8-4.57,5.76-11.06,11.5-22.13,16.95-33.34,2.76-5.68,6.13-6.93,9.84-1.94,3.66,4.92,7.21,3.98,11.89,2.67,5.56-1.56,11.33-3.08,17.05-3.24,13.32-.38,25.55,8.14,28.66,22.81,2.17,10.23-.32,19.77-4.04,29.16-.53,1.33-1.17,2.62-1.33,4.33,10.21-5.72,20.88-10.85,26.32-22.14,4.33-8.98,8.36-18.11,12.48-27.19,2.48-5.47,5.71-6.27,10.5-2.38,1.39,1.13,2.5,2.6,3.3,3.44,6.33-2.18,12.21-4.42,18.22-6.23,16.43-4.97,33.67,4.49,38.25,15.78,3.83,9.43,3.14,18.88-.22,28.26-1.33,3.71-2.88,7.33-4.81,12.18,8.77-5.16,16.17-10.2,20.99-18.15,11.42-18.8,25.5-34.59,47.01-42.01,11.38-3.92,22.82-3.93,34.21,.17,10.47,3.77,15.26,12.82,12.09,23.36-4.36,14.5-14.56,24.59-27.47,30.82-10.3,4.97-21.92,7.6-33.24,9.87-5.93,1.19-12.46-.65-18.75-1.12-2.03,9.14,3.83,16.26,14.52,17.45,11.17,1.24,21.62-1.68,31.37-6.49,8.63-4.25,16.59-9.82,24.96-14.62,9.22-5.29,14.86-13.28,20.5-22.24,12.08-19.2,29.4-32.48,52.17-37.23,8.28-1.73,16.74-1.1,24.56,2.09,3.96,1.62,7.2,5,11.17,7.87,7.5-11.01,15.32-22.52,23.17-34.01,7.32-10.72,14.52-21.53,22.08-32.07,2.03-2.82,3.46-8.2,8.95-5.2,4.81,2.63,7.18,9.77,4.38,14.22-6.98,11.12-14.53,21.89-21.55,32.99-13.25,20.94-26.64,41.8-39.18,63.16-3.67,6.24-5.42,13.92-6.68,21.18-1.32,7.6,3.17,13.83,10.78,14.75,6.79,.82,14.17,.87,20.71-.9,26.27-7.14,52.31-15.11,79.29-23.03-1.85-3.92-2.95-6.43-4.19-8.87-8.59-16.9-17.24-33.77-25.73-50.72-.66-1.32-.3-3.15-.42-4.74,1.25,.84,2.91,1.4,3.67,2.56,9.93,15.17,19.73,30.42,29.56,45.65,1.06,1.64,2.12,3.26,3.79,5.82,3.57-7.95,6.59-15.04,9.91-21.98,12.26-25.65,24.53-51.29,37.01-76.83,1.79-3.66,4.72-6.76,7.12-10.12,.59,.31,1.18,.61,1.77,.92-.28,2.01-.18,4.17-.9,6.02-10.88,28.04-21.84,56.04-32.84,84.03-2.24,5.71-4.72,11.33-7.52,18.01,2.99-.74,5.17-1.12,7.25-1.81,20.36-6.74,40.69-13.55,61.04-20.3,3.47-1.15,6.96-2.32,10.53-3.02,1.24-.24,2.75,.93,4.14,1.46-.88,1.06-1.55,2.61-2.68,3.09-13.13,5.65-26.25,11.32-39.52,16.61-14.51,5.8-29.18,11.2-43.77,16.8-1.04,.4-2.02,.98-3.02,1.47,10.24,19.58,20.36,38.95,30.49,58.31-.51,.41-1.02,.83-1.54,1.24-1.36-1.12-3.05-2.02-4.03-3.41-9.99-14.11-19.87-28.31-29.78-42.48-.36-.51-.73-1.01-1.47-2.02-3.48,7.12-6.7,13.79-10,20.43-11.37,22.92-22.78,45.83-34.15,68.76-.58,1.16-.96,2.41-1.44,3.62h-2ZM198.77,400.79c-1.08-3.99-2.61-6.76-2.4-9.39,.91-11.27-6.14-18.66-16.93-15.57-7.78,2.23-15.41,6.23-22.06,10.92-13.7,9.65-24.55,21.93-29.47,38.52-1.72,5.81-1.32,11.56,2.97,15.88,4.59,4.62,10.8,4.97,16.24,1.86,11.08-6.33,22.32-12.6,32.49-20.23,8.16-6.12,15.29-13.85,19.16-21.98Zm605.9-6.59c-1.2-3.63-2.59-6.14-2.79-8.74-.46-6.07-1.84-8.57-7.76-9.68-3.67-.69-7.68-.81-11.34-.13-13.81,2.55-23.44,11.46-31.38,22.28-5.02,6.84-9.47,14.17-10.17,23.01-.93,11.77,6.74,19.51,17.5,16.85,14.84-3.67,25.95-13.44,35.31-24.85,4.66-5.69,7.42-12.94,10.62-18.73Zm-209.68,1.78c.32-11.39-3.89-15.71-12.91-15.9-22.02-.47-42.86,16.2-47.01,38.08-.56,2.97,.23,6.73,1.65,9.47,7.31,14.13,22.02,15.55,33.7,8.08,15.09-9.65,23.4-24.14,24.57-39.72Zm-124.17-16.96c-11.01,1.55-23.04,5.2-29.55,18.59-2.61,5.37-5.36,10.78-8.8,15.63-3.96,5.59-2.9,10.41,.32,15.65,6.51,10.61,18.31,15.17,27.63,9.57,6.2-3.72,12.23-8.26,17.08-13.57,7.67-8.4,12.57-18.36,11.49-30.37-.9-9.95-6.43-15.45-18.17-15.5Zm172.05,28.61c7.98,2.47,15.5,1.36,22.88-.6,13.29-3.53,25.16-9.83,34.05-20.48,2.23-2.67,3.55-7.58,2.79-10.88-1-4.33-6.13-4.82-10.1-4.44-4.42,.43-8.8,1.63-13.09,2.87-17.57,5.05-28.32,17.57-36.52,33.53Z"/><path d="M354,0c8.77,5.41,17.86,10.37,26.23,16.33,12.4,8.83,14.98,17.49,9.18,31.6-4.99,12.13-11.24,23.74-16.67,35.7-20.28,44.65-40.59,89.28-60.58,134.06-7.58,16.99-14.3,34.36-21.43,51.56-.5,1.21-1.11,2.37-1.92,4.07-1.92-.8-3.76-1.39-5.43-2.3-4.67-2.56-9.14-5.51-13.92-7.83-14.67-7.1-18.65-23.16-14.66-35.55,3.65-11.35,8.12-22.5,13.08-33.35,12.17-26.62,24.83-53.01,37.28-79.49,.61-1.29,1.08-2.64,.91-4.4-9.26,9.3-18.82,18.3-27.71,27.94-31.95,34.61-65.04,68.25-92.66,106.61-4.64,6.45-8.11,13.73-12.24,20.55-3.48,5.74-4.64,6.25-10.79,3.69-7.21-3-14.32-6.26-21.33-9.69-5.65-2.76-8.33-8.03-8.24-13.88,.14-8.41,.49-17.02,2.37-25.17,7.13-30.76,14.01-61.62,25.51-91.16,2.75-7.08,5.46-14.17,7.24-21.9-5.26,6.01-10.8,11.79-15.72,18.07-27.01,34.46-54.31,68.71-80.57,103.73-12.03,16.04-21.84,33.74-32.86,50.56-.74,1.13-3.72,2.11-4.73,1.53-12.14-6.92-23.4-15.07-28.61-28.68-2.24-5.86,.08-11.95,3.72-16.92,10.31-14.08,20.47-28.31,31.44-41.87,25.97-32.09,51.56-64.55,78.84-95.51,27.61-31.34,57.11-61.02,85.68-91.51,4.48-4.78,8.58-6.55,14.73-2.37,6.99,4.76,14.8,8.3,21.95,12.85,6.15,3.92,7.8,10.74,5.5,18.08-10.16,32.5-20.26,65.01-30.31,97.54-1.26,4.09-2.08,8.33-3.45,13.95,5.29-5.93,9.52-10.89,13.97-15.65,18.31-19.57,36.54-39.23,55.08-58.58,20.85-21.76,42.01-43.22,62.97-64.87,2.28-2.36,4.1-5.15,6.14-7.75,.67,0,1.33,0,2,0Z"/><path d="M746.18,77.19c-15.35-.2-24.39-9.55-23.99-25.47,.3-11.98,10.86-26.84,27.13-26.66,14.57,.16,26.31,11.22,26.26,24.63-.06,16.66-11.89,27.73-29.4,27.5Z"/><path d="M423.43,329.51c.21,6.13-4.33,10.54-11.07,10.77-5.12,.17-8.95-4.11-9.15-10.23-.19-5.85,4.53-11.75,9.62-12.04,6.43-.37,10.33,3.86,10.6,11.49Z"/></svg>