<?xml version="1.0" encoding="UTF-8"?><svg id="_レイヤー_2" xmlns="http://www.w3.org/2000/svg" viewBox="0 0 141.73 21.56"><defs><style>.cls-1{fill:#231815;}</style></defs><g id="_レイヤー_1-2"><g><path class="cls-1" d="M141.73,21.56H0V0H141.73V21.56ZM2.06,19.5H139.67V2.06H2.06V19.5Z"/><g><path class="cls-1" d="M10.2,5l1.7,8.16h.03l1.72-8.16h3.56v11.57h-2.2V7.33h-.03l-2.12,9.23h-1.87l-2.12-9.23h-.03v9.23h-2.2V5h3.57Z"/><path class="cls-1" d="M19.13,8.36c.08-.74,.27-1.37,.55-1.9,.28-.53,.69-.94,1.23-1.24,.53-.3,1.25-.45,2.15-.45s1.62,.15,2.15,.45c.53,.3,.94,.71,1.23,1.24,.28,.53,.47,1.16,.55,1.9,.08,.74,.13,1.55,.13,2.42s-.04,1.7-.13,2.43c-.08,.73-.27,1.37-.55,1.9-.28,.53-.69,.93-1.23,1.21-.53,.28-1.25,.42-2.15,.42s-1.62-.14-2.15-.42c-.53-.28-.94-.69-1.23-1.21-.28-.53-.47-1.16-.55-1.9-.08-.73-.13-1.54-.13-2.43s.04-1.68,.13-2.42Zm2.34,4.41c.04,.55,.12,.99,.23,1.33,.12,.34,.28,.59,.5,.75,.22,.16,.5,.23,.86,.23s.64-.08,.86-.23c.22-.16,.38-.41,.5-.75,.12-.34,.19-.78,.23-1.33,.04-.54,.06-1.21,.06-1.98s-.02-1.44-.06-1.98c-.04-.54-.12-.98-.23-1.33-.12-.34-.28-.6-.5-.75-.22-.16-.5-.23-.86-.23s-.64,.08-.86,.23c-.22,.16-.38,.41-.5,.75-.12,.35-.19,.79-.23,1.33-.04,.54-.06,1.2-.06,1.98s.02,1.44,.06,1.98Z"/><path class="cls-1" d="M36.21,6.91h-2.61v9.65h-2.4V6.91h-2.61v-1.91h7.62v1.91Z"/><path class="cls-1" d="M38.05,5h2.4v11.57h-2.4V5Z"/><path class="cls-1" d="M46.55,13.55h.05l1.77-8.55h2.49l-2.74,11.57h-3.09l-2.74-11.57h2.57l1.69,8.55Z"/><path class="cls-1" d="M59.31,6.91h-4.26v2.72h4.01v1.91h-4.01v3.11h4.42v1.91h-6.83V5h6.66v1.91Z"/><path class="cls-1" d="M74.43,6.91h-4.26v2.72h4.01v1.91h-4.01v3.11h4.43v1.91h-6.83V5h6.66v1.91Z"/><path class="cls-1" d="M82.02,16.56c-.45,.12-.97,.18-1.59,.18-.9,0-1.62-.14-2.15-.42-.53-.28-.94-.69-1.23-1.21-.28-.53-.47-1.16-.55-1.9-.08-.73-.12-1.54-.12-2.43s.04-1.68,.12-2.42c.08-.74,.27-1.37,.55-1.9,.28-.53,.69-.94,1.23-1.24,.54-.3,1.25-.45,2.15-.45s1.62,.15,2.16,.45c.53,.3,.94,.71,1.23,1.24,.28,.53,.47,1.16,.55,1.9,.08,.74,.13,1.55,.13,2.42,0,.98-.06,1.87-.17,2.67-.11,.8-.36,1.47-.75,2.03l1.29,1.21-1.42,1.25-1.42-1.38Zm-3.18-3.8c.04,.55,.12,.99,.23,1.33,.12,.34,.28,.59,.5,.75,.22,.16,.5,.23,.86,.23s.64-.08,.86-.23c.22-.16,.38-.41,.5-.75,.12-.34,.19-.78,.23-1.33,.04-.54,.06-1.21,.06-1.98s-.02-1.44-.06-1.98c-.04-.54-.12-.98-.23-1.33-.12-.34-.28-.6-.5-.75-.22-.16-.5-.23-.86-.23s-.64,.08-.86,.23c-.22,.16-.38,.41-.5,.75-.12,.35-.2,.79-.23,1.33-.04,.54-.06,1.2-.06,1.98s.02,1.44,.06,1.98Z"/><path class="cls-1" d="M88.89,13.06c0,.29,.02,.56,.06,.8,.04,.24,.11,.45,.22,.63,.11,.18,.25,.32,.43,.42,.18,.1,.41,.15,.69,.15s.52-.05,.7-.15c.18-.1,.32-.24,.43-.42,.11-.18,.18-.39,.22-.63,.04-.24,.06-.51,.06-.8V5h2.4V13.06c0,.73-.11,1.34-.32,1.82-.21,.48-.5,.86-.85,1.14-.36,.28-.76,.47-1.22,.57-.46,.1-.93,.15-1.42,.15s-.96-.04-1.42-.13c-.46-.09-.86-.26-1.22-.53-.36-.26-.64-.64-.85-1.13-.21-.49-.32-1.12-.32-1.9V5h2.41V13.06Z"/><path class="cls-1" d="M95.89,5h2.41v11.57h-2.41V5Z"/><path class="cls-1" d="M104.38,5c.61,0,1.13,.1,1.54,.3s.75,.46,1.01,.79c.26,.32,.44,.69,.55,1.11,.11,.42,.17,.84,.17,1.27,0,.59-.09,1.11-.28,1.56-.18,.44-.44,.81-.77,1.09-.33,.28-.73,.49-1.19,.63-.47,.14-.99,.21-1.55,.21h-1.29v4.62h-2.4V5h4.21Zm-.73,5.23c.48,0,.87-.14,1.16-.42,.29-.28,.44-.72,.44-1.31s-.13-1.03-.38-1.33c-.26-.3-.68-.45-1.29-.45h-1v3.51h1.07Z"/><path class="cls-1" d="M113.65,5c.61,0,1.13,.1,1.54,.3,.42,.2,.75,.46,1.01,.79,.26,.32,.44,.69,.55,1.11,.11,.42,.17,.84,.17,1.27,0,.59-.09,1.11-.28,1.56-.18,.44-.44,.81-.77,1.09-.33,.28-.73,.49-1.19,.63-.47,.14-.99,.21-1.55,.21h-1.29v4.62h-2.41V5h4.21Zm-.74,5.23c.48,0,.87-.14,1.16-.42,.29-.28,.44-.72,.44-1.31s-.13-1.03-.38-1.33c-.26-.3-.68-.45-1.29-.45h-1v3.51h1.07Z"/><path class="cls-1" d="M125.27,6.91h-4.26v2.72h4.01v1.91h-4.01v3.11h4.43v1.91h-6.83V5h6.66v1.91Z"/><path class="cls-1" d="M131.17,4.99c.83,0,1.51,.13,2.02,.4,.51,.26,.91,.64,1.19,1.13,.28,.49,.48,1.08,.58,1.77,.1,.69,.15,1.46,.15,2.32,0,1.02-.06,1.9-.19,2.65-.13,.75-.35,1.37-.66,1.86-.31,.49-.73,.85-1.25,1.08-.52,.24-1.19,.36-1.99,.36h-3.79V4.99h3.94Zm-.47,9.85c.42,0,.76-.07,1.02-.21,.26-.14,.46-.37,.61-.7s.25-.75,.3-1.28c.05-.53,.08-1.19,.08-1.98,0-.66-.02-1.24-.07-1.73-.04-.5-.14-.91-.28-1.24-.14-.33-.34-.58-.62-.75-.27-.17-.64-.25-1.09-.25h-1.02V14.84h1.07Z"/></g></g></g></svg>