<svg id="グループ_22" data-name="グループ 22" xmlns="http://www.w3.org/2000/svg" width="768" height="116.828" viewBox="0 0 768 116.828">
  <path id="パス_91" data-name="パス 91" d="M768,116.828H0V0H768ZM11.163,105.666H756.837v-94.5H11.163Z" fill="#fff"/>
  <g id="グループ_21" data-name="グループ 21" transform="translate(35.981 25.847)">
    <path id="パス_92" data-name="パス 92" d="M25.931,5l9.212,44.217h.163L44.625,5H63.916V67.695H51.995V17.626h-.163L40.345,67.641H30.212L18.724,17.626h-.163V67.641H6.64V5H25.985Z" transform="translate(-6.64 -3.754)" fill="#fff"/>
    <path id="パス_93" data-name="パス 93" d="M19.7,24.223a28.38,28.38,0,0,1,2.98-10.3A16.25,16.25,0,0,1,29.35,7.208C32.222,5.583,36.123,4.77,41,4.77s8.778.813,11.65,2.438a16.915,16.915,0,0,1,6.665,6.719,28.38,28.38,0,0,1,2.98,10.3A122.043,122.043,0,0,1,63,37.337,109.785,109.785,0,0,1,62.3,50.5a28.7,28.7,0,0,1-2.98,10.3,15.28,15.28,0,0,1-6.665,6.557c-2.872,1.517-6.773,2.276-11.65,2.276s-8.778-.759-11.65-2.276A16.188,16.188,0,0,1,22.685,60.8,28.38,28.38,0,0,1,19.7,50.5,120.766,120.766,0,0,1,19,37.337,108.228,108.228,0,0,1,19.7,24.223Zm12.68,23.9a31.151,31.151,0,0,0,1.246,7.207,8.156,8.156,0,0,0,2.709,4.064A7.654,7.654,0,0,0,41,60.637a8.039,8.039,0,0,0,4.66-1.246,8.156,8.156,0,0,0,2.709-4.064,28.5,28.5,0,0,0,1.246-7.207c.217-2.926.325-6.557.325-10.729s-.108-7.8-.325-10.729a32.265,32.265,0,0,0-1.246-7.207,7.919,7.919,0,0,0-2.709-4.064A7.654,7.654,0,0,0,41,14.144a8.039,8.039,0,0,0-4.66,1.246,8.156,8.156,0,0,0-2.709,4.064,29.43,29.43,0,0,0-1.246,7.207q-.325,4.389-.325,10.729T32.384,48.12Z" transform="translate(47.976 -4.77)" fill="#fff"/>
    <path id="パス_94" data-name="パス 94" d="M69.881,15.35H55.738V67.641H42.733V15.35H28.59V5H69.881Z" transform="translate(90.352 -3.754)" fill="#fff"/>
    <path id="パス_95" data-name="パス 95" d="M38.05,5H51.055V67.695H38.05Z" transform="translate(132.153 -3.754)" fill="#fff"/>
    <path id="パス_96" data-name="パス 96" d="M65.374,51.33h.271L75.236,5H88.729L73.881,67.695H57.137L42.29,5H56.216l9.158,46.33Z" transform="translate(150.889 -3.754)" fill="#fff"/>
    <path id="パス_97" data-name="パス 97" d="M88.783,15.35H65.7V30.089H87.428v10.35H65.7V57.291H89.65v10.35H52.64V5H88.729V15.35Z" transform="translate(196.623 -3.754)" fill="#fff"/>
    <path id="パス_98" data-name="パス 98" d="M103.859,15.35H80.775V30.089H102.5v10.35H80.775V57.291H104.78v10.35H67.77V5h36.089V15.35Z" transform="translate(263.478 -3.754)" fill="#fff"/>
    <path id="パス_99" data-name="パス 99" d="M106.942,68.657a33.39,33.39,0,0,1-8.616.975c-4.877,0-8.778-.759-11.65-2.276A16.188,16.188,0,0,1,80.011,60.8a28.38,28.38,0,0,1-2.98-10.3,121.578,121.578,0,0,1-.65-13.168,121.254,121.254,0,0,1,.65-13.113,28.379,28.379,0,0,1,2.98-10.3,16.25,16.25,0,0,1,6.665-6.719C89.6,5.583,93.449,4.77,98.326,4.77s8.778.813,11.7,2.438a16.915,16.915,0,0,1,6.665,6.719,28.38,28.38,0,0,1,2.98,10.3,122.041,122.041,0,0,1,.7,13.113,106.533,106.533,0,0,1-.921,14.468,24.765,24.765,0,0,1-4.064,11l6.99,6.557-7.695,6.773L107,68.657ZM89.71,48.066a31.151,31.151,0,0,0,1.246,7.207,8.156,8.156,0,0,0,2.709,4.064,7.654,7.654,0,0,0,4.66,1.246,8.039,8.039,0,0,0,4.66-1.246,8.156,8.156,0,0,0,2.709-4.064,28.5,28.5,0,0,0,1.246-7.207c.217-2.926.325-6.557.325-10.729s-.108-7.8-.325-10.729A32.264,32.264,0,0,0,105.7,19.4a7.919,7.919,0,0,0-2.709-4.064,7.654,7.654,0,0,0-4.66-1.246,8.039,8.039,0,0,0-4.66,1.246A8.156,8.156,0,0,0,90.956,19.4a27.061,27.061,0,0,0-1.246,7.207Q89.385,31,89.385,37.337t.325,10.729Z" transform="translate(301.524 -4.77)" fill="#fff"/>
    <path id="パス_100" data-name="パス 100" d="M99.539,48.675a26.638,26.638,0,0,0,.325,4.335,9.442,9.442,0,0,0,1.192,3.414,6.256,6.256,0,0,0,2.33,2.276,7.643,7.643,0,0,0,3.739.813,7.868,7.868,0,0,0,3.793-.813,6.256,6.256,0,0,0,2.33-2.276,9.442,9.442,0,0,0,1.192-3.414,26.636,26.636,0,0,0,.325-4.335V5h13.005V48.675a24.74,24.74,0,0,1-1.734,9.862,15.969,15.969,0,0,1-4.606,6.177A16.153,16.153,0,0,1,114.82,67.8a36,36,0,0,1-7.695.813,39.854,39.854,0,0,1-7.695-.7A15.8,15.8,0,0,1,92.82,65.04a14.22,14.22,0,0,1-4.606-6.123,26.284,26.284,0,0,1-1.734-10.3V5H99.539V48.675Z" transform="translate(346.153 -3.754)" fill="#fff"/>
    <path id="パス_101" data-name="パス 101" d="M95.89,5h13.059V67.695H95.89Z" transform="translate(387.734 -3.754)" fill="#fff"/>
    <path id="パス_102" data-name="パス 102" d="M122.983,5a19.089,19.089,0,0,1,8.345,1.626,15.435,15.435,0,0,1,5.473,4.281,15.681,15.681,0,0,1,2.98,6.015A26.984,26.984,0,0,1,140.7,23.8a21.592,21.592,0,0,1-1.517,8.453,15.184,15.184,0,0,1-4.172,5.906,17.919,17.919,0,0,1-6.448,3.414,29.422,29.422,0,0,1-8.4,1.138h-6.99V67.749H100.17V5Zm-3.956,28.34a8.7,8.7,0,0,0,6.286-2.276c1.571-1.517,2.384-3.9,2.384-7.1s-.7-5.581-2.059-7.207c-1.409-1.626-3.685-2.438-6.99-2.438h-5.419V33.34h5.8Z" transform="translate(406.646 -3.754)" fill="#fff"/>
    <path id="パス_103" data-name="パス 103" d="M132.3,5a19.089,19.089,0,0,1,8.345,1.626,14.971,14.971,0,0,1,5.473,4.281,15.681,15.681,0,0,1,2.98,6.015,26.984,26.984,0,0,1,.921,6.882,21.592,21.592,0,0,1-1.517,8.453,15.184,15.184,0,0,1-4.172,5.906,17.919,17.919,0,0,1-6.448,3.414,29.422,29.422,0,0,1-8.4,1.138h-6.99V67.749H109.43V5h22.813Zm-4.01,28.34a8.7,8.7,0,0,0,6.286-2.276c1.571-1.517,2.384-3.9,2.384-7.1s-.7-5.581-2.059-7.207c-1.409-1.626-3.685-2.438-6.99-2.438h-5.419V33.34h5.8Z" transform="translate(447.564 -3.754)" fill="#fff"/>
    <path id="パス_104" data-name="パス 104" d="M154.7,15.35H131.615V30.089h21.729v10.35H131.615V57.291H155.62v10.35H118.61V5H154.7V15.35Z" transform="translate(488.128 -3.754)" fill="#fff"/>
    <path id="パス_105" data-name="パス 105" d="M148.58,4.99c4.5,0,8.182.7,10.946,2.168a15.29,15.29,0,0,1,6.448,6.123,27.019,27.019,0,0,1,3.143,9.591,88.007,88.007,0,0,1,.813,12.572A85.27,85.27,0,0,1,168.9,49.8a27.549,27.549,0,0,1-3.576,10.079,15.1,15.1,0,0,1-6.773,5.852,25.93,25.93,0,0,1-10.783,1.951H127.23V4.99h21.35Zm-2.547,53.375a11.641,11.641,0,0,0,5.527-1.138,7.683,7.683,0,0,0,3.305-3.793,21.771,21.771,0,0,0,1.626-6.936c.271-2.872.434-6.448.434-10.729,0-3.576-.108-6.719-.379-9.374a21.605,21.605,0,0,0-1.517-6.719,8.358,8.358,0,0,0-3.36-4.064,11.088,11.088,0,0,0-5.906-1.355h-5.527V58.365h5.8Z" transform="translate(526.218 -3.798)" fill="#fff"/>
  </g>
</svg>
