<?xml version="1.0" encoding="UTF-8"?><svg id="_レイヤー_1" xmlns="http://www.w3.org/2000/svg" viewBox="0 0 135.4 60.27"><defs><style>.cls-1{fill:#f6f8f9;fill-rule:evenodd;}</style></defs><g id="OH0dRn"><g><path class="cls-1" d="M23.68,47.25c.21-.13,.45-.2,.67-.31,.42-.21,.82-.43,1.23-.65,.43-.24,.88-.46,1.28-.76,.26-.2,.5-.41,.78-.58,.7-.44,1.36-.95,2.09-1.35,.19-.11,.36-.27,.52-.43,.27-.28,.66-.38,.94-.66,.43-.44,1.02-.7,1.43-1.18,.45-.16,.61-.63,.98-.89,.39-.28,.77-.6,1.08-.97,.46-.57,1.08-.97,1.53-1.55,.15-.19,.38-.35,.56-.53,.39-.38,.79-.77,1.17-1.17,.49-.51,.96-1.06,1.32-1.67,.31-.52,.63-1.05,.85-1.63,.15-.4,.39-.76,.58-1.14,.09-.18,.17-.36,.22-.55,.05-.2,.12-.38,.19-.57,.1-.27,.16-.57,.18-.87,.05-.58,.1-1.17,.09-1.76,0-.3-.03-.59-.12-.9-.05-.03-.12-.08-.19-.11-.17-.08-.31-.24-.54-.2-.3,.06-.62,.1-.84,.36-.09,.11-.21,.18-.33,.23-.34,.18-.56,.48-.83,.73-.48,.44-.82,1-1.25,1.48-.47,.52-.92,1.07-1.38,1.6-.25,.29-.5,.6-.71,.93-.23,.36-.5,.68-.87,.9-.06,.03-.13,.09-.14,.14-.06,.31-.33,.46-.51,.67-.39,.45-.84,.87-1.17,1.36-.34,.5-.72,.96-1.11,1.42-.08,.09-.09,.25-.18,.31-.43,.27-.69,.72-1.12,.98-.16,.1-.35,.16-.53,.19-.1,.02-.18,.05-.27,.08-.5,.17-.97,.02-1.39-.21-.25-.14-.4-.45-.59-.69-.03-.04-.01-.11-.01-.16,0-.26,.08-.51-.04-.78-.05-.11,.07-.3,.12-.45,.07-.23,.12-.47,.23-.68,.08-.16-.02-.34,.13-.47,.13-.11,.15-.3,.26-.41,.13-.13,.1-.35,.26-.45,0,0,.02-.02,.02-.04,.02-.4,.3-.67,.5-.98s.33-.65,.54-.95c.12-.18,.22-.38,.28-.58,.06-.21,.17-.4,.27-.59,.3-.55,.6-1.1,.94-1.62,.25-.39,.38-.83,.63-1.22,.14-.21,.28-.43,.43-.64,.34-.49,.56-1.04,.9-1.53,.13-.19,.16-.46,.35-.66,.43,.22,1.02,.11,1.29,.67-.03,.05-.05,.09-.08,.11-.5,.3-.62,.89-.97,1.31,.03,.37-.35,.52-.45,.84-.09,.29-.31,.53-.45,.8-.45,.89-.95,1.75-1.35,2.66-.2,.45-.5,.85-.76,1.27-.22,.33-.49,.63-.58,1.05-.03,.14-.15,.25-.22,.38-.19,.37-.38,.74-.57,1.11-.05,.11-.09,.23-.17,.32-.13,.14-.17,.3-.16,.49,0,.08,0,.16-.02,.24-.04,.23,.06,.47,.25,.51,.21,.04,.41,.1,.64-.07,.65-.49,1.23-1.01,1.62-1.75,.12-.23,.32-.46,.52-.65,.48-.45,.91-.94,1.34-1.44,.36-.41,.7-.84,1.01-1.29,.22-.31,.49-.61,.72-.91s.5-.56,.74-.84c.08-.09,.06-.2,.12-.3,.19-.27,.38-.53,.64-.75,.38-.33,.66-.77,.95-1.19,.12-.18,.27-.33,.45-.45,.26-.17,.51-.35,.74-.56,.17-.15,.33-.33,.43-.53,.13-.27,.37-.39,.6-.44,.37-.08,.68-.25,1.04-.41,.27,.16,.56,.25,.9,.24,.25,0,.5,.07,.64,.34,.08,.17,.21,.32,.34,.45,.13,.12,.21,.3,.2,.43-.03,.49,.23,.96,.04,1.45,.09,.25,.05,.51,.07,.76,0,.28-.02,.54-.17,.78-.06,.09-.12,.18-.02,.3,.35-.42,.73-.8,1.03-1.25,.25-.38,.63-.59,.95-.88,.17-.16,.28-.41,.53-.47s.45-.2,.62-.36c.41-.39,.92-.63,1.39-.93,.2-.13,.36-.3,.6-.41,.36-.16,.75-.19,1.12-.31,.05-.01,.11,0,.16-.02,.13-.06,.27-.13,.41-.07,.43,.16,.88,.28,1.1,.75,.07,.16,.12,.32,.12,.51,0,.27,.05,.55,.02,.8-.05,.34-.15,.68-.3,1-.32,.67-.7,1.3-1.13,1.89-.19,.27-.35,.58-.68,.74-.29,.14-.38,.13-.49-.19-.02-.05-.05-.1-.09-.17,.37-.12,.47-.46,.66-.73,.34-.48,.61-1.01,.93-1.51,.2-.32,.31-.65,.32-1.03,0-.11-.02-.22,.04-.32,.11-.2,.03-.34-.13-.46-.52-.39-.79-.38-1.27,0-.18,.14-.35,.28-.59,.32-.18,.04-.41,.09-.5,.31,0,.01,0,.04,0,.04-.42,.03-.51,.5-.85,.64-.38,.51-.97,.8-1.36,1.31-.32,.41-.65,.83-1.07,1.17-.25,.2-.38,.54-.6,.8-.28,.33-.45,.73-.73,1.07-.11,.13-.13,.34-.22,.51-.29,.5-.5,1.04-.67,1.6-.06,.21-.17,.42-.26,.63-.19,.48-.25,.99-.38,1.48-.14,.54,.37,1.14,.94,1.22,.53,.08,1.01-.05,1.46-.27,.96-.47,1.9-1,2.81-1.57,.06-.04,.11-.09,.15-.14,.26-.29,.61-.47,.92-.69,.29-.21,.59-.42,.88-.62,.17-.11,.34-.22,.51-.33,.33-.21,.69-.38,.81-.8,.02-.07,.1-.13,.16-.18,.07-.06,.15-.12,.22-.19,.33-.39,.77-.67,1.08-1.08,.09-.12,.19-.24,.3-.33,.35-.27,.6-.6,.77-1.01,.07-.16,.22-.28,.33-.43,.29-.39,.66-.72,.82-1.19,.39-.26,.5-.72,.77-1.06,.32-.4,.56-.85,.81-1.29,.24-.43,.56-.83,.73-1.3,0-.01,0-.03,.02-.03,.46-.44,.61-1.06,.92-1.59,.28-.49,.52-1,.84-1.47,.2-.29,.3-.63,.51-.91,.29-.38,.5-.82,.72-1.25,.14-.29,.32-.56,.5-.82,.11-.16,.22-.34,.31-.51,.35-.67,.81-1.27,1.2-1.92,.16-.27,.31-.57,.56-.79,.03-.03,.06-.06,.08-.09,.28-.51,.62-.97,.95-1.45,.32-.48,.68-.93,.97-1.43,.23-.4,.56-.72,.88-1.04,.39-.4,.79-.78,1.18-1.18,.08-.08,.17-.14,.27-.17,.26-.08,.51-.16,.71-.36,.09-.08,.22-.12,.35-.08,.19,.06,.39,.11,.57,.2,.49,.25,.63,.59,.48,1.16-.15,.61-.38,1.2-.67,1.76-.34,.66-.67,1.32-1.04,1.96s-.68,1.32-1.21,1.86c-.08,.34-.44,.5-.54,.83-.04,.14-.21,.24-.3,.38-.23,.34-.42,.72-.69,1.03-.28,.32-.61,.61-.86,.96-.27,.38-.65,.68-.84,1.13-.11,.26-.37,.41-.56,.62-.28,.3-.56,.59-.78,.94,0,.01,0,.03-.02,.03-.33,.2-.47,.57-.74,.83-.12,.11-.24,.22-.31,.38-.04,.09-.14,.18-.23,.23-.31,.2-.57,.46-.77,.77-.05,.08-.13,.13-.21,.18-.37,.25-.62,.64-.96,.93-.05,.05-.07,.14-.13,.28,.12-.06,.22-.07,.27-.13,.21-.21,.48-.29,.75-.35,.18-.04,.35-.11,.48-.19,.25-.16,.53-.2,.79-.28,.71-.21,1.37,0,1.92,.45,.46,.39,.59,.94,.49,1.55-.09,.56-.29,1.09-.5,1.61-.17,.43-.45,.82-.69,1.23-.2,.34-.41,.66-.58,1.02-.34,.69-.79,1.31-1.18,1.98-.35,.61-.76,1.18-1,1.84-.05,.14-.12,.27-.2,.39-.35,.59-.55,1.25-.86,1.86-.26,.51-.45,1.05-.68,1.58-.06,.14-.19,.22-.27,.36-.25,.44-.36,.92-.47,1.41-.05,.23-.07,.46-.12,.68-.07,.3-.02,.56,.14,.82,.1,.17,.23,.2,.41,.1,.64-.34,1.18-.83,1.79-1.22,.32-.48,.84-.74,1.24-1.13,.25-.25,.52-.48,.78-.71,.27-.23,.44-.57,.79-.72,.12-.05,.05-.23,.16-.32,.28-.21,.42-.55,.69-.76,.48-.37,.77-.91,1.16-1.36,.13-.16,.26-.3,.41-.37,.09-.15-.08-.23-.03-.34,.02-.13,.18-.05,.24-.19-.05-.48,.1-.99,.1-1.51,0-.27,.02-.59,.27-.81,.05-.04,.03-.1,.04-.15,.05-.41,.22-.78,.38-1.15,.23-.54,.47-1.08,.78-1.59,.21-.36,.49-.67,.75-.99,.43-.5,.89-.99,1.38-1.44,.46-.44,.96-.83,1.52-1.13,.12-.06,.25-.1,.37-.15,.51-.18,1.01-.39,1.55-.43,.41-.03,.84,.03,1.25,.1,.36,.06,.52,.41,.72,.67,.06,.08,.04,.24,.03,.36-.05,.54-.09,1.07-.32,1.57-.03,.07-.07,.13-.12,.19-.11,.13-.19,.28-.24,.45-.08,.27-.3,.49-.48,.72-.23,.28-.49,.54-.66,.87-.05,.11-.14,.21-.24,.27-.45,.26-.7,.71-1.05,1.08-.32,.33-.6,.71-1.04,.88-.02,0-.05,.03-.06,.05-.28,.37-.7,.56-1.04,.85-.29,.25-.6,.48-.92,.7-.42,.3-.88,.55-1.3,.86-.16,.12-.34,.21-.51,.32-.11,.07-.14,.16-.1,.3,.05,.18,.09,.36,.11,.55,.04,.42,.29,.74,.55,1.06,.08,.1,.19,.15,.32,.14,.34-.02,.66-.03,1-.14,.36-.12,.74-.18,1.09-.35,.45-.23,.92-.45,1.31-.79,.18-.16,.38-.31,.57-.45,.22-.16,.42-.34,.57-.58,.07-.11,.15-.2,.24-.27,.46-.35,.76-.83,1.12-1.26,.24-.28,.47-.6,.83-.75,.22-.09,.26-.3,.37-.46,.14-.22,.24-.46,.45-.62,.08-.06,.12-.13,.13-.24,0-.21,.13-.33,.34-.33,.15,0,.21-.09,.26-.22,.1-.22,.22-.44,.3-.66,.29-.8,.67-1.55,1.02-2.32,.21-.46,.4-.93,.69-1.36,.18-.27,.29-.57,.44-.86,.43-.83,.86-1.65,1.46-2.37,.28-.34,.49-.74,.73-1.11,.02-.04,.03-.07,0-.11-.4,.01-.78,.13-1.16,.24-.12,.03-.24,.05-.36,.05h-1.95c-.18,0-.34-.03-.51-.11-.25-.11-.51-.18-.75-.28-.32-.13-.61-.35-.89-.55-.33-.23-.63-.49-.85-.84-.16-.24-.28-.49-.25-.79,.01-.12-.02-.24-.05-.36-.06-.24-.08-.49,.06-.71,.09-.16,.12-.34,.14-.5,.05-.36,.23-.63,.46-.88,.09-.09,.15-.2,.2-.31,.3-.69,.8-1.22,1.41-1.61,.52-.34,1.06-.68,1.68-.83,.41-.09,.81-.21,1.19-.35,.5-.18,1.02-.21,1.53-.25,.62-.05,1.26-.17,1.87,.03,.31,.1,.66,.14,.85,.47,.08,.13,.28,.12,.35,.32-.07,.08,0,.25-.18,.32-.12,.04-.22,.12-.37,.06-.14-.05-.2,.13-.33,.15-.26-.17-.61-.07-.89-.23-.16,.12-.38,.02-.54,.14-.13,.1-.31,.06-.41-.02-.31-.24-.67-.18-.98-.1-.57,.14-1.16,.25-1.69,.53-.45,.24-.88,.49-1.25,.85-.25,.24-.56,.41-.81,.64-.33,.32-.68,.65-.81,1.12-.07,.23-.16,.46-.23,.69-.16,.48-.12,.91,.07,1.38,.17,.43,.54,.63,.89,.84,.39,.23,.83,.27,1.28,.31,.6,.06,1.16-.14,1.73-.26,.3-.06,.62-.09,.9-.22,.33-.15,.68-.16,1.03-.23,.54-.11,.9-.43,1.12-.89,.24-.5,.55-.94,.83-1.41,.29-.47,.54-.96,.84-1.43,.23-.36,.51-.69,.76-1.04,.28-.39,.55-.79,.75-1.24,.1-.22,.31-.38,.45-.58,.21-.3,.43-.59,.62-.91,.06-.1,.16-.14,.23-.21,.33-.33,.56-.74,.87-1.08,.29-.31,.47-.73,.83-.98,.37-.25,.57-.68,.94-.92,.29-.19,.47-.51,.79-.65,.39-.18,.77-.29,1.21-.15,.42,.13,.82,.28,1.1,.63,.09,.12,.23,.24,.12,.43-.03,.05,.03,.1,.04,.15,.04,.27,.05,.53-.04,.8-.11,.31-.2,.64-.25,.97-.04,.25-.13,.47-.29,.65-.07,.09-.14,.17-.17,.27-.11,.37-.35,.66-.55,.98-.2,.32-.47,.59-.68,.91-.14,.22-.4,.37-.49,.59-.17,.41-.56,.59-.8,.92-.24,.32-.56,.6-.93,.81-.18,.1-.32,.25-.47,.38-.59,.55-1.22,1.05-1.88,1.5-.54,.36-1.13,.68-1.68,1.02-.5,.32-1.03,.59-1.55,.87-.17,.09-.3,.24-.4,.4-.29,.44-.57,.9-.86,1.34-.37,.55-.63,1.17-.97,1.75-.18,.31-.43,.58-.59,.9-.15,.3-.28,.61-.46,.89-.33,.51-.63,1.04-.93,1.56-.18,.31-.32,.66-.5,.98-.26,.45-.41,.96-.64,1.43-.18,.35-.19,.75-.39,1.1,.14,.34-.12,.56-.24,.84-.15,.37-.22,.77-.34,1.16-.15,.49-.21,1-.31,1.5-.08,.4-.13,.83-.11,1.26,.01,.37,.12,.63,.48,.76,.63-.25,1.15-.63,1.53-1.2,.13-.2,.35-.33,.51-.5,.45-.49,.9-.98,1.31-1.51,.25-.32,.53-.62,.73-.97,.21-.36,.54-.6,.79-.93,.29-.4,.67-.72,1.04-1.05,.23-.21,.53-.34,.62-.68,.5-.31,.74-.9,1.29-1.17,.27-.14,.46-.42,.7-.62,.26-.22,.54-.41,.77-.67,.13-.15,.33-.19,.47-.31,.27-.22,.53-.46,.8-.68,.34-.27,.74-.43,1.11-.63,.04-.02,.12-.04,.16-.01,.31,.16,.7,.13,.99,.34,.38,.28,.54,.67,.5,1.14,0,.06-.05,.12-.01,.21,.1-.04,.17-.12,.23-.19,.25-.34,.62-.55,.93-.84,.15-.14,.37-.14,.53-.28,.18-.15,.4-.28,.62-.37,.32-.13,.64-.24,1.01-.12,.27,.09,.56,.13,.82,.27,.13,.07,.26,.15,.36,.27,.11,.12,.19,.23,.21,.42,.03,.22,.08,.47,.17,.7,.04,.09,.01,.19,.06,.3,.17-.13,.31-.29,.47-.42,.38-.3,.83-.48,1.25-.72,.53-.3,1.12-.36,1.7-.47,.31-.06,.64-.07,.96,.07s.45,.39,.45,.71c0,.29,0,.59-.04,.89-.04,.25,0,.52-.18,.74-.06,.07,.03,.14,.02,.22-.04,.4-.21,.75-.36,1.11-.31,.78-.78,1.48-1.19,2.2-.35,.62-.75,1.22-1.06,1.86-.4,.81-.79,1.63-1.14,2.46-.25,.59-.47,1.19-.77,1.76-.21,.39-.34,.82-.43,1.25-.05,.28,.09,.52,.24,.77,.5-.32,1.03-.56,1.48-.95,.42-.36,.74-.79,1.09-1.19,.23-.25,.41-.54,.62-.8,.25-.32,.5-.67,.82-.92,.19-.15,.22-.36,.36-.52,.29-.32,.58-.65,.86-.99,.33-.41,.58-.88,.87-1.31,.26-.38,.34-.82,.48-1.24,.22-.63,.4-1.28,.79-1.84,.07-.1,.06-.2,.12-.3,.14-.23,.29-.44,.47-.65,.22-.25,.43-.53,.61-.8,.21-.32,.48-.56,.76-.8,.16-.14,.31-.3,.46-.45,.36-.37,.76-.69,1.2-.96,.29-.18,.55-.42,.88-.55,.59-.24,1.2-.32,1.82-.13,.28,.09,.55,.18,.8,.36,.24,.17,.27,.43,.44,.61,.06,.06,.04,.22-.01,.32-.25,.45-.42,.95-.81,1.32-.12,.11-.15,.28-.25,.41-.25,.34-.55,.63-.89,.9-.41,.33-.75,.75-1.15,1.09-.05,.04-.07,.04-.12,.04-.08,.02-.19,.03-.22,.14-.07,.23-.26,.32-.45,.43-.18,.1-.37,.22-.51,.4-.24,.32-.63,.46-.92,.72-.29,.26-.61,.47-.93,.68-.26,.17-.51,.35-.76,.54-.03,.02-.09,.03-.1,.06-.08,.25-.27,.35-.51,.43,0,.51-.04,1.01,.02,1.5,.03,.29,.19,.58,.37,.82,.3,.41,.78,.48,1.22,.55,.5,.08,.98-.06,1.45-.27,.66-.29,1.19-.73,1.69-1.23,.24-.24,.46-.49,.71-.71,.33-.28,.59-.6,.75-1,.12-.29,.4-.39,.62-.55,.27-.2,.57-.43,.61-.75,.04-.3,.2-.54,.32-.77,.16-.31,.24-.65,.44-.94,.3-.45,.45-.97,.69-1.45,.09-.18,.16-.37,.32-.51,.06-.05,.1-.13,.12-.21,.12-.51,.48-.89,.7-1.35,.12-.26,.36-.47,.4-.77-.09-.1-.19-.07-.28-.07-.3,.03-.53-.09-.72-.31-.08-.09-.16-.17-.29-.2-.22-.06-.28-.28-.34-.46-.04-.12,.02-.26,.17-.27,.13,0,.24-.05,.35-.1,.21-.1,.42-.14,.61,.03,.08,.07,.18,.08,.27,.05,.29-.09,.58-.07,.87-.07,.14,0,.21-.05,.28-.19,.24-.52,.53-1.01,.76-1.54,.29-.67,.76-1.24,1.07-1.89,.27-.57,.59-1.11,.96-1.62,.19-.26,.33-.55,.51-.82,.02-.03,.07-.07,.06-.1-.06-.26,.18-.41,.2-.64,.13-.06,.26-.02,.37-.04,.44-.07,.77,.1,1,.49-.03,.15-.12,.28-.24,.39-.09,.09-.18,.17-.16,.31,0,.07-.04,.13-.08,.18-.25,.27-.41,.59-.61,.89-.28,.43-.51,.88-.75,1.33s-.47,.9-.72,1.34c-.19,.33-.36,.68-.59,.98-.21,.27-.27,.61-.55,.82,.2,.2,.37,.04,.51,0,.37-.13,.7-.08,1.01,.11,.14,.08,.24,.22,.36,.33,0,.12-.11,.19-.15,.28-.15,.33-.4,.53-.78,.54-.13,0-.27,0-.4,.05-.26,.11-.51-.03-.75-.08-.31-.06-.28-.06-.49,.17-.17,.19-.24,.43-.33,.64-.23,.51-.49,1.02-.78,1.5-.41,.69-.72,1.43-1.08,2.15-.22,.43-.4,.88-.65,1.29-.05,.08-.09,.13-.02,.21,.04,.05,.03,.11-.02,.15-.23,.17-.25,.44-.33,.68-.17,.51-.37,1.01-.49,1.54-.11,.53-.13,1.07,.04,1.6,.07,.22,.14,.24,.38,.22,.52-.04,.95-.3,1.33-.62,.37-.32,.74-.65,1.14-.92,.46-.31,.46-.68,.42-1.13-.02-.24-.08-.47,0-.72,.05-.14,.02-.3,.01-.45,0-.42,.06-.82,.28-1.2,.1-.18,.06-.43,.22-.59s.24-.37,.33-.57c.19-.38,.37-.77,.7-1.08,.49-.46,.97-.91,1.5-1.32,.22-.17,.46-.33,.7-.48,.2-.13,.33-.35,.55-.45,.22-.11,.46-.17,.62-.37,.09-.12,.23-.06,.34-.1,.24-.08,.49-.15,.74-.2,.11-.02,.22-.03,.33-.01,.45,.08,.91,.1,1.34,.25,.2,.07,.38,.21,.53,.38,.77-.77,1.63-1.41,2.38-2.18,.44-.45,.75-.99,1.14-1.48,.12-.15,.07-.31,.05-.47-.07-.62-.09-1.08,.1-1.57,.13-.34,.19-.73,.24-1.1,.06-.38,.19-.72,.41-1.04,.02-.02,.05-.04,.05-.06,.08-.52,.55-.68,.89-.95,.26-.2,.56-.36,.84-.53,.16-.1,.32-.14,.52-.12,.37,.03,.73,.04,1.06,.23,.17,.1,.27,.21,.28,.41,.03,.55-.06,1.07-.29,1.58-.18,.4-.4,.77-.69,1.08-.4,.43-.7,.94-1.06,1.4-.3,.38-.59,.77-.95,1.09-.2,.18-.15,.43-.2,.64-.08,.33-.06,.69-.03,1.04,.02,.26,.02,.53,.02,.79v.78c0,.28,.03,.55,0,.82-.1,.69-.23,1.38-.41,2.05-.14,.56-.24,1.13-.4,1.68-.04,.16-.12,.3-.17,.45-.15,.47-.32,.94-.46,1.41-.21,.73-.57,1.38-1.02,1.99-.2,.27-.38,.55-.57,.82,.51,.41,1.1,.48,1.71,.54,.95,.1,1.9,.14,2.86,.17,.35,0,.68-.06,1.01-.11,.46-.06,.93-.14,1.37-.31,.42-.15,.84-.29,1.17-.61,.07-.07,.14-.12,.23-.16,.52-.24,.96-.59,1.43-.91,.15-.1,.23-.25,.34-.38-.12-.33-.29-.63-.49-.9-.11-.15-.25-.29-.43-.36-.29-.12-.57-.25-.85-.37-.24-.1-.48-.12-.74-.09-.34,.04-.67,0-1.01,.07-.32,.06-.58,.21-.86,.34-.15,.07-.31,.16-.46,.26-.23,.16-.41,.11-.53-.16-.04-.08-.15-.07-.15-.16,.03-.25,.17-.37,.38-.48,.31-.16,.63-.28,.91-.5,.15-.13,.45-.09,.68-.11,.16-.02,.32-.03,.48-.06,.45-.09,.91-.04,1.33,.11,.57,.2,1.12,.47,1.56,.9,.16,.16,.32,.31,.46,.48,.1,.11,.06,.31,.18,.46,.25-.09,.33-.33,.43-.54,.06-.14,.12-.27,.22-.38,.19-.21,.28-.48,.42-.72,.33-.57,.51-1.22,.64-1.86,.11-.51,.27-1.01,.4-1.51,.07-.27,.02-1.25,0-1.6-.02-.32-.16-.59-.22-.89-.11-.07-.24-.07-.35-.01-.25,.13-.52,.14-.78,.2-.53,.13-1.02,.07-1.41-.37-.14-.16-.3-.3-.45-.45-.31-.33-.25-.68-.04-1,.35-.53,1.07-.74,1.73-.66,.63,.07,1.13,.33,1.56,.78,.03,.03,.07,.04,.1,.07,.43-.29,.65-.73,.86-1.17,.27-.58,.39-1.21,.36-1.85-.03-.56-.08-1.14-.46-1.62-.1-.12-.15-.29-.21-.43-.31-.64-.85-.97-1.53-1.09-.13-.02-.2,.05-.25,.16-.07,.16-.12,.33-.17,.49-.2,.61-.57,1.08-1.16,1.36-.16,.08-.31,.16-.45,.28-.29,.25-.63,.22-.95-.01-.13-.09-.27-.19-.4-.25-.38-.17-.38-.48-.33-.79,.04-.22,.15-.43,.22-.65,.04-.13,.13-.2,.23-.28,.28-.23,.57-.45,.85-.67,.32-.25,.69-.46,1.13-.5,.26-.02,.25-.04,.28-.3,.06-.54-.02-1.07-.13-1.61-.07-.36-.14-.71-.32-1.04-.32-.58-.76-1.04-1.25-1.48-.42-.37-.98-.53-1.39-.9-.18-.17-.45-.23-.59-.44-.07-.1-.2-.07-.3-.12-.57-.32-1.18-.51-1.83-.61-.06,0-.12-.05-.19-.07-.48-.11-.5-.1-.67,.39-.12,.35-.36,.63-.57,.92-.44,.58-1.02,1.04-1.59,1.48-.49,.38-1.04,.67-1.57,.98-.66,.38-1.37,.64-2.07,.88-.53,.18-1.06,.36-1.61,.5-.31,.08-.64,.09-.93,.26-.47-.08-.89,.16-1.34,.2-.35,.03-.69-.02-1.04-.02-.25,0-.33-.11-.41-.36-.04-.14-.1-.27-.16-.42,.16-.13,.32-.17,.54-.16,.52,.02,1.04-.05,1.55-.14,.51-.1,1.03-.18,1.54-.31,.13-.03,.22-.09,.33-.14,.26-.11,.53-.14,.79-.23,.73-.27,1.49-.49,2.16-.88,.53-.31,1.03-.67,1.55-1,.45-.29,.82-.65,1.19-1.03,.27-.27,.55-.54,.68-.98-.24,.12-.41-.03-.61-.02-.29,.01-.58,.01-.87,0-.32-.02-.62,.03-.9,.18-.19,.1-.4,.11-.59,.13-.5,.06-.98,.15-1.46,.31-.28,.09-.58,.11-.86,.19-.86,.23-1.69,.57-2.42,1.04-.56,.36-1.18,.65-1.72,1.06-.53,.41-1.13,.74-1.77,.97-.25,.09-.44,.22-.59,.43-.22,.32-.62,.39-.9,.62-.02,.02-.08,.01-.12,0-.12-.03-.38-.39-.4-.54-.03-.18,.1-.27,.22-.36,.64-.49,1.3-.97,1.93-1.47,.21-.16,.45-.27,.65-.45,.21-.18,.48-.29,.71-.46,.05-.04,.14-.08,.18-.06,.24,.13,.41-.05,.56-.15,.82-.51,1.67-.96,2.58-1.3,.36-.14,.74-.22,1.11-.31,.22-.06,.43-.16,.64-.24,.48-.19,1-.2,1.49-.34,.67-.19,1.35-.15,2.03-.16,.36,0,.71-.11,1.08-.08,.13,.01,.27-.04,.38,.07,.04-.05,.09-.08,.09-.11,0-.37,.05-.73,.1-1.09,.06-.49-.17-.92-.31-1.36-.08-.24-.28-.44-.27-.71,0-.04-.05-.09-.09-.13-.37-.37-.72-.77-1.11-1.1-.46-.39-1.02-.64-1.6-.81-.28-.09-.56-.21-.82-.33-.3-.14-.62-.18-.94-.23-.81-.13-1.63-.11-2.43-.31-.23-.06-.51-.21-.79-.04-.08,.05-.19-.08-.31-.07-.23,.03-.46-.05-.69,.07-.05,.03-.14,.03-.2,0-.23-.09-.45,0-.67,0-.61,.04-1.22,.09-1.82,.23-.18,.04-.28,.15-.41,.24-.26-.15-.51,0-.74,.06-.18,.05-.36,.1-.54,.15-.27,.07-.52,.2-.77,.33-.23,.12-.43,.25-.7,.28-.16,.02-.29,.19-.46,.25-.26,.09-.51,.24-.79,.22-.07,.13,.01,.24-.05,.36-.09,.18-.04,.41,.1,.58,.1,.12,.14,.23,.12,.37-.02,.15,.05,.28,.1,.39,.18,.37,.27,.77,.29,1.17,.03,.56,.16,1.11,.1,1.67-.05,.5-.21,.98-.36,1.44-.1,.32-.31,.63-.48,.94-.27,.01-.09,.24-.17,.35-.15,.22-.26,.48-.44,.68-.18,.2-.3,.43-.42,.64-.12,.22-.27,.41-.45,.57-.38,.36-.71,.78-1.16,1.07-.39,.25-.68,.62-1.08,.86-.39,.23-.78,.48-1.17,.72-.68,.43-1.43,.73-2.14,1.12-.17,.09-.35,.21-.57,.25-.21,.03-.42,.06-.63,.12-.45,.11-.92,.19-1.38,.29-.29,.06-.58,.09-.86,.2-.2,.08-.42-.03-.59-.1-.3-.14-.62-.18-.93-.27-.2-.06-.38-.12-.57-.22-.04-.1-.05-.27-.13-.31-.19-.09-.02-.27-.14-.36-.12-.08-.14-.22-.2-.34-.24-.46-.15-.94-.1-1.4,.04-.46,.3-.89,.3-1.37,.3-.58,.39-1.24,.76-1.81,.26-.4,.57-.78,.74-1.24,.08-.23,.27-.44,.48-.61,.25-.21,.47-.47,.68-.72,.31-.36,.67-.65,1-.98,.26-.26,.53-.51,.79-.76,.13-.12,.25-.25,.41-.33,.2-.1,.33-.31,.51-.43,.2-.12,.35-.27,.52-.42,.09-.08,.23-.13,.35-.2,.63-.37,1.21-.8,1.82-1.2,.28-.19,.54-.45,.92-.43,.21-.25,.59-.21,.81-.5,.12-.16,.39-.22,.6-.31,.1-.04,.18-.06,.2-.18-.15-.1-.31-.2-.46-.3-.04-.03-.12-.05-.13-.09-.09-.31-.39-.37-.62-.48-.75-.36-1.51-.7-2.31-.95-.72-.23-1.44-.49-2.19-.63-.46-.09-.9-.25-1.36-.36-.37-.09-.74-.16-1.11-.2-.39-.05-.76-.16-1.15-.2-.37-.04-.74-.14-1.12-.14-.7,0-1.39-.08-2.08-.1-.56-.02-1.13-.21-1.69-.13-.51,.08-1.02,.11-1.51,.05-.79-.1-1.58-.06-2.37-.05-.5,0-1.01,.05-1.52,.13-.25,.04-.52,.05-.78,.09-.46,.07-.89,.21-1.35,.26-.33,.04-.62,.18-.94,.21-.48,.05-.96,.15-1.44,.2-.22,.02-.44,.05-.64,.11-1.04,.32-2.12,.46-3.18,.72-.59,.14-1.16,.33-1.73,.52-.3,.11-.62,.19-.92,.3-.5,.18-1.02,.3-1.52,.5-.3,.12-.6,.23-.91,.3-.63,.15-1.22,.4-1.85,.55-.65,.16-1.23,.47-1.85,.7-.62,.22-1.2,.56-1.84,.72-.84,.22-1.58,.66-2.39,.94-.3,.11-.56,.3-.87,.43-.32,.13-.67,.19-.99,.35-.26,.13-.55,.22-.79,.4-.12,.09-.28,.08-.42,.13-.68,.24-1.35,.54-2.05,.7-.56,.13-1.09,.38-1.65,.5-.67,.13-1.3,.42-1.98,.55-.17,.03-.33,.12-.49,.19-.51,.22-1.07,.25-1.59,.44-.28,.1-.62,.05-.93,.09-.51,.07-1.03,.08-1.49,.36-.08,.05-.15,.07-.23,.06-.58-.09-1.16,.03-1.75,.03h-.14c-.38-.03-.76-.07-1.13,.04-.28,.09-.56-.06-.84-.09-.22-.03-.44-.06-.67-.06-.12,0-.23-.02-.35-.07-.27-.12-.57-.18-.87-.17-.16,0-.32-.01-.48-.08-.5-.19-1-.38-1.46-.66-.53-.32-1-.71-1.47-1.11-.58-.5-.86-1.17-1.02-1.91-.13-.6-.13-1.18,.04-1.77,.06-.19,.02-.4,.15-.56-.14-.12-.28-.1-.39-.08-.74,.13-1.43-.09-2.13-.26-.52-.13-1.03-.29-1.52-.52-.09-.05-.19-.03-.28-.05-.49-.13-.97-.3-1.45-.47-.28-.1-.58-.11-.87-.18-.61-.14-1.21-.31-1.8-.53-.41-.16-.85-.26-1.28-.37-.41-.1-.82-.17-1.23-.24-.16-.03-.33,0-.49-.02-1.13-.1-2.27-.09-3.41-.05-.4,0-.81-.02-1.21-.03-.58,0-1.15,.06-1.72,.1-.54,.03-1.07,.17-1.61,.14-.32-.02-.61,.07-.92,.14-.38,.1-.75,.2-1.12,.36-.37,.16-.76,.26-1.14,.39-.47,.16-.96,.27-1.4,.5-.51,.27-.99,.56-1.41,.96-.57,.54-1.07,1.14-1.52,1.78-.22,.3-.42,.62-.54,.99-.08,.22-.26,.4-.4,.61-.12,.18-.11,.26,.08,.35,.46,.22,.82,.56,1.21,.87,.33,.26,.51,.65,.73,1-.07,.41,.04,.86-.16,1.22-.13,.23-.34,.46-.68,.5-.41,.05-.82,.15-1.19-.08-.23-.15-.46-.33-.62-.55-.27-.37-.53-.76-.64-1.2-.08-.32-.11-.67-.05-1.02,.01-.08,.17-.05,.12-.2-.02-.02-.05-.07-.1-.08-.52-.13-1.47-.02-2,.23-.08,.04-.16,.1-.25,.13-.71,.21-1.14,.71-1.47,1.34-.21,.41-.31,.86-.54,1.26-.05,.09-.02,.19-.03,.28,0,.08,.01,.19-.03,.24-.22,.27-.07,.61-.18,.9-.02,.04,.05,.12,.1,.2,.36-.1,.68,.08,1,.2,.24,.09,.45,.27,.63,.46,.13,.13,.27,.26,.4,.39,.19,.19,.41,.37,.4,.68,.19,.13,.16,.29,.09,.49-.1,.3-.34,.48-.58,.56-.27,.09-.58,.16-.88,.11-.22-.03-.42-.08-.58-.25-.34-.34-.69-.68-.99-1.06-.14-.18-.19-.42-.37-.59-.51,.16-1.02,.32-1.47,.62-.26,.17-.54,.28-.77,.51-.38,.37-.63,.81-.79,1.3-.14,.43-.31,.86-.39,1.31-.02,.11-.02,.22-.03,.32-.02,.3,.04,.6-.07,.89-.07,.18,.05,.37,.08,.55,.07,.48,.15,.95,.31,1.42,.04,.13,.11,.24,.17,.37,.4-.19,.74-.44,1.04-.73,.07-.06,.13-.12,.23-.15,.5-.15,.99-.33,1.5-.47,.59-.17,1.2-.29,1.79-.45,.29-.08,.58-.09,.86-.21,.09-.04,.22-.03,.32,.02,.05,.02,.12,.06,.15,.04,.31-.16,.58-.03,.85,.08h.62c.17,0,.28,.17,.47,.16,.03-.02,.08-.05,.11-.09,.17-.28,.48-.43,.65-.7,.18-.29,.52-.41,.79-.59,.23-.15,.47-.27,.74-.35,.11-.03,.2-.14,.29-.22,.3-.27,.71-.31,1.02-.54,.04-.03,.11-.04,.14-.07,.37-.39,.9-.46,1.35-.69,.28-.15,.62-.15,.94-.2,.49-.08,.98-.03,1.47-.07,.37-.03,.68,.17,1.03,.2,.41,.04,.76,.21,1.14,.35,.66,.24,1.24,.55,1.69,1.11,.31,.37,.62,.73,.73,1.22,.02,.09,.09,.13,.13,.2,.04,.07,.11,.16,.1,.22-.08,.32,.1,.6,.1,.9,0,.05-.01,.11,0,.16,.1,.33,.05,.65-.08,.95,.11,.07,.18,.04,.25,0,.45-.31,.97-.49,1.46-.74,.41-.2,.82-.41,1.21-.65,.21-.13,.42-.26,.64-.35,.54-.23,1.01-.57,1.46-.93,.45-.35,.96-.62,1.34-1.06,.13-.15,.31-.25,.45-.39,.22-.24,.31-.56,.42-.86,.22-.56,.47-1.1,.81-1.6,.02-.02,.05-.05,.05-.06-.14-.24,.13-.38,.13-.59,0-.12,.04-.25,.1-.34,.23-.35,.23-.8,.51-1.14,.09-.11,.1-.3,.14-.45,.07-.23,.17-.45,.3-.65,.21-.3,.25-.67,.4-1,.21-.43,.3-.93,.6-1.3,.33-.4,.54-.87,.9-1.26,.3-.33,.62-.63,.91-.96,.15-.17,.32-.3,.56-.28,.09,0,.15-.03,.22-.09,.16-.13,.32-.11,.49,0,.46,.28,.78,.63,.79,1.22,0,.47-.06,.92-.09,1.38,0,.03,0,.06,0,.08-.25,.37-.21,.84-.44,1.21-.23,.36-.41,.75-.62,1.12-.3,.51-.7,.95-1.01,1.46-.14,.23-.35,.41-.52,.62-.28,.33-.55,.66-.79,1.03-.21,.33-.46,.64-.77,.87-.21,.16-.31,.4-.47,.59-.35,.44-.82,.76-1.16,1.2-.18,.23-.35,.42-.39,.73-.03,.23-.17,.45-.27,.67-.09,.2-.17,.39-.21,.61-.07,.37-.22,.72-.36,1.07-.17,.43-.24,.88-.38,1.31-.24,.74-.39,1.5-.71,2.22-.2,.47-.41,.93-.61,1.4-.3,.7-.55,1.42-.83,2.13-.16,.38-.29,.79-.5,1.13-.34,.56-.61,1.16-1.03,1.68-.31,.39-.56,.82-.88,1.21-.15,.18-.23,.42-.35,.62-.22,.37-.53,.67-.7,1.06-.33,.14-.41,.5-.67,.72-.43,.37-.88,.72-1.3,1.11-.11,.11-.26,.15-.38,.22-.25,.14-.46,.33-.72,.47s-.52,.27-.78,.41c-.3,.17-.65,.24-.99,.32-.52,.12-1.02,.29-1.52,.47-.31,.11-.65,.11-.97,.16-.43,.07-.85,0-1.27,.02-.72,.03-1.42-.07-2.12-.29-.33-.1-.69-.15-1.03-.19-.2-.02-.35-.1-.53-.17-.19-.08-.34-.29-.51-.3-.24,0-.38-.14-.55-.25s-.37-.18-.52-.31c-.24-.2-.47-.41-.74-.56-.11-.06-.2-.09-.31-.06-.53,.15-1.06,.07-1.59,.05-.3,0-.6-.04-.9-.07-.43-.04-.85-.09-1.26-.26-.25-.1-.52-.13-.77-.23-.24-.1-.5-.16-.73-.32-.17-.12-.36-.23-.57-.29-.29-.08-.51-.3-.74-.49-.15-.12-.32-.2-.47-.31-.23-.17-.45-.37-.61-.62-.13-.22-.25-.43-.48-.55-.09-.05-.18-.14-.23-.23-.26-.47-.58-.9-.83-1.38-.23-.45-.34-.93-.45-1.42-.07-.34-.12-.68-.07-1.01,.08-.56,0-1.12,.09-1.67,.06-.4,.08-.82,.3-1.21,.16-.3,.33-.61,.44-.94,.09-.27,.21-.55,.44-.76,.09-.08,.15-.18,.17-.27,.05-.31,.31-.49,.44-.75,.09-.18,.31-.26,.48-.37,.11-.07,.19-.15,.27-.24-.13-.3-.34-.55-.45-.86-.11-.3-.09-.61-.2-.91-.05-.13-.08-.29-.11-.43-.05-.22-.06-.41,0-.63,.06-.28,0-.57-.12-.86,.02-.08,.15-.12,.13-.23-.08-.43,.15-.8,.26-1.18,.14-.5,.36-.98,.55-1.47,.02-.05,.04-.11,.08-.14,.36-.23,.57-.6,.84-.92,.06-.07,.13-.12,.24-.15,.24-.06,.44-.23,.7-.28,.2-.03,.35-.26,.59-.32,.33-.07,.66-.19,1.01-.3,0,.01,.01-.01,0-.04-.12-.62,.07-1.2,.17-1.79v-.04c.24-.35,.21-.8,.47-1.15,.12-.16,.18-.36,.26-.54,.1-.21,.22-.4,.38-.56,.18-.19,.39-.34,.51-.58,.02-.05,.07-.1,.12-.11,.32-.09,.56-.38,.92-.38,.13,0,.22-.09,.33-.14,.24-.1,.48-.19,.74-.19,.14,0,.26-.02,.39-.08,.23-.09,.47,0,.71,.02,.21,.01,.41,.09,.64,.04,.28-.43,.57-.86,.73-1.36,0-.03,.03-.05,.04-.07,.24-.34,.52-.65,.74-1,.06-.1,.18-.19,.24-.31,.12-.26,.4-.36,.54-.59,.08-.12,.18-.24,.27-.35,.29-.33,.58-.7,.99-.88,.34-.15,.64-.35,.99-.49,.57-.23,1.13-.46,1.72-.6,.34-.09,.67-.16,.97-.38,.17-.13,.41-.12,.62-.16,.32-.06,.64-.16,.96-.21,.56-.1,1.13-.14,1.69-.18,.85-.05,1.69-.15,2.54-.23,.16-.02,.3,.09,.48,.08,.48-.02,.96,.03,1.44-.02,.37-.04,.72,.02,1.08,0,.36,0,.72-.05,1.07,0,.4,.07,.81,.06,1.21,.13,.54,.08,1.04,.23,1.55,.41,.29,.1,.61,.12,.91,.19,.23,.06,.4,.25,.66,.28,.42,.06,.85,.15,1.27,.21,.48,.08,.95,.17,1.4,.37,.21,.1,.42,.19,.65,.2,.12,0,.24,.04,.35,.09,.58,.3,1.23,.36,1.85,.56,.56,.18,1.14,.2,1.7,.32,.14,.03,.3,.01,.45,0,.15,0,.26-.09,.37-.21s.17-.27,.24-.4c.3-.51,.73-.87,1.18-1.21,.65-.5,1.38-.91,2.02-1.43,.02-.02,.05-.03,.07-.04,.66-.16,1.18-.65,1.84-.81,.21-.05,.39-.18,.59-.25,.19-.07,.4-.06,.59-.16,.17-.08,.4-.08,.59-.1,.31-.03,.61-.11,.92-.14,.21-.02,.4,.02,.62-.02,.31-.06,.64-.1,.95-.15,.06,0,.14,0,.18,0,.3,.13,.59,0,.87-.06,.16-.04,.32-.06,.48-.06,.21,0,.43-.02,.64-.04,.2-.01,.4,.06,.62,.05,.19,0,.39,.09,.6,.07,.14,0,.27,0,.4-.06,.11-.05,.24-.02,.36,0,.46,.08,.92,.14,1.38,.16,.25,0,.52,.02,.76,.08,.51,.12,1.04,.13,1.56,.23,.38,.07,.73,.25,1.09,.4,.04,0,.06,.08,.12,.09,.41,.04,.78,.22,1.13,.42,.62,.35,1.21,.76,1.52,1.43,.07,.16,.09,.41,0,.61-.25,.63-.56,1.22-1.08,1.67-.1,.09-.16,.22-.25,.32-.36,.41-.82,.65-1.31,.84-.14,.05-.28,.09-.41,.16-.57,.32-1.19,.39-1.82,.49-.59,.09-1.19,.08-1.78,.23-.09,.02-.19,0-.29,0-.22,0-.44-.02-.66-.02s-.43,.03-.63,0c-.17-.02-.35,.15-.46,.04-.15-.15-.28,0-.41-.03-.16-.02-.33,0-.49,0-.27-.02-.53-.08-.81-.09-.25-.02-.49-.04-.73,0h-.14c-.1-.06-.04-.17-.13-.23-.03,.01-.08,.01-.1,.04-.14,.15-.27,.28-.49,.12-.02-.01-.05,0-.08,0-.6,.05-1.19-.12-1.79-.09-.38,.02-.76-.04-1.14-.14-.27-.07-.56-.05-.85-.09-.31-.04-.62-.08-.93-.12-.66-.08-1.33-.08-1.98-.21-.29-.06-.61-.11-.93-.11-.39,0-.78-.07-1.22-.11-.07,.25-.16,.51-.22,.78-.05,.21-.1,.42-.11,.64,0,.24-.04,.48,.03,.72,.02,.05,.07,.1,.06,.15-.05,.56,.4,.8,.73,1.11,.09,.08,.19,.15,.28,.23,.71,.67,1.57,1.03,2.52,1.18,.38,.06,.77,.14,1.14,.25,.2,.06,.4,.06,.6,.07,.26,0,.52-.04,.77,.07,.08,.03,.19,.02,.29,0,.42-.09,.84-.1,1.26-.04,.12,.02,.22,.02,.33-.03,.35-.14,.76-.05,1.11-.2,.23-.1,.42-.07,.59,.1,.46-.12,.9-.23,1.37-.26,.43-.03,.88-.07,1.31-.22,.6-.21,1.23-.28,1.82-.5,.39-.14,.78-.29,1.17-.43,.26-.09,.55-.09,.81-.22,.4-.2,.84-.28,1.26-.39,.58-.16,1.13-.43,1.73-.53,.2-.03,.37-.14,.55-.24,.56-.31,1.17-.46,1.75-.72,.27-.12,.55-.22,.81-.35,1.02-.49,2.08-.89,3.15-1.23,.27-.08,.53-.18,.79-.32,.18-.09,.37-.17,.56-.24,.46-.15,.87-.4,1.33-.55,.62-.21,1.26-.38,1.9-.54,.3-.08,.57-.23,.87-.31,.42-.11,.82-.31,1.23-.46,.8-.29,1.62-.47,2.43-.73,.41-.13,.82-.26,1.23-.37,.27-.07,.57-.03,.84-.11,.47-.14,.98-.17,1.44-.37,.17-.07,.36-.11,.55-.12,.75-.06,1.47-.28,2.21-.39,.52-.08,1.02-.27,1.53-.33,.47-.05,.93-.18,1.4-.19,.19,0,.36-.1,.56-.1,.69,0,1.36-.23,2.06-.16,.29,.03,.59,.03,.88,0,.31-.03,.59,.1,.89,.1,.26,0,.52-.08,.79-.02,.28,.06,.57,0,.86,0h.82c.27,0,.54-.03,.81,.07,.13,.05,.31,.05,.45,0,.23-.09,.46-.07,.69-.07,.47,0,.94-.09,1.41,0,.42,.07,.86,.04,1.28,.16,.11,.03,.2-.03,.3-.03,.57,.02,1.06,.29,1.6,.4,.36,.08,.71,.22,1.07,.33,.31,.1,.64,.21,.98,.22,.28,0,.56,.08,.84,.06,.15,.13,.17,.32,.29,.46,.06-.13,.19-.16,.28-.11,.4,.24,.87,.33,1.28,.57,.03,.02,.08,.05,.09,.08,.08,.3,.32,.32,.56,.32,.13,0,.23,.03,.31,.16,.1,.17,.3,.22,.46,.32,.33,.2,.62,.43,.9,.68,.23,.21,.49,.38,.74,.57,.58-.18,1.16-.34,1.73-.53,.65-.21,1.33-.34,1.97-.57,.82-.28,1.66-.44,2.5-.6,.53-.1,1.05-.32,1.61-.28,.09,0,1.09,.03,1.18,.03,.49,.03,.97,.23,1.46,.07,.03,0,.08,0,.11,.02,.27,.1,.55,.16,.85,.15,.1,0,.23,.06,.35,.06,.71-.02,1.34,.24,1.99,.48,.56,.21,1.08,.54,1.67,.68,.15,.03,.27,.12,.37,.24,.08,.09,.17,.18,.29,.21,.25,.07,.32,.34,.53,.47,.41,.24,.68,.64,.96,1.03,.21,.29,.43,.58,.57,.92,.15,.36,.24,.74,.32,1.12,.13,.65,.2,1.31,.16,1.96,.49,.15,.97,.22,1.42,.42,.35,.15,.73,.28,1.11,.35,.48,.1,.82,.39,1.19,.66,.2,.14,.37,.31,.61,.38,.1,.03,.22,.07,.27,.17,.12,.26,.34,.42,.52,.62,.29,.35,.57,.72,.86,1.08,.08,.1,.16,.2,.22,.33,.09,.23,.27,.43,.39,.66,.33,.57,.38,.79,.43,1.71,0,.06,.04,.13,.07,.19,.05,.1,.11,.2,.08,.31-.06,.25,.03,.51-.05,.78,.31,.07,.6,.08,.87,.21,.71,.34,1.31,.78,1.65,1.52,0,.04,0,.09,.04,.11,.39,.3,.41,.76,.54,1.17,.09,.25,.16,.5,.21,.76,.03,.14,.04,.27,.02,.41-.04,.34-.08,.68-.08,1.02,0,.18-.07,.34-.15,.5-.15,.3-.26,.62-.48,.89-.02,.03-.02,.08-.05,.11-.11,.11,0,.28-.13,.38-.26,.23-.53,.45-.82,.7-.03,.09-.02,.22,.02,.36,.21,.78,.41,1.56,.38,2.39,0,.36-.13,.69-.21,1.03-.15,.67-.33,1.33-.52,1.98-.17,.6-.44,1.15-.74,1.68-.24,.42-.48,.84-.78,1.23-.19,.24-.34,.51-.59,.74,.34,.33,.22,.79,.35,1.18-.18,.38,0,.81-.14,1.21-.09,.25-.02,.53-.09,.8-.18,.65-.35,1.3-.63,1.91-.2,.43-.42,.86-.71,1.26-.31,.42-.56,.89-.88,1.3-.29,.37-.54,.78-.89,1.07-.28,.24-.49,.58-.89,.69-.14,.04-.16,.22-.29,.32-.57,.41-1.19,.73-1.81,1.03-.57,.28-1.14,.53-1.71,.81-.44,.21-.91,.3-1.39,.38-.52,.09-1.03,.05-1.55,.07-.32,0-.62-.17-.94-.09-.14-.13-.3-.17-.48-.16-.41,0-.75-.21-1.1-.38-.12,.1-.27,.18-.12,.36-.13,.16-.15,.36-.22,.55-.15,.39-.43,.71-.52,1.12,0,.04-.04,.07-.06,.1-.32,.36-.53,.82-.86,1.17-.64,.66-1.1,1.46-1.74,2.12-.44,.46-.86,.94-1.29,1.41-.19,.21-.43,.36-.66,.54-.32,.26-.64,.53-.98,.77-.36,.26-.75,.47-1.13,.69-.44,.26-.87,.53-1.31,.78-.04,.02-.06,.06-.1,.07-.61,.22-1.14,.6-1.76,.81-.67,.22-1.34,.48-2.03,.63-.59,.13-1.16,.32-1.77,.39-.36,.04-.74,0-1.09,.13-.54-.15-1.02,.16-1.54,.16-.44,0-.87,.06-1.31,.02-.07,0-.14-.02-.2,0-.47,.13-.95,0-1.42,.06-.64,.07-1.24-.19-1.88-.17-.46,0-.93-.15-1.39-.21-.23-.03-.47-.07-.71-.03-.3,.06-.6-.03-.88-.1-.22-.05-.43-.05-.64-.06-.42-.02-.8-.09-1.04-.48-.02-.03-.06-.08-.09-.08-.37,.03-.57-.37-.93-.36-.09,0-.14-.07-.17-.15-.03-.09-.05-.18-.08-.27,.25-.29,.56-.38,.88-.25,.21,.08,.43,.15,.66,.18,.45,.06,.89,.2,1.32,.35,.1,.03,.2,.08,.27,.03,.24-.15,.46-.03,.66,.06,.32,.15,.64,.2,.98,.2,.51,0,1.02,.1,1.53,.16,.16,.02,.27,.14,.44,.18,.32,.07,.65,0,.96,.14,.11,.04,.25,.04,.37,0,.32-.11,.65-.03,.97-.08,.49-.09,.98-.02,1.46-.09,.56-.08,1.13-.08,1.68-.22,.12-.03,.25,0,.37,0,.31,0,.61-.07,.91-.15,.61-.16,1.23-.27,1.84-.43,.31-.08,.62-.2,.9-.33,.28-.14,.59-.19,.87-.31,.76-.33,1.5-.72,2.21-1.15,.62-.37,1.22-.75,1.8-1.17,.4-.29,.84-.56,1.16-.92,.46-.52,1-.96,1.39-1.53,.02-.02,.04-.04,.06-.06,.52-.45,.84-1.06,1.27-1.58,.51-.61,.9-1.3,1.4-1.92,0,0,.02-.02,.02-.04,.16-.48,.34-.95,.44-1.44-.59-.27-1.03-.69-1.45-1.13-.02-.24-.22-.35-.37-.49-.08-.07-.13-.15-.15-.23-.04-.16-.12-.3-.21-.43-.25-.36-.15-.73,.21-.97,.5-.34,1.28-.15,1.66,.18,.34,.3,.61,.65,.8,1.07,.07,.15,.16,.28,.25,.41,.18,.27,.33,.56,.27,.92-.01,.09,.04,.21,.19,.27,.59,.24,1.24,.25,1.83,.47,.06,.02,.14,0,.2,0,.32,.03,.65,0,.98,.05,.18,.03,.42-.03,.63-.09,.78-.2,1.54-.45,2.28-.79,.38-.18,.75-.36,1.13-.54,.74-.36,1.37-.86,1.98-1.39,.54-.47,.95-1.06,1.39-1.61,.16-.2,.36-.4,.41-.68,0-.06,.08-.11,.12-.16,.36-.5,.68-1.03,.94-1.59,.1-.21,.13-.44,.18-.66,.08-.39,.3-.75,.34-1.16,.03-.35,.15-.69,.13-1.04,0-.31,.1-.63-.06-.94-.4,.27-.79,.56-1.2,.81-.48,.3-.94,.66-1.49,.83-.47,.14-.97,.23-1.43,.41-.06,.02-.14,.02-.21,0-.34-.05-.67,.09-1.01,.1-.16,0-.3,.06-.46,0-.07-.03-.2-.03-.23,0-.12,.13-.27-.06-.37,.05-.36-.14-.73-.05-1.09-.07-.25,0-.5-.02-.75-.07-.26-.05-.51-.11-.79-.06-.19,.04-.44-.07-.65-.18s-.44-.2-.68-.21c-.14,0-.2-.12-.31-.16-.23-.09-.4-.11-.62,.06-.23,.19-.45,.39-.67,.6-.43,.42-.95,.72-1.51,.9-.43,.14-.89,.2-1.34,.26-.21,.03-.43,.04-.65-.05-.13-.05-.3-.04-.46-.04-.43,0-.88,.12-1.29-.07-.29-.13-.57-.3-.84-.47-.26-.17-.54-.32-.74-.57-.11-.13-.27-.21-.42-.23-.4-.07-.62-.33-.82-.65-.06-.1-.14-.19-.22-.29-.52,.46-1.07,.88-1.68,1.2-.53,.28-1.12,.41-1.73,.35-.22-.02-.43-.18-.58-.33-.1-.1-.19-.21-.31-.3-.13-.09-.19-.23-.23-.37-.07-.28-.15-.56-.1-.86,.03-.17,0-.36,0-.54-.33,.16-.61,.36-.89,.72-.12,.15-.26,.27-.39,.39-.17,.16-.34,.3-.46,.51-.13,.23-.38,.37-.59,.49-.26,.16-.51,.33-.78,.49-.16,.1-.35,.2-.52,.19-.33-.02-.61,.15-.94,.14-.11,0-.22,0-.34-.02-.18-.05-.37-.07-.56-.07-.28,0-.55-.06-.78-.23-.11-.08-.24-.11-.37-.15-.32-.1-.48-.38-.69-.62,0,0,0-.03-.01-.04-.32-.27-.45-.65-.58-1.04-.04-.11-.06-.24-.18-.31-.1,.11-.19,.22-.26,.37-.16,.35-.41,.66-.66,.96-.31,.36-.55,.76-.91,1.08-.12,.1-.24,.21-.36,.31-.32,.26-.56,.59-.85,.86-.47,.45-.94,.91-1.44,1.34-.19,.17-.4,.33-.67,.42-.26,.1-.53,.19-.78,.32-.12,.06-.24,.09-.35,.06-.51-.12-1.01-.25-1.36-.7-.16-.2-.11-.42-.1-.61,.01-.36,.07-.72,.2-1.07,.15-.39,.22-.8,.41-1.18,.25-.51,.53-1,.75-1.52,.27-.64,.66-1.22,.92-1.85,.16-.37,.42-.68,.49-1.09,.03-.15,.23-.23,.27-.4,.05-.21,.14-.38,.26-.56,.39-.62,.69-1.29,1.05-1.93,.32-.57,.59-1.18,.82-1.8,.15-.41,.19-.87,.11-1.35-.45-.05-.85,.03-1.25,.29-.28,.18-.55,.39-.85,.56-.33,.19-.62,.46-.84,.78-.08,.12-.21,.21-.33,.29-.4,.25-.62,.65-.8,1.05-.23,.49-.5,.95-.77,1.41-.3,.51-.66,1-.98,1.5-.1,.16-.14,.34-.23,.5-.14,.23-.21,.5-.4,.72-.53,.61-.94,1.3-1.31,2.01-.27,.51-.48,1.04-.81,1.52-.07,.11-.12,.21-.27,.2-.11,0-.17,.06-.25,.12-.11,.08-.28,.09-.35,.03-.23-.21-.58-.24-.74-.57,.32-.33,.47-.78,.75-1.14,.35-.45,.6-.96,.91-1.43,.26-.4,.45-.85,.7-1.25s.46-.85,.65-1.29c.19-.46,.47-.87,.67-1.32,.46-1.01,1.07-1.96,1.28-3.08,.02-.12,.1-.22,.15-.33,.14-.33,.14-.65-.02-.98-.33-.08-.62,.03-.88,.21-.23,.15-.48,.26-.69,.43-.35,.27-.73,.49-1.01,.84-.18,.22-.38,.43-.6,.6-.23,.18-.29,.47-.54,.64-.24,.16-.36,.43-.52,.67-.22,.32-.44,.64-.71,.92-.2,.21-.34,.48-.46,.75-.13,.29-.31,.55-.48,.81-.04,.06-.08,.11-.1,.17-.13,.44-.44,.77-.71,1.12-.11,.14-.15,.31-.25,.45-.34,.48-.69,.95-1.03,1.43-.03,.04-.03,.1-.05,.15-.13,.28-.23,.58-.48,.79-.08,.07-.13,.17-.17,.27-.08,.23-.26,.38-.41,.55-.17,.18-.38,.17-.57,.09-.15-.05-.27-.18-.39-.29-.19-.18-.19-.3-.02-.49,.21-.23,.36-.51,.55-.75,.17-.21,.26-.49,.42-.72,.2-.29,.46-.54,.59-.86,.16-.41,.43-.75,.66-1.11,.48-.73,.97-1.46,1.42-2.21,.15-.24,.24-.51,.38-.76,.21-.36,.37-.75,.64-1.07,.02-.03,.06-.06,.07-.1,.03-.35,.27-.6,.41-.9,.23-.49,.43-.98,.41-1.56-.45,.15-.87,.34-1.18,.67-.16,.17-.39,.19-.53,.35-.29,.32-.64,.56-.93,.88-.17,.19-.38,.35-.56,.53-.1,.1-.24,.18-.25,.36,0,.1-.11,.14-.2,.18-.26,.12-.45,.33-.62,.57-.16,.22-.35,.42-.58,.56-.08,.05-.18,.11-.2,.19-.09,.38-.41,.56-.66,.8-.25,.25-.42,.57-.71,.79-.41,.32-.67,.78-1.12,1.05-.02,0-.05,.03-.06,.06-.14,.34-.46,.52-.7,.77-.29,.31-.53,.67-.89,.92-.08,.28-.31,.45-.49,.64-.27,.29-.52,.61-.81,.86-.3,.25-.62,.48-.96,.67-.51,.29-1.09,.2-1.54-.2-.36-.32-.59-.73-.79-1.16-.07-.15-.2-.25-.21-.45-.05-.53-.01-1.04,.13-1.55,.04-.14,.06-.26,.03-.41-.32,.16-.64,.32-.77,.68-.05,.13-.17,.17-.25,.25-.42,.44-.91,.8-1.31,1.27-.26,.31-.59,.58-.99,.67-.29,.07-.46,.31-.71,.43-.33,.15-.66,.29-1,.42-.3,.12-.59,.27-.9,.37-.74,.23-1.35,.06-1.94-.38-.26-.2-.42-.46-.57-.73-.03-.06-.05-.12-.1-.17-.15-.13-.26-.27-.26-.48,0-.04-.07-.08-.11-.12-.04,.02-.1,.03-.11,.05-.32,.58-.85,1-1.22,1.54-.24,.35-.5,.67-.79,.98-.07,.08-.15,.15-.23,.21-.35,.25-.65,.56-1.02,.8-.25,.16-.46,.41-.66,.65-.19,.23-.33,.5-.65,.57-.06,0-.11,.08-.15,.13-.21,.22-.45,.38-.73,.51-.13,.06-.27,.13-.36,.25-.14,.2-.36,.32-.57,.37-.15,.03-.18,.23-.33,.17-.11-.05-.23,.09-.33-.03-.1,.13-.24,.09-.36,.05-.16-.04-.3,.15-.46,.02-.39,.07-.68-.2-1.03-.28-.12-.02-.28-.27-.28-.41,0-.12-.06-.2-.11-.29-.11-.2-.15-.41,0-.62,.07-.11,.09-.22,.08-.35-.02-.2,.07-.37,.1-.55,.07-.38,.3-.69,.4-1.05,.11-.36,.25-.71,.42-1.03,.24-.45,.45-.91,.66-1.37,.25-.53,.47-1.08,.71-1.62,.12-.27,.24-.54,.41-.77,.34-.46,.59-.96,.87-1.45,.54-.95,1.17-1.85,1.68-2.82,.32-.62,.72-1.21,1.02-1.84,.22-.47,.52-.93,.46-1.49,0-.11,.11-.19,.06-.34-.37-.21-.8-.11-1.21-.12-.06,0-.15,.03-.18,.08-.17,.26-.54,.18-.71,.43-.07,.09-.15-.06-.25,0-.46,.29-1.03,.39-1.35,.92-.13,.21-.37,.35-.58,.51-.44,.33-.84,.69-1.23,1.08-.36,.35-.67,.75-1.1,1.04-.1,.07-.18,.2-.24,.32-.38,.71-.86,1.37-1.29,2.05-.33,.52-.61,1.08-.98,1.57-.29,.39-.52,.82-.82,1.2-.2,.25-.29,.58-.47,.85-.16,.23-.27,.5-.43,.73-.12,.17-.18,.41-.29,.61-.12,.22-.25,.42-.44,.58-.18,.17-.19,.15-.44,0-.21-.11-.43-.22-.61-.39-.11-.11-.12-.2-.07-.36,.11-.33,.33-.58,.54-.84,.23-.28,.38-.6,.55-.91,.11-.2,.23-.4,.36-.58,.25-.36,.42-.76,.62-1.13,.02-.03,0-.08-.04-.1-.48,.47-.93,.96-1.45,1.39-.49,.4-1,.78-1.55,1.1-.4,.23-.84,.42-1.23,.67-.14,.09-.29,.15-.41,.26-.73,.6-1.59,.9-2.49,1.08-.43,.09-.86-.05-1.26-.22-.12-.05-.24-.13-.37-.17-.29-.1-.5-.32-.59-.58-.1-.28-.27-.52-.35-.8-.03-.12-.07-.25-.03-.36,.13-.44,.08-.91,.29-1.34,0-.02-.04-.06-.07-.12-.3,.37-.54,.78-.93,1.06-.18,.13-.28,.33-.41,.5-.19,.24-.41,.46-.62,.67-.45,.46-.84,.98-1.39,1.34-.3,.2-.55,.49-.82,.74-.32,.29-.65,.58-.98,.86-.31,.25-.55,.6-.95,.75-.11,.04-.18,.16-.27,.25-.16,.16-.32,.34-.55,.41-.06,.02-.14,.05-.17,.1-.29,.45-.8,.63-1.18,.96-.57,.5-1.24,.87-1.79,1.4-.19,.19-.42,.34-.65,.48-.57,.33-1.14,.67-1.64,1.1-.1,.08-.22,.1-.33,.14-.53,.21-.98,.55-1.51,.77-.34,.14-.66,.35-1.02,.49,.13,.29,.4,.32,.59,.45,.26,.17,.51,.35,.75,.54,.26,.21,.57,.34,.84,.54,.5,.37,1.03,.69,1.58,.98,.57,.3,1.01,.77,1.57,1.07,.46,.24,.85,.62,1.4,.67,.16,0,.2,.2,.33,.22,.58,.1,1.01,.54,1.56,.72,.4,.14,.78,.34,1.19,.47,.2,.06,.39,.18,.57,.28,.56,.31,1.17,.49,1.74,.76,.47,.23,.98,.37,1.48,.5,.53,.15,1.05,.31,1.56,.54,.26,.12,.52,.23,.82,.2,.09,0,.18,0,.28,.05,.52,.2,1.09,.27,1.61,.5,.35,.15,.76,.18,1.14,.26,.23,.05,.46,.1,.69,.19,.19,.07,.43,.04,.63,.14,.44,.22,.94,.22,1.41,.33,.07,0,.13,0,.19-.04,.1-.05,.22-.05,.32-.02,.63,.16,1.26,.13,1.9,0,.1-.02,.16,.03,.22,.05,.28,.12,.57,.12,.86,.09,.66-.08,1.34-.03,1.97-.26,.51-.19,1.05-.1,1.55-.24,.31-.08,.62-.18,.91-.31,.32-.15,.64-.29,.97-.37,.35-.09,.64-.29,.93-.46,.09-.05,.21-.07,.26-.19-.02-.09-.08-.13-.16-.13-.48,.04-.95-.2-1.45-.03-.16,.05-.39-.1-.57-.05-.2,.05-.39,.08-.58,.04-.59-.12-1.14,.06-1.7,.19h-.12c-.78,0-1.54,.19-2.31,.25-.32,.19-.68,.13-1.03,.18-.22,.04-.45,.1-.66,.17-.29,.1-.46,0-.68-.17,0-.14-.02-.31,0-.47,.03-.3,.2-.38,.5-.44,.34-.07,.69-.06,1.03-.17,.2-.07,.41-.13,.64-.1,.12,0,.24-.04,.36-.06,.49-.07,.98-.16,1.49-.2,.43-.03,.85-.17,1.27-.19,.48-.02,.95-.25,1.44-.05,.26-.12,.55,.11,.82-.05,.05-.03,.14-.03,.2-.02,.52,.14,1.06,.06,1.59,.15,.28,.05,.54,.15,.83,.19,.22,.03,.36-.02,.49-.16,.12-.13,.25-.25,.41-.33,.14-.07,.24-.19,.31-.35,.13-.31,.3-.59,.59-.8,.21-.15,.2-.17,.51-.16,.24,.45,.18,.69-.18,1.01-.32,.28-.58,.62-.88,.99,.71,.13,1.36,.25,2.02,.36,.12,.02,.24,.06,.35,.09,1.12,.31,2.26,.47,3.38,.75,.77,.19,1.55,.32,2.31,.52,.49,.13,.99,.32,1.52,.3,.24,0,.48,.14,.74,.18,.23,.04,.47,.1,.7,.17,.58,.16,1.18,.26,1.77,.38,.13,.03,.26,.07,.39,.11,.79,.26,1.58,.52,2.38,.74,.43,.11,.87,.19,1.3,.29,.49,.11,.96-.11,1.44-.2,.29-.05,.55-.21,.87-.23,.28-.02,.55-.17,.84-.26,.59-.17,1.17-.39,1.76-.58,.68-.22,1.38-.38,2.08-.53,.22-.05,.44-.12,.66-.19,.93-.29,1.89-.45,2.83-.69,.43-.11,.84-.3,1.28-.34,.43-.04,.85-.15,1.26-.28,.55-.18,1.12-.27,1.67-.42,.72-.21,1.46-.37,2.19-.52,.71-.14,1.41-.38,2.13-.43,.42-.03,.84-.15,1.26-.09,.24,.03,.45-.05,.68-.07,.33-.03,.63,.11,.95,.07,.39-.04,.78,.04,1.16,.14,.24,.06,.49,.06,.75,.16,.33,.13,.49,.43,.74,.62,0,.3,.08,.6,0,.9-.14,.52-.43,.82-.98,.94-.34,.07-.7,.08-1.02,.2-.19-.16-.42,.08-.61-.07-.3,.08-.61-.05-.91,0-.08,.02-.14,0-.22,0-.51-.08-1.02-.18-1.54-.19-.12,0-.23-.07-.32-.15-.1-.09-.21-.17-.3-.25,.19-.46,.21-.47,.61-.37,.25,.06,.51,.08,.76,.1,.37,.03,.73,.12,1.09,.11,.78-.03,1.57,.09,2.32-.2,.2-.08,.41-.12,.59-.3-.28-.22-.52-.44-.92-.51-.7-.13-1.4-.22-2.11-.21-.44,0-.89,.03-1.33,.14-.04,0-.08,0-.12,0-.58-.05-1.11,.19-1.67,.27-.4,.06-.78,.21-1.19,.23-.31,.02-.6,.17-.92,.22-.55,.09-1.09,.27-1.65,.36-.35,.06-.67,.24-1.02,.3-.78,.13-1.53,.43-2.3,.6-1,.22-2,.43-2.98,.71-.48,.14-.95,.3-1.43,.4-.68,.14-1.36,.34-2.01,.56-.37,.12-.76,.17-1.11,.36-.1,.05-.21,.03-.32,.04-.12,0-.21,.04-.23,.18,.11,.09,.23,.04,.35,.05,.17,.02,.34,0,.52,.06,.17,.05,.37,.02,.55,0,.31-.04,.64,.12,.94-.05,.29,.13,.62,.02,.92,.12,.05,.02,.11,.05,.15,.04,.32-.1,.66,.08,.98-.06,.11-.04,.25-.02,.37,0,.48,.05,.95-.04,1.4-.19,.53-.18,1.07-.31,1.59-.54,.29-.12,.5-.3,.72-.51,.3-.29,.45-.32,.85-.14,.04,.21,.08,.44,.12,.65-.29,.22-.57,.41-.87,.55-.13,.06-.2,.17-.3,.26-.18,.19-.34,.41-.64,.42-.1,0-.19,.09-.29,.13-.11,.04-.21,.12-.35,.1-.29-.05-.57,.06-.84,.11-.22,.03-.43,.06-.64,.06-.67,0-1.33,.14-2,.09-.94-.08-1.89-.08-2.84-.1-.39,0-.81,0-1.19-.1-.4-.1-.82-.14-1.21-.28-.47-.17-.95-.1-1.44,.02-.59,.15-1.18,.32-1.77,.35-.63,.04-1.25,.14-1.88,.21-1.05,.1-2.11,.14-3.16,.15-.27,0-.53,.13-.81,.07-.16-.03-.3-.13-.47-.02-.26-.16-.54,0-.82-.03-.42-.03-.84-.09-1.26-.12-.4-.02-.8-.04-1.19-.08-.32-.04-.63-.14-.95-.19-.16-.02-.32-.02-.49-.07-.09-.14-.19-.28-.28-.43-.04-.07-.02-.37,0-.45,.09-.2,.27-.24,.46-.23,.07,0,.16,.03,.23,.05,.68,.2,1.38,.25,2.07,.34,.33,.04,.68,0,1,.14,.06,.03,.15,.04,.2,0,.19-.13,.4-.06,.57-.03,.59,.1,1.18,0,1.77,.03,.31,0,.61-.14,.93-.08,.39,.07,.79,0,1.18-.02,.59-.05,1.19-.07,1.78-.15,.27-.03,.52-.13,.79-.03,.02,0,.17,0,.19-.17-.22-.06-.45-.14-.68-.19-.09-.02-.18-.03-.27-.08-.44-.23-.92-.28-1.4-.33-.3-.03-.55-.2-.85-.23-.45-.04-.89-.19-1.31-.33-.49-.17-1.01-.19-1.5-.31-.49-.12-1.01-.19-1.5-.31-.8-.2-1.61-.31-2.4-.52-.35-.09-.72-.2-1.11-.22-.34-.02-.67-.18-1.01-.25-.63-.12-1.26-.28-1.89-.38-.27-.04-.5-.19-.79-.19-.19,0-.38,.03-.58-.06-.11-.05-.23,0-.33,.11-.35,.41-.87,.64-1.24,1.03-.11,.11-.25,.21-.44,.17-.09-.02-.19,0-.26,.08-.13,.19-.35,.24-.55,.33-.45,.19-.89,.38-1.33,.58-.05,.02-.1,.07-.15,.07-.36-.02-.67,.23-1.01,.23s-.64,.15-.97,.17c-.3,.02-.59,.11-.89,.1-.18,0-.34,.14-.52,.09-.33-.09-.66,0-.99,0h-.99c-.5,.02-.99-.04-1.48-.1-.46-.05-.91-.23-1.36-.34-.22-.06-.43-.15-.67-.14-.05,0-.12,0-.16-.03-.34-.3-.78-.29-1.18-.36-.49-.09-.98-.18-1.44-.37-.21-.09-.43-.14-.65-.18-.24-.05-.46-.16-.7-.22-.67-.17-1.33-.42-1.99-.63-.27-.09-.51-.25-.8-.26,0,0-.03,0-.04,0-.48-.46-1.17-.46-1.71-.78-.55-.04-1.03-.33-1.51-.54-.45-.2-.92-.36-1.37-.57-.28-.13-.57-.25-.85-.38-.55-.25-1.04-.61-1.62-.79-.3-.09-.53-.36-.81-.52-.48-.27-.9-.63-1.36-.94-.39-.26-.81-.46-1.21-.71-.62-.39-1.24-.79-1.91-1.11-.1-.05-.19,.09-.25-.02-.05-.09-.1-.17-.17-.22-.06-.05-.14-.09-.21-.12-.42-.13-.79-.34-1.14-.59-.14-.1-.23-.08-.37-.02-.32,.15-.64,.28-.97,.4-.15,.05-.3,.13-.47,.11-.23-.04-.42,.12-.61,.18-.54,.19-1.11,.22-1.65,.38-.09,.03-.18,.05-.27,.09-.2,.09-.39,.15-.61,.09-.2-.06-.38,.05-.55,.1-.26,.08-.52,.16-.77,.22-.5,.11-1,.22-1.51,.27-.47,.05-.95,0-1.41,.14-.09,.03-.19,0-.29,0h-1.32c-.31,0-.62,0-.93-.07-.29-.06-.61-.02-.92,0-.55,.02-1.08-.09-1.61-.2-.33-.07-.67-.07-1-.11-.56-.07-1.11-.22-1.67-.3-.59-.09-1.12-.38-1.71-.46-.04,0-.09-.02-.11-.04-.32-.3-.75-.42-1.14-.6-.19-.09-.34-.21-.49-.36-.14-.13-.32-.3-.31-.45,.03-.39-.18-.8,.07-1.18,.15-.23,.31-.4,.58-.53,.97-.46,2.02-.64,3.05-.88,.47-.11,.94-.22,1.41-.35,.4-.11,.82-.17,1.23-.22,.15-.02,.28-.09,.43-.1,.3-.02,.6,0,.9-.07,.77-.16,1.55-.09,2.33-.08,.5,0,1,.06,1.49,.15,.28,.05,.57,.05,.85,.07,.54,.04,1.07,.15,1.6,.26,.68,.14,1.35,.32,2.01,.5,.41,.12,.83,.21,1.24,.34,.26,.08,.54,.15,.78,.3,.26,.17,.55,.29,.86,.34,.2,.03,.3,.3,.54,.2,.34,.28,.77,.36,1.19,.55l-.13,.24Zm-12.15-10.87c.24,.22,.47,.37,.71,.46,.47,.18,.97,.32,1.43,.52,.31,.13,.65,.18,.99,.17,.84-.02,1.69-.12,2.53-.09,.24,0,.48-.07,.71-.12,.67-.14,1.33-.34,1.95-.62,.4-.18,.83-.32,1.2-.58,.53-.37,1.16-.6,1.6-1.12,.08-.09,.17-.15,.18-.29,.02-.21,.12-.38,.37-.41,.1,0,.17-.11,.24-.2,.31-.39,.58-.81,.88-1.2,.32-.4,.63-.82,.93-1.23,.38-.52,.69-1.09,1.02-1.64,.55-.89,.93-1.87,1.33-2.84,.14-.35,.21-.72,.36-1.07,.14-.33,.26-.68,.4-1.01,.13-.32,.13-.7,.38-.97,.02-.45,.31-.83,.36-1.28,.05-.35,.23-.68,.33-1.03,.09-.32,.21-.63,.22-1.01-.32,.27-.67,.42-.97,.65-.25,.19-.54,.34-.83,.48-.31,.15-.63,.31-.91,.51-.33,.24-.7,.39-1.06,.58-.32,.17-.69,.25-1,.43-.38,.23-.78,.42-1.18,.62-.26,.13-.53,.2-.48,.57l-.02,.04c-.34,.57-.47,1.22-.69,1.84-.31,.87-.74,1.67-1.22,2.44-.09,.15-.19,.3-.25,.46-.04,.12-.11,.21-.18,.31-.28,.4-.6,.76-.87,1.16-.11,.17-.18,.36-.31,.51-.38,.43-.73,.88-1.13,1.28-.44,.45-.89,.88-1.42,1.21-.41,.25-.74,.64-1.18,.85-.12,.25-.37,.29-.59,.38-.2,.08-.4,.16-.6,.25-.66,.29-1.35,.43-2.05,.58-.39,.08-.79,.16-1.2,.39l.02,.02ZM105.86,6.87c-.31,.17-.62,.31-.96,.42-.3,.09-.6,.23-.88,.4-.49,.3-.99,.6-1.5,.87-.14,.07-.31-.03-.4,.07-.31,.32-.76,.4-1.08,.69-.53,.46-1.13,.83-1.63,1.35-.26,.27-.56,.52-.85,.76-.24,.2-.42,.43-.5,.74-.13-.05-.22,0-.3,.08-.31,.29-.62,.58-.82,.95-.32,.58-.64,1.15-.98,1.71-.3,.51-.55,1.05-.5,1.68v.08c-.16,.45-.04,.92-.08,1.37,.25,.13,.29,.14,.32,.38,.02,.14,.08,.19,.18,.24,.38,.18,.77,.29,1.2,.26,.24-.01,.52-.23,.71,.06,.38-.09,.72-.22,1-.46,.07-.06,.14-.06,.22-.08,.73-.2,1.46-.37,2.11-.77,.08-.05,.17-.09,.25-.13,.24-.11,.45-.26,.58-.5,.04-.08,.09-.14,.17-.16,.75-.22,1.32-.71,1.9-1.2,.45-.38,.84-.81,1.18-1.29,.17-.24,.38-.44,.56-.67,.31-.42,.51-.89,.75-1.34,.26-.49,.36-1.04,.54-1.55,.04-.11-.12-.09-.12-.17,.12-.06,.18-.15,.16-.28-.06-.33-.03-.64,.04-.97,.1-.45-.12-.85-.29-1.24-.06-.14-.04-.36-.12-.42-.18-.14-.22-.32-.3-.5-.04-.09-.09-.24-.16-.21-.21,.08-.28-.1-.4-.17h0ZM21.84,24.9c-.33,.11-.59,.28-.89,.35-.17,.04-.37,.04-.5,.13-.29,.22-.62,.3-.97,.36-.6,.09-1.14,.4-1.74,.5-.54,.09-1.06,.34-1.63,.28-.05,0-.11,0-.16,.03-.34,.14-.71,.17-1.07,.2-.61,.05-1.2,.2-1.82,.19-.19,0-.38,.1-.59,0-.05-.03-.13,0-.2,0-.3,.05-.6,.09-.9,.07-.33-.02-.66-.01-.98-.08-.37-.07-.75-.02-1.13-.15-.05,.13-.14,.22-.16,.37-.04,.26-.1,.53-.18,.79-.07,.23-.1,.48-.17,.7-.09,.3-.03,.62-.13,.92-.09,.28-.04,.59-.07,.88-.02,.19,.07,.42,.05,.64-.04,.44,.13,.86,.09,1.3,0,.04,.02,.08,.03,.12,.23,.78,.52,1.53,.95,2.22,.18,.28,.36,.57,.64,.75,.16-.06,.29-.14,.43-.18,.32-.09,.63-.23,.95-.34,.68-.25,1.35-.52,2.05-.7,.14-.04,.23-.19,.43-.13,.13,.04,.31-.14,.47-.2,.15-.06,.31-.1,.46-.15,.09-.03,.16-.1,.24-.15,.16-.09,.3-.26,.49-.28,.22-.02,.35-.15,.51-.28,.11-.1,.22-.21,.35-.28,.66-.37,1.07-1.01,1.63-1.49,.01,0,.02-.02,.03-.03,.39-.69,.99-1.25,1.38-1.94,.27-.48,.62-.93,.83-1.43,.22-.54,.52-1.03,.77-1.55,.2-.41,.32-.85,.51-1.27,.02-.04,0-.11,0-.19v.02ZM42.11,5.32c.06,.04,.1,.1,.14,.1,.52,.06,1.04,.18,1.57,.18,.07,0,.14,0,.2,.01,.59,.15,1.19,.23,1.8,.24,.24,0,.49,.06,.73,.07,.28,.01,.56,.08,.85,.11,.31,.02,.64,0,.93,.09,.46,.13,.92,.02,1.37,.11,.36,.07,.75,.04,1.12,.08,.45,.04,.91,.05,1.36,.04,.28,0,.55,0,.82,.06,.22,.06,.46,.05,.69,0,.05-.01,.11-.05,.15-.04,.48,.16,.98,.04,1.47,.07,.34,.02,.69-.03,1.02-.1,.41-.09,.83-.19,1.23-.21,.69-.03,1.28-.33,1.88-.57,.46-.19,.92-.45,1.25-.88,.12-.16,.28-.3,.43-.44,.37-.31,.37-.7,.26-1.11-.15-.56-.59-.83-1.07-1.02-.51-.21-1.04-.36-1.55-.57-.16-.07-.34-.1-.51-.1-.78,0-1.53-.2-2.31-.27-.59-.05-1.19-.1-1.78-.13-.54-.03-1.08-.04-1.63,.06-.65,.12-1.32,.09-1.98,.17-.68,.08-1.37,.11-2.05,.26-.77,.17-1.53,.35-2.23,.76-.36,.22-.78,.32-1.13,.6-.27,.22-.61,.38-.92,.55-.3,.17-.52,.45-.81,.61-.34,.18-.59,.45-.82,.72-.16,.19-.3,.4-.51,.57l.03-.02ZM8.08,26.73c-.1-.04-.21-.08-.33-.12-.26-.08-.51-.15-.78-.19-.31-.04-.59-.26-.89-.36-.36-.12-.7-.24-1.01-.47-.15-.11-.36-.11-.5-.26-.23-.25-.58-.37-.79-.67-.08-.12-.17-.31-.39-.36-.23,.2-.48,.42-.73,.64-.09,.07-.13,.17-.18,.27-.28,.49-.52,1-.85,1.46-.1,.14-.15,.3-.19,.47-.06,.22-.05,.45-.12,.67-.18,.52-.17,1.09-.26,1.63-.02,.12,0,.24,.03,.36,.07,.33,.16,.65,.2,.98,.07,.52,.27,.98,.51,1.43,.23,.44,.52,.86,.88,1.19,.66,.6,1.39,1.09,2.2,1.48,.2,.1,.42,.2,.66,.18,.32-.03,.61,.07,.91,.15,.71,.21,1.45,.31,2.19,.34,.08,0,.17,.03,.22-.07,0-.02,.01-.06,0-.08-.23-.34-.39-.71-.57-1.07-.23-.46-.36-.95-.53-1.43-.11-.3-.16-.63-.19-.95-.04-.36-.04-.73-.07-1.1-.06-.62-.05-1.25,.07-1.87,.13-.66,.29-1.31,.51-1.95,.04-.11,.08-.2,.04-.33l-.04,.03Zm4.66-5.21c.37,.16,.81,.19,1.1,.53,.05,.05,.17,.08,.25,.11,.19,.08,.43,.1,.57,.27,.07,.08,.13,.1,.22,.14,.37,.14,.65,.36,.74,.78,.07,.35-.26,.36-.39,.53-.1,.13-.24,.11-.37,.05-.01,0-.02-.02-.03-.03-.48-.25-.87-.61-1.34-.88-.46-.26-.92-.48-1.41-.66-.16-.06-.24-.04-.34,.1-.32,.45-.64,.89-.97,1.32-.17,.22-.34,.46-.47,.7-.18,.35-.43,.69-.53,1.08-.03,.12-.28,.14-.13,.34,.13,.04,.29,.02,.43,.02,.54-.02,1.09-.03,1.63-.02,.57,0,1.14-.02,1.71-.02,.45,0,.86-.15,1.27-.26,.56-.15,1.16-.1,1.69-.34,.07-.03,.16,0,.25,0s.19,0,.28-.03c.39-.13,.79-.26,1.19-.37,.17-.05,.3-.17,.49-.18,.28,0,.53-.13,.78-.24,.09-.04,.16-.08,.27-.09,.54-.04,1.05-.21,1.55-.41,.25-.1,.5-.2,.75-.29,.35-.13,.37-.16,.28-.53-.06-.25-.13-.49-.13-.76,.02-.63-.14-1.23-.38-1.8-.09-.21-.17-.42-.34-.59-.32-.33-.65-.65-1.06-.89-.3-.18-.64-.29-.98-.35-.11-.02-.26,.08-.38,0-.15-.11-.28,.14-.42,0-.33,.07-.65,.17-.98,.16-.02,0-.04,.07-.07,.09-.05,.04-.11,.08-.17,.11-.28,.1-.56,.19-.84,.28-.21,.07-.46,.11-.63,.23-.17,.12-.35,.19-.54,.26-.23,.08-.44,.19-.65,.33-.6,.39-1.21,.78-1.81,1.17-.06,.04-.11,.08-.1,.16v-.02ZM4.18,47.67c.42,.2,.81,.47,1.24,.67,.33,.15,.7,.16,1.04,.32,.11,.05,.23,.06,.35,.09,.53,.09,1.08,.12,1.59,.28,.66,.21,1.35,.28,2.02,.36,.59,.07,1.19,.12,1.79,.11,.3,0,.6-.05,.89,.07,.08,.03,.2,.03,.28,0,.22-.11,.46-.07,.69-.07s.41-.13,.63-.18c.34-.07,.68-.1,1.02-.14,.39-.04,.79,0,1.17-.16,.46,.12,.89-.12,1.34-.15,.4-.02,.8-.12,1.19-.2,.3-.06,.61-.11,.89-.22,.56-.23,1.14-.33,1.73-.43,.12-.02,.21-.05,.21-.2-.17-.06-.34-.1-.47-.23-.06-.05-.14-.11-.21-.11-.35-.03-.62-.26-.93-.38-.11-.04-.22-.1-.33-.14-.57-.21-1.17-.29-1.74-.49-.26-.09-.54,0-.79-.15-.15-.09-.31-.1-.47-.09-.11,0-.23,.02-.33-.02-.81-.24-1.66-.26-2.48-.39-.68-.11-1.37-.11-2.05-.09-.35,0-.71,.06-1.05,.11-.32,.05-.65,.09-.96,.12-.69,.05-1.38,.1-2.06,.17-.51,.05-1.01,.17-1.49,.34-.26,.09-.54,.05-.8,.11-.36,.09-.71,.26-1.07,.34-.45,.1-.68,.35-.83,.76h0Zm107.34-11.68c0,.17,0,.3,.08,.47,.1,.2,.24,.38,.35,.57,.15,.26,.34,.44,.6,.58,.2,.11,.37,.26,.53,.42,.29,.26,.6,.48,1.05,.38,.23-.05,.47-.05,.72,.04,.21,.07,.46,.09,.69,.05,.4-.05,.79-.16,1.16-.32,.66-.29,1.29-.63,1.73-1.28-.46-.29-1.02-.31-1.39-.67-.1,0-.16,.11-.25,.04-.31-.23-.68-.18-1.02-.13-.41,.07-.75-.05-1.04-.3-.07-.06-.13-.14-.21-.17-.15-.05-.2-.19-.26-.29-.17-.27-.04-.57,.29-.66,.08-.02,.14-.04,.18-.13,.09-.16,.26-.16,.42-.15,.08,0,.15,.02,.23-.02,.15-.08,.24,0,.33,.12,.14,.21,.22,.21,.43,.09,.65-.38,1.05-.98,1.35-1.64,.17-.37,.23-.8,.35-1.19,.11-.37,.06-.78,.23-1.14,.07-.15,0-.34-.16-.47-.25,.2-.5,.39-.64,.66-.05,.1-.12,.2-.22,.23-.46,.18-.67,.68-1.09,.9-.27,.44-.74,.68-1.09,1.04-.36,.37-.69,.78-1.13,1.07-.04,.03-.07,.08-.09,.13-.03,.07-.07,.12-.13,.15-.43,.2-.78,.48-1.03,.88-.01,.02-.04,.05-.06,.06-.37,.12-.56,.49-.91,.65v.03Zm10.68-9.9c-.08-.08-.17-.08-.18-.05-.07,.22-.32,.26-.44,.46-.16,.28-.42,.51-.66,.71-.28,.23-.46,.55-.81,.7-.07,.03-.1,.12-.13,.19-.07,.14-.16,.31-.29,.38-.22,.13-.38,.31-.56,.47-.14,.13-.17,.26-.09,.44,.08,.2,.1,.41,.13,.63,.03,.21-.04,.44,.01,.62,.14,.49-.03,.93-.11,1.39,0,.05-.02,.11-.05,.15-.13,.14-.16,.31-.19,.48-.02,.1-.05,.18-.09,.26-.21,.43-.44,.85-.65,1.28-.18,.38-.36,.76-.77,.94-.12,.05-.15,.17-.18,.28,.5,.23,1.03,.37,1.51,.64,.19,.11,.48,.12,.55,0,.33-.49,.74-.94,.94-1.5,.22-.62,.33-1.27,.63-1.86,.01-.02,0-.06,0-.08,.15-.45,.25-.91,.45-1.33,.13-.27,.23-.55,.27-.83,.09-.64,.19-1.28,.32-1.91,.04-.2,.15-.44,.08-.63-.07-.21,0-.38,.04-.54,.03-.15,.07-.29,.06-.44-.02-.3,.02-.59,.17-.87l.04,.02Zm-41.55-5.96c.3-.19,.56-.33,.79-.5,.35-.26,.7-.51,1.05-.75,.31-.22,.58-.48,.89-.7,.22-.15,.38-.38,.58-.55,.43-.36,.79-.79,1.21-1.15,.28-.24,.47-.56,.76-.78,.33-.25,.63-.55,.84-.91,.26-.45,.5-.92,.79-1.35,.42-.63,.6-1.33,.7-2.06,.03-.22-.01-.28-.25-.33-.3-.07-.53,.07-.73,.28-.13,.14-.24,.3-.42,.39-.11,.06-.18,.15-.25,.26-.09,.13-.22,.24-.33,.36-.21,.23-.44,.45-.64,.69-.38,.46-.76,.91-1.08,1.41-.06,.1-.19,.13-.25,.25-.35,.64-.87,1.15-1.25,1.77-.27,.45-.65,.83-.92,1.28-.1,.16-.12,.37-.22,.51-.28,.39-.49,.83-.81,1.2-.16,.18-.39,.34-.47,.71v-.03Zm-16.55,14.04c.08,.13,.17,.19,.29,.12,.21-.11,.43-.22,.62-.37,.55-.42,1.09-.86,1.62-1.31,.48-.42,.99-.83,1.4-1.32,.31-.37,.73-.65,.99-1.06,.2-.3,.44-.58,.6-.91,.3-.6,.5-1.22,.55-1.88,0-.08,.12-.17-.03-.26-.29,.09-.62,.14-.89,.3-.28,.16-.62,.21-.86,.44-.02,.02-.04,.04-.07,.04-.43,.1-.73,.4-1.05,.67-.61,.53-1.14,1.13-1.61,1.79-.15,.21-.39,.42-.35,.74,.01,.08-.07,.11-.1,.17-.16,.3-.34,.58-.45,.9-.12,.32-.29,.6-.44,.9-.09,.18-.16,.37-.16,.58,0,.16,.02,.32-.08,.45h.02ZM4.07,23.8c.2,.29,.49,.44,.74,.64,.35,.29,.78,.47,1.18,.69,.32,.18,.7,.33,1.11,.32,.31-.01,.65,.06,.94,.18,.18,.07,.3,.09,.45,0,.07-.35,.24-.63,.36-.95,.1-.29,.3-.53,.43-.81,.23-.5,.53-.94,.92-1.32,.13-.12,.21-.27,.18-.49-.3,.11-.59-.08-.88,.08-.06,.04-.16,.03-.24-.02-.07-.05-.16-.07-.23-.04-.32,.11-.66,.12-.99,.17-.58,.11-1.15,.25-1.71,.45-.44,.16-.89,.3-1.3,.54-.23,.14-.47,.27-.71,.38-.09,.04-.18,.04-.25,.17h0Zm61.78-12.15c-.42,.11-.4,.12-.73,.53-.18,.22-.32,.47-.55,.65-.06,.05-.12,.11-.15,.19-.17,.46-.45,.87-.78,1.21-.47,.47-.75,1.06-1.11,1.59-.4,.6-.73,1.25-1.19,1.82-.2,.24-.39,.52-.39,.87,0,.1-.08,.2-.13,.29-.4,.68-.81,1.36-1.22,2.05-.19,.32-.38,.64-.6,.95-.2,.27-.4,.56-.53,.98,.19-.21,.33-.33,.44-.48,.19-.26,.38-.54,.61-.75,.26-.24,.44-.53,.71-.75,.29-.24,.47-.59,.77-.83,.22-.18,.49-.35,.65-.6,.23-.37,.53-.68,.79-1.03,.23-.32,.5-.61,.73-.92,.33-.46,.6-.95,.92-1.41,.51-.72,.92-1.49,1.31-2.27,.15-.29,.34-.58,.42-.9,.09-.32,.24-.61,.41-.91-.16-.05-.24-.17-.37-.27h0Zm45.63,23.04c.44-.49,1.03-.74,1.42-1.24,.23-.3,.58-.49,.85-.76,.28-.29,.55-.58,.85-.84,.27-.23,.46-.52,.73-.73,.3-.23,.56-.5,.81-.79,.22-.25,.42-.53,.67-.77,.2-.19,.42-.46,.31-.8,.15-.11,.28,.14,.43,.01-.18-.27-.5-.14-.75-.25-.2,.13-.43,.16-.68,.09-.1,.1-.22,.16-.35,.21-.81,.3-1.5,.78-2.13,1.36-.58,.54-1.11,1.14-1.52,1.83-.13,.22-.31,.42-.38,.68-.06,.22-.15,.43-.2,.65-.09,.42-.27,.84-.07,1.35h0Zm-12.2-1.13c.11-.09,.23-.19,.36-.28,.31-.21,.63-.44,.92-.68,.37-.32,.74-.63,1.18-.85,.03-.02,.08-.05,.09-.08,.05-.29,.31-.34,.5-.47,.18-.12,.34-.25,.48-.41,.18-.2,.34-.42,.57-.57,.48-.32,.86-.73,1.11-1.25,.08-.16,.16-.34,.28-.44,.28-.22,.28-.57,.45-.84,.05-.08-.04-.19-.11-.17-.31,.1-.65-.02-.96,.14-.25,.13-.48,.3-.72,.44-.82,.45-1.45,1.12-2.09,1.78-.24,.25-.45,.54-.65,.82-.16,.22-.29,.45-.43,.68-.4,.63-.85,1.24-1.03,1.99-.02,.08-.03,.12,.06,.18h0ZM36.67,9.33c-.43,.31-.63,.66-.82,1.01-.09,.16-.13,.39-.26,.48-.38,.26-.58,.66-.77,1.02-.22,.41-.48,.81-.65,1.25-.08,.2-.17,.39-.26,.59-.12,.25-.23,.51-.37,.75-.31,.51-.45,1.1-.79,1.59-.06,.08-.17,.2-.07,.33,.19-.1,.26-.31,.4-.45,.36-.38,.66-.81,.95-1.25,.35-.54,.67-1.1,1.06-1.62,.17-.22,.38-.43,.47-.7,.09-.29,.23-.55,.41-.78,.11-.14,.15-.29,.19-.44,.04-.16,.1-.3,.17-.45,.18-.39,.27-.8,.35-1.32h-.01Zm88.39,10.38c-.19,.09-.37,.04-.57,.01-.09,.24-.21,.45-.38,.65-.28,.33-.49,.7-.6,1.12-.05,.21-.06,.42-.13,.63-.05,.15-.05,.33,.05,.57,.16-.4,.4-.67,.58-.97,.08-.13,.18-.25,.31-.31,.16-.08,.24-.21,.31-.36,.12-.24,.26-.47,.43-.68,.16-.2,.23-.42,0-.66ZM12.56,10.24c0,.5-.06,1.02,.08,1.52,.08,.29,.38,.5,.7,.51h.29c.09-.06,.12-.12,.15-.18,.26-.42,.24-.71-.14-1.06-.25-.23-.53-.44-.81-.65-.07-.05-.12-.16-.28-.14h.01Zm119.68,15.56c-.04-.13-.12-.15-.18-.2-.4-.38-1.05-.26-1.29-.03-.1,.09-.24,.19-.13,.34,.1,.14,.21,.33,.42,.25,.17-.06,.36-.03,.51-.09,.22-.08,.48-.09,.66-.28h0ZM7.21,15.54c.13,.32,.39,.51,.58,.75,.17,.21,.32,.26,.61,.22,.25-.04,.29-.08,.26-.29-.09-.08-.2-.14-.27-.23-.26-.3-.61-.42-.97-.55-.11-.04-.15,.03-.21,.11h0Zm108.61,28.6c-.12,.28,.13,.46,.21,.68,.15,.38,.46,.63,.85,.79,.06-.11,.03-.19-.02-.28-.14-.26-.25-.53-.38-.79-.21-.4-.19-.41-.66-.39h0Zm13.69-23.42c.14-.2,.33-.32,.55-.4,.21-.08,.34-.25,.46-.44,.11-.17,.3-.29,.25-.54-.13,.07-.28,.12-.4,.2-.25,.18-.49,.38-.74,.56-.11,.09-.17,.21-.23,.33-.05,.1-.03,.19,.11,.29h0Z"/><path class="cls-1" d="M39.05,50.2c.15,.25,.23,.46,.31,.67,.04,.12,.08,.25,.17,.36,.2,.26,.22,.57,.2,.89,0,.17-.1,.23-.26,.24-.35,.02-.67-.16-.82-.5-.05-.11-.17-.18-.19-.3-.13-.03-.17,.08-.24,.13-.21,.16-.59,.24-.86,.18-.22-.05-.45-.11-.67-.12-.21,0-.36-.21-.59-.14-.22-.31-.62-.39-.83-.73-.29-.47-.39-.99-.56-1.5-.13-.41-.02-.84-.16-1.24,.13-.47,.12-.99,.46-1.39,.06-.07,.11-.15,.15-.24,.28-.6,.81-.82,1.4-.9,.24-.03,.48-.17,.72-.08,.22,.09,.43,.23,.64,.35,.13,.08,.27,.12,.41,.16,.17,.05,.34,.1,.42,.28,.03,.08,.1,.08,.16,.1,.13,.05,.23,.13,.26,.29,0,.04,.02,.08,.04,.11,.19,.28,.35,.81,.37,1.18,.05,.65-.11,1.26-.36,1.85-.05,.11,0,.25-.15,.33l-.02,.02Zm-1.89-.15c.25-.37,.63-.3,.96-.34,.11-.31,.22-.6,.32-.89,.17-.51,.18-1.04,.03-1.56-.08-.29-.21-.58-.57-.66-.12-.03-.23-.09-.34-.13-.33-.12-.63,.03-.87,.2-.29,.22-.52,.51-.7,.85-.24,.44-.3,.91-.38,1.38-.06,.33,.08,.64,.18,.94,.16,.47,.42,.84,.93,1.03,.3,.11,.52,.06,.75-.11,.12-.09,.15-.19,.04-.31-.11-.13-.22-.26-.36-.41h.01Z"/><path class="cls-1" d="M46.81,51.54c-.33-.1-.55-.31-.77-.54-.07-.08-.12-.21-.04-.25,.3-.13,.31-.45,.46-.67,.2-.31,.37-.64,.65-.89,.12-.1,.16-.25,.21-.39,.18-.42,.44-.79,.68-1.18,.17-.27,.35-.52,.45-.85,.09-.33,.31-.63,.56-.87,.25-.23,.59-.29,.92-.2,.26,.07,.35,.33,.39,.57,.05,.33,.13,.64,.34,.92,.09,.11,.14,.27,.16,.41,.05,.41,.24,.76,.38,1.14,.1,.26,.16,.54,.2,.82,.02,.18,.12,.33,.17,.49,.09,.3,.24,.6,.11,.94-.1,.26-.32,.39-.56,.29-.31-.14-.62-.29-.55-.73,.02-.12-.07-.2-.13-.32-.4,.04-.81-.03-1.22,0-.42,.02-.84,0-1.24-.15-.15-.05-.29-.03-.36,.16-.11,.26-.29,.47-.36,.76-.05,.2-.21,.41-.45,.54Zm3.47-2.2c-.32-.7-.45-1.45-.76-2.18-.24,.19-.27,.49-.43,.69-.18,.23-.24,.51-.4,.74-.15,.21-.38,.38-.41,.69,.23,.06,.44,.03,.66,.03s.45-.03,.67,0c.2,.03,.4,.14,.67,.04h0Z"/><path class="cls-1" d="M106.3,49.51c.21-.07,.37,.02,.48-.12,.43,.2,.53,.46,.87,.87,.17-.07,.36-.05,.55-.05,.14,0,.24-.05,.26-.2,.02-.16,.15-.28,.17-.45,.03-.4-.16-.81-.54-.95-.22-.08-.37-.28-.62-.29-.01,0-.03,0-.04-.02-.21-.36-.65-.61-.62-1.1,.01-.19-.1-.34-.09-.52,0-.13-.08-.26,.02-.38,.11-.14,.22-.32,.38-.36,.31-.07,.6-.21,.91-.25,.32-.04,.65,0,.97,.07s.55,.22,.75,.54c.18,.29,.3,.57,.4,.9,.09,.29-.14,.5-.03,.73-.5,.27-.64,.13-.98-.12-.07-.05-.11-.12-.11-.21,0-.05,0-.14-.03-.15-.3-.1-.2-.39-.28-.58-.17-.41-.39-.48-.72-.17-.03,.03-.05,.06-.08,.09,0,.03-.02,.06-.01,.08,.13,.22,.03,.52,.2,.71,.16,.18,.44,.18,.63,.34,.26,.22,.58,.35,.81,.62,.12,.14,.24,.27,.24,.46,0,.11,.05,.19,.09,.27,.09,.17,.08,.33,.02,.51-.1,.29-.14,.62-.36,.84-.28,.27-.43,.67-.83,.83-.18,.07-.35,.13-.55,.12-.39-.02-.79-.02-1.14-.24-.2-.12-.41-.24-.56-.45-.18-.26-.31-.49-.17-.82,.06-.15,0-.35,0-.53v-.02Z"/><path class="cls-1" d="M91.56,49.72c-.19,.2-.39,.35-.47,.6-.02,.06-.07,.12-.12,.16-.32,.27-.68,.52-1.08,.62-.34,.1-.75,.02-1.07-.14-.37-.19-.77-.32-1.11-.56-.3-.21-.5-.5-.7-.78-.11-.15-.09-.39-.11-.59-.05-.46-.08-.92-.02-1.38,.03-.2,.07-.39,.2-.56,.07-.08,.09-.19,.13-.29,.16-.38,.42-.64,.82-.79,.29-.11,.59-.17,.9-.23,.52-.09,1.01,.05,1.43,.34,.35,.24,.63,.58,.93,.89,.08,.08,.1,.22,.13,.33,.09,.39,.18,.79,.25,1.18,.05,.3-.02,.6-.12,.88-.04,.12,0,.2,.02,.32h0Zm-.95-1.28c-.02-.1,.09-.17,.01-.3-.12-.21-.18-.44-.21-.69-.04-.31-.29-.51-.58-.41-.38,.14-.73,0-1.08-.05-.15-.02-.27,0-.36,.07-.18,.13-.3,.3-.35,.53-.11,.57-.09,1.12,0,1.7,.06,.41,.29,.62,.62,.76,.11,.05,.23,.09,.33,.15,.19,.12,.38,.1,.58,.02,.29-.12,.52-.34,.68-.58,.23-.35,.36-.76,.36-1.2Z"/><path class="cls-1" d="M97.62,48.21c.25-.15,.51,.07,.78,.02,.26-.05,.52-.12,.78-.19,.07-.1,.03-.21,.04-.31,.01-.21,.01-.43,.07-.64,.08-.36-.04-.72-.14-1.07,.11-.34,.44-.26,.66-.3,.25-.05,.52,.08,.73,.28,.04,.22,.05,.43-.16,.59-.09,.07-.07,.17-.07,.27,0,.44,.03,.89-.08,1.32-.05,.2,.09,.39,.03,.59-.06,.19-.04,.38-.03,.57,.04,.43-.08,.84-.1,1.26,0,.2-.1,.45-.34,.5-.22,.05-.46,.05-.64-.15-.06-.07-.13-.14-.2-.21s-.08-.15-.04-.23c.11-.18,.13-.38,.17-.58,.02-.11,.07-.2,0-.31-.06-.09,0-.18,.03-.27,.07-.26,0-.36-.27-.36h-1.3c-.04,.24-.11,.45-.05,.7,.04,.15-.02,.33-.03,.48,0,.29-.07,.58-.05,.87,.01,.2-.13,.32-.33,.34-.34,.04-.72-.22-.81-.54-.01-.05-.02-.11,0-.16,.12-.49,.16-.99,.15-1.49-.02-.93,.13-1.86,.09-2.79,0-.17,.07-.34,.11-.54,.27,0,.53-.09,.77,.14,.2,.18,.29,.43,.17,.67-.02,.04-.06,.08-.05,.11,.17,.43-.1,.85,0,1.28,.01,.06,.04,.1,.11,.14h0Z"/><path class="cls-1" d="M41.03,48.57c-.07-.66,.11-1.3,.09-1.96,0-.25,.08-.5,.07-.76,0-.15,.09-.21,.21-.26,.31-.11,.72,.12,.83,.42,.06,.16-.03,.29-.06,.42-.04,.17-.04,.35-.06,.52-.05,.36,0,.72,0,1.08,0,.24,0,.48-.06,.73-.08,.28,.06,.55,.12,.83,.04,.17,.1,.33,.12,.51,.04,.37,.25,.53,.63,.53,.16,0,.32,.02,.47-.03,.25-.07,.42-.26,.44-.53,0-.19,.09-.33,.18-.49,.15-.27,.17-.59,.19-.89,0-.19,.02-.42,.07-.58,.15-.47,.03-.93,.06-1.39,0-.08-.03-.16-.05-.24-.05-.17,.02-.3,.18-.38,.46-.23,.6-.2,.89,.23,.11,.16,.19,.31,.08,.52-.06,.12-.02,.3-.02,.45,0,.49-.12,.97-.14,1.45-.02,.57-.22,1.08-.37,1.61-.11,.4-.32,.76-.74,.95-.12,.05-.23,.07-.35,.08-.2,0-.41,.04-.6,.04-.23,0-.52,.02-.74-.12-.3-.2-.63-.35-.9-.59-.22-.2-.36-.44-.37-.74,0-.05,.02-.12,0-.16-.25-.39-.12-.82-.15-1.24h-.02Z"/><path class="cls-1" d="M105.04,48.41c.06,.17,.19,.26,.28,.37-.14,.4-.21,.44-.6,.47-.53,.04-1.05,0-1.57,0-.11,0-.22-.03-.34,.04-.05,.32-.11,.65-.17,.98,.22,.16,.65,.24,.9,.15,.41-.14,.82-.17,1.25-.11,.21,.04,.35,.17,.38,.35,.05,.29-.16,.53-.45,.45-.12-.03-.2,0-.3,.02-.35,.06-.69,.22-1.06,.1-.14-.04-.3,0-.45,0-.17,0-.35,.04-.52-.07-.04-.03-.12-.03-.16,0-.35,.2-.48-.1-.67-.28-.18-.17-.13-.38-.06-.57,.05-.12,.03-.24,.03-.36,0-.17,.03-.32,.08-.48,.11-.36,.14-.74,.17-1.12,.03-.46-.08-.93,.07-1.38,.01-.04-.04-.1-.04-.15-.04-.37-.06-.73,.24-1,.73,.12,1.44,.19,2.16,.06,.35-.06,.74-.05,1.1,.07,.16,.05,.29,.26,.28,.45-.01,.16-.15,.31-.33,.3-.46-.02-.91,.07-1.37,.04-.21,0-.42,.04-.64,.07-.03,.04-.05,.12-.11,.15-.3,.12-.29,.35-.28,.61,.01,.24,0,.49,0,.73,.42,.15,.82,.22,1.23,.12,.21-.05,.41-.11,.63,0,.08,.04,.19,0,.32,0h0Z"/><path class="cls-1" d="M81.37,49.73c.02,.12-.03,.29,.11,.43-.33,.3-.5,.71-.9,.91-.13,.07-.25,.17-.41,.15-.1,0-.18,.04-.27,.08-.48,.19-.96,.08-1.42-.06-.1-.03-.19-.08-.3-.1-.78-.17-1.27-.66-1.51-1.41-.06-.19-.12-.39-.31-.51,.17-.2-.04-.43,.07-.62-.14-.36,.05-.68,.17-.99,.19-.5,.45-.96,.85-1.32,.36-.33,.77-.47,1.28-.36,.29,.06,.6,0,.9,.02,.49,.02,.91,.22,1.27,.55,.18,.16,.22,.39,.3,.61,.04,.1-.04,.18-.14,.25-.13-.02-.23-.19-.42-.09-.11,.06-.21-.04-.27-.18-.14-.37-.29-.43-.69-.42-.23,0-.46,0-.69-.03-.38-.03-.59,.19-.79,.4-.34,.36-.52,.84-.74,1.29-.04,.08-.04,.16-.04,.24,0,.33,.04,.65,.17,.96,.09,.22,.17,.45,.3,.65,.04,.05,.05,.11,.13,.14,.47,.17,.93,.34,1.45,.17,.4-.13,.7-.35,.81-.76,.05-.19,.14-.24,.32-.24,.27,0,.52,0,.77,.26v-.02Z"/><path class="cls-1" d="M68.95,48.38c.01,.59-.03,1.14,.08,1.69,.03,.16-.02,.33,.01,.49,.05,.3-.16,.44-.33,.61-.04,.04-.1,.07-.15,.04-.24-.12-.52-.14-.7-.38-.11-.15-.1-.33-.05-.47,.07-.18,.06-.35,.06-.52,0-.26-.02-.53,0-.79,.02-.28-.05-.54-.13-.8-.03-.11-.05-.18,.06-.28,.13-.12,.09-.42-.04-.51-.25-.17-.41-.43-.61-.64s-.4-.42-.62-.6c-.13-.11-.19-.26-.29-.39s.04-.25,.1-.37c.41-.05,.78,.1,1.11,.29,.15,.09,.3,.28,.4,.43,.23,.36,.55,.61,.89,.9,.48-.34,1.03-.58,1.38-1.12,.16-.25,.41-.44,.68-.58,.08,.07,.18,.05,.27,.06,.18,.02,.38,.06,.41,.27,.03,.23,.08,.49-.18,.66-.03,.02-.06,.06-.1,.07-.41,.12-.62,.49-.91,.75-.24,.22-.45,.46-.77,.58-.1,.04-.18,.16-.23,.27-.08,.15-.18,.27-.36,.33h.02Z"/><path class="cls-1" d="M62.62,46.53c-.14,.04-.31,.14-.48,0-.03-.03-.1,0-.16,0-.43,.08-.91-.2-1.02-.58-.03-.11,.06-.28,.19-.37,.11-.08,.23-.09,.35-.07,.4,.05,.8,0,1.2,0,.23,0,.45-.05,.68-.1,.49-.1,.98,0,1.46,.07,.35,.07,.38,.25,.22,.58-.14,.28-.31,.42-.66,.38-.19-.03-.4,.11-.61,.17-.07,.67-.06,1.32-.08,1.98-.02,.65-.08,1.31,.03,2-.07,.16-.28,.2-.42,.33-.02,.02-.08,.04-.11,.02-.3-.1-.62-.2-.75-.54-.04-.1-.02-.21,.03-.31,.1-.23,.12-.47,.12-.72,0-.74,.12-1.48,.1-2.22,0-.12,.07-.26,.06-.39,0-.1-.02-.19-.14-.25v.02Z"/><path class="cls-1" d="M54.4,50.18c.29,.09,.56,.11,.87,.06,.4-.07,.82-.02,1.23-.02,.04,0,.08,0,.12,0,.21,.08,.43,.2,.46,.42,.03,.22-.2,.36-.36,.45-.13,.07-.29,.11-.5,.07-.45-.09-.93-.06-1.39,0-.12,0-.22,.06-.35,0-.07-.03-.16-.02-.24-.02-.14,0-.28-.03-.4,.05-.09-.16-.26-.16-.41-.22-.26-.1-.31-.18-.31-.45,0-.19,.06-.38,.1-.56,.06-.28-.02-.58,.12-.85,.05-.1,0-.25,0-.37,.02-.56,.15-1.11,.12-1.68,0-.24,.07-.49,.05-.74,0-.09,.04-.21,0-.28-.07-.16-.06-.3,.05-.4,.14-.13,.34-.21,.53-.18,.18,.03,.36,.1,.49,.26,.08,.09,.14,.2,.09,.29-.14,.24,0,.52-.14,.75,0,.02-.02,.06,0,.08,.14,.33-.02,.66-.02,.99s-.09,.7-.12,1.04c-.04,.43,0,.87,0,1.3h.02Z"/><path class="cls-1" d="M83.85,46.43c-.17,.4-.29,.79-.35,1.21-.05,.31,.09,.58,.05,.88-.02,.14,.14,.3-.06,.42,.06,.18,0,.38,.05,.55,.05,.16,.08,.3,0,.46-.07,.14,.04,.25,.22,.26h.49c.36,0,.71,0,1.07,0,.2,0,.37,.08,.56,.09,.13,0,.19,.09,.2,.22,0,.08,0,.17,.07,.23-.19,.24-.39,.34-.71,.35-.48,.02-.96,.08-1.44,.18-.34,.07-.74,.13-1.05-.17-.07-.07-.15-.05-.23-.06-.28-.04-.38-.28-.51-.48-.05-.08,0-.2,.06-.3,.11-.19,.26-.39,.12-.64-.07-.12,.07-.19,.06-.31-.04-.42,.04-.84-.05-1.26-.04-.2,.04-.42,.05-.63,.03-.48,.18-.94,.16-1.43,0-.12,.07-.21,.2-.22,.24-.02,.49,0,.72,.08,.08,.03,.14,.08,.15,.17,.02,.14,.1,.25,.17,.4Z"/><path class="cls-1" d="M91.76,46.24c.14-.38,.14-.41,.52-.38,.73,.06,1.45,.08,2.18,.08,.17,0,.32,0,.49-.02,.25-.04,.53,0,.74,.21,.17,.17,.12,.39,.07,.58-.05,.22-.33,.2-.45,.17-.18-.04-.39,.06-.52-.13-.12,.16-.16,.3-.16,.45,0,.24,.05,.49-.07,.73-.03,.05-.01,.14,.02,.2,.07,.12,.05,.23,0,.35-.03,.07-.04,.17-.01,.24,.08,.23,0,.43-.06,.65-.09,.29-.13,.6-.04,.92,.1,.36-.08,.72-.36,.87-.12,.07-.22,.09-.33-.02-.08-.07-.18-.12-.27-.18-.18-.12-.27-.33-.17-.5,.1-.16,0-.28,.01-.42,.08-.64,.29-1.27,.22-1.93-.02-.24,0-.48,.06-.73,.05-.2,.01-.43,.01-.65-.12,0-.17,.12-.33,.04-.15-.07-.39-.08-.57-.06-.45,.07-.71-.16-.98-.47Z"/><path class="cls-1" d="M59.98,46.36c0,.07,0,.14-.02,.2-.19,.45-.2,.92-.22,1.39-.03,.51,0,1.02,0,1.53,0,.09,.02,.17,0,.26-.09,.27,.03,.55-.04,.83-.12,.49-.43,.64-.82,.34-.06-.05-.14-.08-.2-.13-.13-.11-.23-.27-.18-.43,.19-.67,.11-1.35,.17-2.02,.04-.39,0-.78,.13-1.17,.05-.14,.03-.3,0-.45-.03-.21,.08-.4,.1-.6,0-.11,.11-.2,.21-.23,.24-.07,.5-.03,.71,.08,.13,.07,.16,.24,.15,.4h.01Z"/><path class="cls-1" d="M36.14,21.75c-.28,.02-.51-.11-.69-.28-.17-.16-.3-.38-.44-.57-.09-.12-.1-.23,0-.36,.11-.13,.2-.29,.28-.44,.26-.46,.62-.55,1.12-.41,.31,.09,.58,.28,.77,.56,.02,.03,.05,.07,.05,.11,0,.35-.13,.68-.32,.97-.05,.08-.18,.16-.27,.24-.18,.15-.27,.19-.52,.19h.01Z"/></g></g></svg>