<svg xmlns="http://www.w3.org/2000/svg" width="767.505" height="203.459" viewBox="0 0 767.505 203.459">
  <defs>
    <style>
      .cls-1, .cls-2 {
        fill: #fff;
      }

      .cls-2 {
        fill-rule: evenodd;
      }
    </style>
  </defs>
  <g id="グループ_15" data-name="グループ 15" transform="translate(0)">
    <g id="グループ_12" data-name="グループ 12" transform="translate(532.827 163.962)">
      <path id="パス_69" data-name="パス 69" class="cls-1" d="M841.079,339.2l.012,5.083H830.55a.907.907,0,0,0-.457.134c-.09.057-.179.12-.271.186s-.161.138-.211.2a2.686,2.686,0,0,0-.349.518c-.023.086-.062.181-.078.276a.61.61,0,0,0-.027.282v17.663a1.1,1.1,0,0,0,.105.515,1.049,1.049,0,0,0,.147.285,1.774,1.774,0,0,0,.217.233,3.245,3.245,0,0,1,.268.191,1.994,1.994,0,0,0,.23.156.736.736,0,0,0,.28.1,1.947,1.947,0,0,0,.253.021h10.4v5.13H825.188c-.2,0-.414-.006-.635-.028a2.541,2.541,0,0,1-.628-.106,2.284,2.284,0,0,1-.6-.191c-.216-.1-.427-.2-.622-.277a5.505,5.505,0,0,1-.527-.3,3.112,3.112,0,0,1-.452-.386,2.555,2.555,0,0,1-.453-.453,4.412,4.412,0,0,1-.354-.542,2.823,2.823,0,0,1-.316-.494c-.094-.19-.195-.382-.291-.585a4.5,4.5,0,0,1-.261-.619,4.7,4.7,0,0,1-.2-.672,4.05,4.05,0,0,0-.108-.625,6.118,6.118,0,0,1-.126-.668c-.023-.228-.049-.465-.07-.708a5.707,5.707,0,0,1-.012-.757l-.028-15.932c0-.261,0-.518.017-.781a4.893,4.893,0,0,1,.07-.683,3.743,3.743,0,0,1,.132-.654,3.4,3.4,0,0,0,.116-.685c.07-.233.158-.463.258-.709s.184-.465.265-.669a6.509,6.509,0,0,1,.291-.606c.124-.2.245-.384.352-.561.13-.14.239-.287.365-.433a4.074,4.074,0,0,0,.316-.427c.128-.113.259-.227.4-.344a3.058,3.058,0,0,1,.406-.3,5.34,5.34,0,0,1,.552-.321,3.309,3.309,0,0,1,.58-.233,4.6,4.6,0,0,1,.631-.156,3.216,3.216,0,0,1,.622-.063Z" transform="translate(-819.503 -339.203)"/>
      <path id="パス_70" data-name="パス 70" class="cls-1" d="M857.311,370.193V339.265h9.342v8.267h10.279a5.627,5.627,0,0,1,1.251.132,3.659,3.659,0,0,1,.579.213,5.246,5.246,0,0,1,.505.259,4.377,4.377,0,0,1,.474.322c.172.129.331.252.457.366.136.146.249.29.389.432.122.143.235.288.358.429a5.133,5.133,0,0,1,.318.475,2.783,2.783,0,0,1,.261.519,4.324,4.324,0,0,1,.249.555,3.477,3.477,0,0,1,.164.56,5.089,5.089,0,0,1,.219.737c.052.257.106.5.137.729.041.257.068.517.1.773a4.979,4.979,0,0,1,.065.738l-.008,15.426h-9.3V353.176c-.009-.057-.022-.124-.036-.217a1.441,1.441,0,0,1-.064-.212,1.854,1.854,0,0,1-.117-.2,2.12,2.12,0,0,0-.131-.188,1.266,1.266,0,0,1-.193-.134,1.642,1.642,0,0,0-.2-.128.5.5,0,0,0-.179-.086.808.808,0,0,0-.2-.039h-4.465a.591.591,0,0,0-.173.039.738.738,0,0,0-.18.086,2.248,2.248,0,0,1-.147.19c-.054.076-.1.142-.14.2a.564.564,0,0,0-.1.214.984.984,0,0,1-.107.217,1.259,1.259,0,0,1-.025.257.875.875,0,0,0-.053.216l0,16.8Z" transform="translate(-832.177 -339.224)"/>
      <path id="パス_71" data-name="パス 71" class="cls-1" d="M921.1,351.715c.167,0,.363,0,.543.016s.362.04.515.064a3.68,3.68,0,0,1,.514.136c.178.056.344.1.478.13a1.252,1.252,0,0,1,.451.165c.122.09.247.177.34.259a2.077,2.077,0,0,1,.385.344c.137.146.267.271.364.392a1.77,1.77,0,0,1,.291.451c.079.183.161.36.253.535.078.2.152.42.23.649a3,3,0,0,1,.174.727c.039.148.065.3.1.48a2.228,2.228,0,0,1,.033.513,2.971,2.971,0,0,0,.021.586c.016.213.016.422.016.621v10.728c0,.2-.016.415-.021.647a5.246,5.246,0,0,1-.043.6c-.015.2-.052.4-.084.582s-.071.368-.1.54a2.834,2.834,0,0,1-.153.576c-.073.19-.15.371-.237.544a1.6,1.6,0,0,1-.245.474,2.364,2.364,0,0,1-.276.389,3.647,3.647,0,0,1-.623.642c-.1.087-.226.18-.37.281a1.131,1.131,0,0,1-.394.193c-.17.059-.346.114-.521.177a4.881,4.881,0,0,1-.526.124c-.2.029-.392.052-.585.061a4.59,4.59,0,0,1-.548.028h-15.8a5.229,5.229,0,0,1-.58-.028,2.265,2.265,0,0,1-.6-.106,2.181,2.181,0,0,1-.591-.17c-.2-.086-.4-.171-.554-.257a4.012,4.012,0,0,1-.433-.284,1.743,1.743,0,0,1-.366-.324,3.058,3.058,0,0,1-.377-.365,2.148,2.148,0,0,1-.311-.406c-.056-.118-.131-.259-.223-.431a3.923,3.923,0,0,1-.229-.517,5.326,5.326,0,0,1-.184-.54,6.207,6.207,0,0,1-.139-.624c-.027-.114-.049-.23-.079-.344s-.043-.245-.061-.389a3.864,3.864,0,0,0-.018-.429,1.827,1.827,0,0,1,.009-.478l-.034-10.939c0-.2,0-.4.009-.578s.025-.366.034-.541a1.663,1.663,0,0,1,.028-.519c.033-.17.055-.326.071-.474.041-.221.124-.454.184-.687.079-.227.14-.445.2-.642a4.088,4.088,0,0,1,.249-.54,3.535,3.535,0,0,1,.318-.457,3.842,3.842,0,0,1,.339-.428,2.676,2.676,0,0,1,.366-.344c.13-.087.275-.177.426-.286a1.313,1.313,0,0,1,.427-.183,3.5,3.5,0,0,0,.481-.13,2.482,2.482,0,0,1,.443-.136c.148-.024.3-.048.472-.064a4.727,4.727,0,0,1,.474-.016Zm-5.59,4.475h-5.064a.344.344,0,0,0-.245.131,1.68,1.68,0,0,1-.123.173.737.737,0,0,0-.117.128.769.769,0,0,1-.06.193c-.035.071-.053.12-.041.151a1.02,1.02,0,0,0-.029.216.558.558,0,0,1-.039.169l.007,11.16a.9.9,0,0,0,.018.258.6.6,0,0,0,.092.217c.044.083.09.172.143.255a.458.458,0,0,0,.122.175.664.664,0,0,0,.152.195.7.7,0,0,0,.2.148.828.828,0,0,0,.4.131h4.431a.88.88,0,0,0,.213-.024.406.406,0,0,0,.182-.107,1.233,1.233,0,0,0,.23-.127.752.752,0,0,0,.161-.172.375.375,0,0,0,.169-.172.953.953,0,0,0,.087-.219,1.359,1.359,0,0,0,.115-.256.48.48,0,0,0,0-.219l.025-11.2a.662.662,0,0,0-.008-.216c-.027-.085-.044-.158-.06-.216a1.3,1.3,0,0,0-.15-.194c-.044-.067-.1-.135-.133-.195-.029-.027-.082-.071-.146-.13a.7.7,0,0,0-.187-.126c-.061-.023-.122-.06-.2-.086A.492.492,0,0,0,915.507,356.19Z" transform="translate(-846.656 -343.397)"/>
      <path id="パス_72" data-name="パス 72" class="cls-1" d="M963.656,351.645a2.824,2.824,0,0,1,.549.047c.2.023.36.056.528.08.2.064.377.115.583.178a2.221,2.221,0,0,1,.506.215,6.219,6.219,0,0,1,.777.493,3.491,3.491,0,0,1,.643.622,5.662,5.662,0,0,1,.43.586,5.393,5.393,0,0,1,.36.624,4.146,4.146,0,0,1,.344.771,5.686,5.686,0,0,1,.2.868c.043.169.087.354.122.557a4.064,4.064,0,0,1,.039.6c.021.2.049.418.06.642s.017.463.034.694v8.832c0,.225-.021.451-.034.666s-.012.422-.012.622c-.035.231-.065.444-.106.647s-.077.393-.118.56c-.051.2-.121.416-.182.647s-.158.443-.241.644a5.571,5.571,0,0,1-.257.582,2.181,2.181,0,0,1-.326.491,4.8,4.8,0,0,1-.318.433c-.121.149-.231.277-.336.389a3.871,3.871,0,0,1-.4.325c-.148.1-.285.191-.416.283-.209.08-.414.173-.61.259a2.325,2.325,0,0,1-.6.166,3.639,3.639,0,0,1-.588.129,4.315,4.315,0,0,1-.64.047H953.156l-.009,8.523h-9.242V351.645Zm-5.223,4.483H954.07a.756.756,0,0,0-.178.038c-.061.03-.117.056-.175.088a.691.691,0,0,0-.154.169.347.347,0,0,1-.151.174c-.027.06-.07.131-.1.219a.591.591,0,0,0-.092.211,1.117,1.117,0,0,0-.07.261.557.557,0,0,0-.017.214v11.2c.009.063.017.127.034.2s.031.134.04.195a1.831,1.831,0,0,1,.134.213.542.542,0,0,0,.109.172.5.5,0,0,0,.175.152,1.268,1.268,0,0,0,.2.106.234.234,0,0,0,.186.107,1.052,1.052,0,0,0,.192.024h4.262a1.017,1.017,0,0,0,.187-.024c.07-.015.125-.029.14-.057a1.216,1.216,0,0,0,.208-.11.621.621,0,0,0,.158-.154c.034-.056.079-.129.122-.216s.088-.159.118-.213a2.583,2.583,0,0,0,.123-.474l.007-11.291a1.763,1.763,0,0,1-.039-.215.59.59,0,0,0-.069-.216.482.482,0,0,0-.11-.189c-.057-.069-.1-.138-.144-.2a.583.583,0,0,0-.143-.125.479.479,0,0,0-.221-.132.488.488,0,0,0-.15-.088A.79.79,0,0,0,958.433,356.128Z" transform="translate(-861.204 -343.374)"/>
      <path id="パス_73" data-name="パス 73" class="cls-1" d="M1006.5,351.645a2.949,2.949,0,0,1,.558.047c.188.023.368.056.51.08.2.064.4.115.584.178a2.065,2.065,0,0,1,.514.215,6.072,6.072,0,0,1,.785.493,3.721,3.721,0,0,1,.641.622c.144.179.287.37.433.586.121.213.252.42.354.624a5.558,5.558,0,0,1,.345.771,6.943,6.943,0,0,1,.2.868c.039.169.069.354.119.557a3.4,3.4,0,0,1,.039.6,6.147,6.147,0,0,1,.059.642c.023.236.031.463.042.694l-.019,8.832a6.466,6.466,0,0,1-.023.666c-.009.211-.009.422-.021.622-.013.231-.061.444-.09.647-.044.2-.084.393-.124.56-.057.2-.116.416-.178.647-.082.23-.152.443-.24.644a6.074,6.074,0,0,1-.27.582,1.971,1.971,0,0,1-.317.491c-.087.152-.209.29-.31.433-.132.149-.241.277-.34.389a4.479,4.479,0,0,1-.409.325c-.13.1-.284.191-.416.283-.207.08-.408.173-.608.259a2.264,2.264,0,0,1-.589.166,3.689,3.689,0,0,1-.61.129,3.9,3.9,0,0,1-.623.047H996l-.014,8.523h-9.228l-.009-31.226Zm-5.232,4.483h-4.344a.575.575,0,0,0-.18.038,1.112,1.112,0,0,0-.178.088.61.61,0,0,0-.148.169.5.5,0,0,1-.152.174c-.029.06-.074.131-.117.219a.916.916,0,0,0-.093.211c-.025.084-.052.173-.073.261a.6.6,0,0,0,0,.214l-.022,11.2a1.438,1.438,0,0,0,.043.2,1.333,1.333,0,0,0,.044.195,1.256,1.256,0,0,1,.126.213.783.783,0,0,0,.127.172.388.388,0,0,0,.156.152c.084.046.159.078.21.106a.262.262,0,0,0,.178.107,1.1,1.1,0,0,0,.192.024h4.275a1.051,1.051,0,0,0,.183-.024.278.278,0,0,0,.153-.057,1.437,1.437,0,0,0,.186-.11.478.478,0,0,0,.162-.154c.035-.056.074-.129.126-.216a2.4,2.4,0,0,1,.117-.213,1.862,1.862,0,0,0,.12-.474V357.327c0-.053-.019-.126-.027-.215a.419.419,0,0,0-.074-.216.6.6,0,0,0-.1-.189c-.051-.069-.1-.138-.15-.2a.8.8,0,0,0-.138-.125.505.505,0,0,0-.217-.132.856.856,0,0,0-.157-.088A.748.748,0,0,0,1001.266,356.128Z" transform="translate(-875.565 -343.374)"/>
      <path id="パス_74" data-name="パス 74" class="cls-1" d="M1049.707,351.636a6.257,6.257,0,0,1,.693.043c.221.029.435.057.644.089.191.057.4.12.622.191a4.6,4.6,0,0,1,.651.279,3.009,3.009,0,0,1,.449.322c.144.136.257.254.366.369a3.325,3.325,0,0,1,.383.474,5.629,5.629,0,0,1,.315.517c.056.118.116.257.2.432a4.838,4.838,0,0,1,.174.474,4.968,4.968,0,0,0,.112.493c.04.189.069.364.089.537.029.229.055.484.063.754s.009.544.019.8v8.059h-15.669v2.453a1.022,1.022,0,0,0,.053.345,2.883,2.883,0,0,0,.108.347.87.87,0,0,0,.193.342,2.643,2.643,0,0,0,.24.3,2.31,2.31,0,0,0,.275.277.971.971,0,0,0,.3.194.846.846,0,0,0,.31.131,1.157,1.157,0,0,0,.3.043h12.962v4.437H1034.2c-.18,0-.37-.009-.588-.027-.2-.016-.4-.034-.587-.062a1.973,1.973,0,0,1-.568-.172c-.2-.088-.4-.173-.574-.255a2.391,2.391,0,0,1-.448-.261,3.364,3.364,0,0,1-.389-.346c-.1-.114-.208-.258-.331-.429s-.213-.345-.312-.517a1.978,1.978,0,0,1-.22-.41,4.756,4.756,0,0,1-.148-.5c-.048-.166-.086-.356-.14-.574s-.1-.426-.162-.626c-.006-.144-.015-.3-.036-.453s-.051-.309-.059-.451a4.179,4.179,0,0,0-.007-.54c-.013-.186-.034-.364-.055-.542l-.008-10.205c.008-.176.022-.344.035-.518a2.542,2.542,0,0,0,0-.473c.022-.145.035-.294.072-.456a2.379,2.379,0,0,0,.022-.451c.036-.227.094-.456.146-.691s.1-.442.144-.642a4.261,4.261,0,0,1,.227-.6c.092-.2.167-.38.236-.519.12-.175.229-.348.344-.517a1.87,1.87,0,0,1,.366-.429,3.415,3.415,0,0,1,.434-.346,2,2,0,0,1,.489-.259c.144-.056.3-.114.475-.174a3.033,3.033,0,0,1,.536-.126c.18-.032.348-.061.528-.089a3.981,3.981,0,0,1,.522-.043Zm-4.249,9.435-.008-3.577a.505.505,0,0,0-.008-.215c-.019-.08-.044-.156-.051-.213-.046-.087-.094-.173-.138-.263a1.926,1.926,0,0,0-.13-.213,1.273,1.273,0,0,0-.162-.176c-.066-.055-.116-.111-.187-.169a1.648,1.648,0,0,0-.2-.086.571.571,0,0,0-.182-.039h-4.458a.552.552,0,0,0-.21.039c-.047.028-.09.056-.146.086-.062.058-.13.114-.193.169a.683.683,0,0,1-.162.132,1.1,1.1,0,0,0-.112.214c-.065.088-.084.162-.132.218a1.13,1.13,0,0,0-.108.473v3.62Z" transform="translate(-889.919 -343.371)"/>
      <path id="パス_75" data-name="パス 75" class="cls-1" d="M1081.727,374.347h-9.347v-22.7h9.36l.026,2.024a1.2,1.2,0,0,1,.2-.344,2.041,2.041,0,0,1,.3-.305.564.564,0,0,0,.143-.129l.128-.166a.665.665,0,0,0,.2-.133,1.456,1.456,0,0,1,.166-.131,1.415,1.415,0,0,0,.223-.128c.074-.057.14-.116.2-.169a.9.9,0,0,0,.262-.126.7.7,0,0,1,.217-.13,1.424,1.424,0,0,1,.249-.09.95.95,0,0,1,.258-.046,1.478,1.478,0,0,1,.243-.064,1.231,1.231,0,0,1,.24-.016h5.581l-.007,6.281h-4.924a3.473,3.473,0,0,0-.7.071c-.222.041-.455.077-.636.107a3.612,3.612,0,0,0-.6.217q-.282.126-.52.257c-.069.055-.147.109-.23.174a1.357,1.357,0,0,1-.239.126.9.9,0,0,0-.175.219c-.057.086-.113.168-.171.253a.813.813,0,0,0-.2.283.8.8,0,0,0-.1.281,2.336,2.336,0,0,0-.091.368,1.8,1.8,0,0,0-.034.36Z" transform="translate(-904.271 -343.374)"/>
      <path id="パス_76" data-name="パス 76" class="cls-1" d="M1126.718,351.715l.014,4.174h-12.416a.415.415,0,0,0-.118.023.443.443,0,0,1-.154.021.7.7,0,0,1-.165.082c-.065.032-.124.063-.17.088a1.391,1.391,0,0,0-.134.111.337.337,0,0,0-.081.107c-.043.055-.068.114-.108.173-.007.056-.027.1-.015.128l-.02,1.25c.007.059.028.106.035.148s.049.084.1.109c.031.027.07.066.122.108s.09.08.118.11c.059.027.122.057.177.084a.246.246,0,0,0,.119.045,1.114,1.114,0,0,1,.218.022.576.576,0,0,0,.143.015h9.112c.13,0,.274.013.435.028a3.118,3.118,0,0,1,.426.064c.136.026.29.063.44.1.135.047.275.081.388.114a4.347,4.347,0,0,1,.416.189c.125.078.246.156.375.242.09.081.207.177.339.276a3.047,3.047,0,0,1,.335.321,3.436,3.436,0,0,1,.223.326c.1.132.17.254.24.364s.125.255.194.41a1.693,1.693,0,0,1,.161.454c.041.145.08.3.122.475a1.594,1.594,0,0,1,.115.516c.021.173.021.361.047.558a2.254,2.254,0,0,1-.016.646v5.3c0,.2-.01.4-.019.6-.025.2-.047.389-.078.56-.05.17-.1.354-.152.543a5.136,5.136,0,0,0-.157.536,1.588,1.588,0,0,1-.191.451,4.339,4.339,0,0,1-.258.411,1.811,1.811,0,0,1-.265.407,2.7,2.7,0,0,0-.28.364,2.115,2.115,0,0,1-.358.325c-.117.1-.234.194-.356.282s-.262.177-.392.277a1.694,1.694,0,0,1-.406.241,2.7,2.7,0,0,1-.522.215,3.963,3.963,0,0,1-.551.126,2.512,2.512,0,0,1-.566.106,4.511,4.511,0,0,1-.517.028h-17.838l.008-4.1h13.233a.983.983,0,0,0,.148-.019.429.429,0,0,0,.17-.063.645.645,0,0,1,.158-.088.377.377,0,0,0,.147-.13c.03-.026.075-.072.124-.11a.3.3,0,0,0,.078-.152.17.17,0,0,0,.081-.15.89.89,0,0,1,.041-.194l-.031-1.252c.031-.027.031-.064.014-.126a.583.583,0,0,0-.079-.17.315.315,0,0,0-.087-.132,1.016,1.016,0,0,0-.131-.128.632.632,0,0,0-.156-.106.531.531,0,0,0-.149-.069.378.378,0,0,0-.153-.062,1.5,1.5,0,0,0-.164-.019h-9.121c-.155,0-.334-.009-.509-.024s-.371-.035-.553-.064a3,3,0,0,1-.575-.15,5.377,5.377,0,0,1-.553-.238.924.924,0,0,1-.331-.172c-.1-.088-.209-.171-.306-.26a2.335,2.335,0,0,1-.312-.275,3.527,3.527,0,0,1-.253-.326c-.061-.084-.14-.186-.224-.3a.929.929,0,0,1-.148-.342c-.055-.118-.118-.247-.169-.389a2.614,2.614,0,0,1-.135-.389c-.026-.112-.052-.235-.087-.367a2.193,2.193,0,0,1-.034-.367c0-.112-.009-.245-.019-.383s.026-.292.01-.433V356.8c.009-.2.052-.4.07-.583s.038-.354.061-.493a5.36,5.36,0,0,0,.165-.521,2.88,2.88,0,0,1,.179-.469c.083-.117.157-.253.253-.415s.18-.293.262-.408a3.241,3.241,0,0,1,.27-.365,1.84,1.84,0,0,1,.339-.321,2.277,2.277,0,0,1,.38-.325c.126-.1.251-.191.353-.28a7.685,7.685,0,0,1,.856-.429c.171-.061.35-.115.542-.18s.392-.113.589-.166a4.98,4.98,0,0,1,1.076-.126Z" transform="translate(-915.121 -343.397)"/>
    </g>
    <g id="グループ_14" data-name="グループ 14" transform="translate(0 0)">
      <path id="パス_77" data-name="パス 77" class="cls-1" d="M390.836,94.9q-21.9,61.988-42.577,124.381c10.319-1.143,20.621-2.109,30.97-2.934q20.535-59.605,42.259-118.8Q406.171,96.024,390.836,94.9Z" transform="translate(-128.709 -93.346)"/>
      <path id="パス_78" data-name="パス 78" class="cls-1" d="M525.109,115.633c-7.007-1.807-10.514-2.682-17.538-4.356q-13.17,12.181-25.759,24.981-1.779-15.672-3.534-31.347-15.68-2.832-31.406-5.232,3.6,32.9,7.282,65.8Q432.011,191.162,411.23,217.9c6.985-.483,10.47-.647,17.42-.854q13.765-16.443,27.9-32.558,1.652,16.342,3.316,32.686,15.566.761,31.109,1.885-3.524-32.2-6.973-64.4Q504.137,134.685,525.109,115.633Z" transform="translate(-149.817 -94.949)"/>
      <path id="パス_79" data-name="パス 79" class="cls-1" d="M612.7,136.566q-6.408,18.063-12.675,36.178c-5.972-1.383-8.969-2.065-14.96-3.392q6.324-18.544,12.74-37.058-12.647-3.574-25.362-6.94Q555.429,176.5,539.254,227.915q12.812,1.178,25.564,2.73,6.888-21.19,13.875-42.336c6.009,1.141,9.006,1.734,14.994,2.944q-6.962,20.638-13.8,41.32,12.666,1.717,25.309,3.624,15.883-46.262,32.544-92.236Q625.219,140.23,612.7,136.566Z" transform="translate(-192.733 -103.556)"/>
      <path id="パス_80" data-name="パス 80" class="cls-1" d="M684,213.041q11.961,2.837,23.956,5.622c2.391-6.46,3.577-9.657,5.974-16.018q-11.974-3.1-23.916-6.25c2.5-6.959,3.75-10.412,6.256-17.257q12.234,3.574,24.5,7.069c2.331-6.214,3.5-9.3,5.835-15.42q-23.639-7.357-47.213-14.94-16.137,45.361-31.534,90.975,24.137,4.152,48.269,8.352c2.358-6.619,3.532-9.91,5.881-16.432q-12.628-2.518-25.253-5.1C679.657,225.33,681.1,221.208,684,213.041Z" transform="translate(-229.139 -113.777)"/>
      <path id="パス_81" data-name="パス 81" class="cls-1" d="M782.416,187.8q-11.371-3.27-22.725-6.739Q743.9,222.7,728.786,264.589q23.637,4.031,47.348,7.648c2.3-6.115,3.469-9.155,5.764-15.178q-12.215-2.046-24.4-4.348Q769.753,220.187,782.416,187.8Z" transform="translate(-256.267 -122.23)"/>
      <path id="パス_82" data-name="パス 82" class="cls-1" d="M878.033,213.287q-12.268,17.389-24.3,34.945,3.437-19.418,6.9-38.829-12.334-2.974-24.54-6.43-15.476,38.536-30.308,77.322c3.866.622,5.8.928,9.655,1.507q10.092-25.984,20.426-51.865-4.488,26.737-8.91,53.495c5.548.746,8.344,1.094,13.914,1.719q15.782-24.229,32.067-48.117-10.227,24.661-20.224,49.433,9.979.918,19.95,1.451,14.562-35.264,29.7-70.3Q890.143,215.785,878.033,213.287Z" transform="translate(-282.077 -129.575)"/>
      <path id="パス_83" data-name="パス 83" class="cls-1" d="M913.7,296.178c14.383,1.083,28.711,1.773,43.084,2.064,2.235-5.171,3.35-7.736,5.578-12.844q-11.355-.221-22.679-.923c2.745-6.433,4.108-9.625,6.843-15.946q10.751.976,21.521,1.348c2.257-5.052,3.386-7.557,5.651-12.543-7.166-.363-14.347-.929-21.5-1.7,2.362-5.395,3.545-8.069,5.913-13.376q11.014,1.38,22.042,2.109c2.214-4.874,3.317-7.294,5.512-12.09-14.143-1.533-28.2-3.487-42.3-5.872Q928.245,261.151,913.7,296.178Z" transform="translate(-318.251 -137.429)"/>
      <path id="パス_84" data-name="パス 84" class="cls-1" d="M1069.53,235.317c-16.287.77-32.491.832-48.862.189-2.281,4.939-3.418,7.436-5.693,12.449,5.59.291,8.406.382,14.039.457q-11.993,26.119-23.651,52.4,10.381-.54,20.758-1.66,11.628-25.635,23.561-51.109c5.663-.275,8.508-.466,14.206-.981C1066.155,242.326,1067.281,239.976,1069.53,235.317Z" transform="translate(-348.979 -140.417)"/>
      <path id="パス_85" data-name="パス 85" class="cls-1" d="M1109.464,240.937c.026-.033.047-.062.066-.084a3.633,3.633,0,0,0,.382-.359c.078-.091.136-.142.215-.236.1-.059.143-.088.24-.158s.214-.134.317-.2a2.353,2.353,0,0,0,.213-.1c.014-.005.014-.013.014-.015a.7.7,0,0,1,.142-.03q12.365-2.209,24.511-5.407c1.69-4.374,2.531-6.553,4.218-10.87q-17.51,4.178-35.46,6.688a9,9,0,0,0-1.163.234c-.366.1-.7.188-1,.275a1.43,1.43,0,0,0-.145.061l-.9.4c-.322.143-.636.291-.937.431a.492.492,0,0,0-.121.061c-.332.2-.647.412-.974.643s-.647.456-.98.711a.332.332,0,0,1-.068.054c-.259.225-.507.454-.785.681a6.646,6.646,0,0,0-.89.884,13.256,13.256,0,0,0-.946.979c-.312.353-.6.709-.893,1.06a.61.61,0,0,1-.078.084c-.217.334-.461.675-.71,1.036a11.444,11.444,0,0,0-.711,1.1c-.244.348-.469.733-.7,1.139a12.263,12.263,0,0,0-.548,1.128,8.216,8.216,0,0,0-.518,1.108c-.145.344-.282.679-.428,1.057-2.661,7.282-4,10.955-6.655,18.382a16.645,16.645,0,0,0-.687,2.365,12.1,12.1,0,0,0-.257,1.939,8.079,8.079,0,0,0-.069,1.054,3.663,3.663,0,0,0,.128.987,9.3,9.3,0,0,0,.491,1.4.76.76,0,0,0,.1.15c.1.119.209.263.309.41a2.645,2.645,0,0,0,.536.572.409.409,0,0,1,.117.074,3.362,3.362,0,0,1,.463.252,1.753,1.753,0,0,0,.8.306,3.413,3.413,0,0,0,.7.173,6.7,6.7,0,0,0,.869.07,9.022,9.022,0,0,0,.941-.039c.329-.026.641-.071.949-.126,6.806-1.211,10.231-1.921,17.084-3.533a.956.956,0,0,1,.205-.027c.053,0,.126,0,.179.005.01,0,.02.017.031.022.073.066.1.1.173.176a1.013,1.013,0,0,1,.139.168c.031.048.057.1.079.139-.779,2.116-1.173,3.177-1.952,5.306a.848.848,0,0,0-.056.208,2.7,2.7,0,0,1-.226.289,1.733,1.733,0,0,1-.24.251,3.005,3.005,0,0,1-.283.226c-.041.041-.066.056-.106.092a1.648,1.648,0,0,1-.227.166c-.124.071-.275.145-.444.228-.016.023-.034.027-.064.05a2.474,2.474,0,0,1-.306.141,1.38,1.38,0,0,1-.265.085q-12.005,2.915-24.243,4.9c-1.671,4.826-2.506,7.249-4.17,12.133q17.509-3.293,34.635-8.1a12.2,12.2,0,0,0,1.574-.577c.5-.22.966-.454,1.406-.682a7.825,7.825,0,0,0,1.647-.923c.558-.411.844-.619,1.407-1.025a20.2,20.2,0,0,0,2.193-1.975c.67-.672,1.322-1.391,1.951-2.134a.35.35,0,0,0,.074-.1c.228-.3.485-.647.788-1.042.33-.443.628-.867.884-1.256.245-.368.49-.771.745-1.2s.495-.869.768-1.344c.112-.241.264-.55.436-.909a7.025,7.025,0,0,0,.423-.982c.116-.269.253-.56.384-.883.151-.35.273-.684.352-.927,2.605-7.006,3.918-10.472,6.528-17.348.167-.445.3-.886.413-1.291.09-.361.18-.7.265-.991.074-.417.112-.626.171-1.044a5.541,5.541,0,0,0,.057-.975,3.346,3.346,0,0,0-.132-.806c-.072-.241-.107-.362-.18-.6a1.678,1.678,0,0,0-.255-.717c-.121-.191-.236-.37-.358-.535a.352.352,0,0,1-.07-.077,7.838,7.838,0,0,0-.639-.475,4.76,4.76,0,0,0-.778-.395,7.553,7.553,0,0,0-.77-.263,5.694,5.694,0,0,0-.911-.165c-.061,0-.088.005-.144.005a6.628,6.628,0,0,1-.749.008,6.37,6.37,0,0,0-1.06.01c-.348.038-.694.087-1.045.142s-.687.135-.99.207c-6.284,1.492-9.411,2.147-15.652,3.3a.956.956,0,0,1-.207-.1c-.009,0-.018-.013-.022-.013a.14.14,0,0,1-.013-.034l-.114-.241a1.038,1.038,0,0,1-.043-.13c-.009-.021-.022-.028-.056-.049.008-.076.025-.124.034-.207.641-1.75.964-2.621,1.62-4.362A.589.589,0,0,1,1109.464,240.937Z" transform="translate(-372.277 -136.449)"/>
      <g id="グループ_13" data-name="グループ 13">
        <path id="パス_86" data-name="パス 86" class="cls-1" d="M18,194.154c12.008-16.257,26.277-2.866,41.271-9.523-6.959,6.01-16.51,10.379-25.368,7.9C30.346,191.528,24.837,189.39,18,194.154Z" transform="translate(-18.002 -123.426)"/>
        <path id="パス_87" data-name="パス 87" class="cls-2" d="M218.632,119.656c.045-.12.078-.184.122-.31.045-.059.084-.121.131-.172a6.911,6.911,0,0,0,.849-.743c.175-.185.276-.282.458-.468.2-.12.3-.179.511-.3a6.275,6.275,0,0,1,.687-.35c.184-.07.266-.117.433-.192.025-.019.035-.019.043-.027a1.218,1.218,0,0,1,.265-.043q24.542-.863,49.069-.494,5.21-11.583,10.5-23.139c-23.75-.945-47.419-1.128-71.173-.447a13.277,13.277,0,0,0-1.528.174c-17.5,2.123-38.748,14.357-55.462,4.365,3.66,10.135,15.829,9.354,23.907,12.118,6.742,2.318,4.306,9.651-7.128,11.035-14.055,1.7-21.7-15.924-34.069-15.971-11.279-.043-28.3,11.963-39.252,1.792,5.467,8.245,15.912,10.468,25.1,9.161,8.366-1.189,14.151,1.432,12.435,8.627-2.052,8.646-12.888,11.3-20.787,9.458C99.87,130.5,85.048,138.6,75.9,148.905c9.765-5.137,23.458-11.918,33.227-4.513a29.5,29.5,0,0,0,29.22,3.587c6.178-2.654,22.561-7.944,22.3,2.026-.257,9.947-12.853,18.559-23.119,17.62-13.135-1.2-25.066-14.158-39.089-8.921-15.684,5.847-38.47,30.06-56.853,21.421,7.882,11.549,24.122,4.846,33.59-.25,7.128-3.845,28.325-12.13,29.58-.137.828,8.118-9.891,15.565-17.8,14.6-14.609-1.765-28.29,6.339-37.981,17.282,13.529-8.583,23.406-8.016,38.773-7.281,28.157,1.358,46.685-28.636,76.885-18.173a3.186,3.186,0,0,0,1.106.4c.2.076.4.146.6.225l.037-.018a6.2,6.2,0,0,0,.878.213,13,13,0,0,0,1.756.156c.593.008,1.246-.015,1.915-.07s1.318-.146,1.945-.267c11.634-2.026,23.242-3.782,34.961-5.276a1.906,1.906,0,0,1,.406-.015c.1.015.23.047.356.079a.115.115,0,0,1,.036.053c.131.191.2.294.328.484a2.132,2.132,0,0,1,.238.445,2.314,2.314,0,0,1,.135.343c-1.972,4.751-2.953,7.141-4.931,11.934-.066.187-.092.279-.158.465a6.048,6.048,0,0,1-.474.62,6.212,6.212,0,0,1-.553.509c-.235.2-.437.349-.575.453-.105.07-.144.107-.241.181a3.289,3.289,0,0,1-.479.333c-.275.128-.58.278-.938.42a.829.829,0,0,1-.142.068,4.382,4.382,0,0,1-.628.273,2.844,2.844,0,0,1-.559.134c-16.733,2.7-33.312,5.868-49.847,9.574-10.889,2.44-20.227-6.119-30.628-2.7-21.218,6.976-26.792,35.673-50.42,37.427,15.207,5.147,30.221-6.93,39.571-15.993,9.385-9.091,14.64,5.836,1.469,9.353-6.3,1.682-10.631,3.961-16.266,11.474,9.4-5,21-3.222,29.39-9.019,6.326-4.38,11.854-15.273,20.981-14.9q-.176.469-.351.938c-2.689,6.388-5.535,10.252-11.433,14.355a45.933,45.933,0,0,1,6.9-2.272l0,.006c23.513-6.192,47.3-11.561,71.152-14.97,16.654-2.369,28.1-15.13,34.268-29.949,5.23-12.555,9.736-25.55,14.559-38.363,4.944-10.046,1.794-24.974-12.222-23.322q-15.785.471-31.537,1.387a1.651,1.651,0,0,1-.376-.273.155.155,0,0,1-.048-.041.193.193,0,0,1-.022-.066,4.52,4.52,0,0,1-.188-.625c-.023-.122-.043-.187-.058-.312-.037-.043-.045-.062-.08-.108.036-.193.044-.294.07-.5C216.185,125.5,217,123.548,218.632,119.656Z" transform="translate(-25.909 -92.564)"/>
      </g>
    </g>
  </g>
</svg>
