<svg id="コンポーネント_1_8" data-name="コンポーネント 1 – 8" xmlns="http://www.w3.org/2000/svg" width="719.636" height="144.131" viewBox="0 0 719.636 144.131">
  <defs>
    <style>
      .cls-1 {
        fill: #f6f8f9;
      }
    </style>
  </defs>
  <path id="パス_50" data-name="パス 50" class="cls-1" d="M3.363,25.025l20.414-2.567q.663,9.983,2.7,15.212,3.315,8.462,9.473,8.462a7.781,7.781,0,0,0,7.081-4.326,19.769,19.769,0,0,0,2.487-10.03,19.685,19.685,0,0,0-2.368-9.7Q40.78,17.8,32.16,14,18.045,7.627,12.03-2.927,5.968-13.48,5.968-29.832a65.329,65.329,0,0,1,3.1-20.3q3.1-9.555,9.331-15.022t17.074-5.467q13.309,0,20.3,9.935t8.312,31.612L43.858-26.695q-.805-9.412-3.386-13.691a7.963,7.963,0,0,0-7.128-4.278,6.152,6.152,0,0,0-5.636,3.185,14.9,14.9,0,0,0-1.895,7.748,11.607,11.607,0,0,0,1.563,5.99q1.516,2.757,7.2,5.134,14.067,6.085,20.153,12.312A36.841,36.841,0,0,1,63.585,5.155a71.583,71.583,0,0,1,2.771,20.631A79.239,79.239,0,0,1,62.662,50.5Q58.967,61.818,52.336,67.665T35.617,73.512q-17.714,0-24.534-13.691T3.363,25.025ZM80.917-68.242h21.5V71.135h-21.5Zm35.022,0h23.634l12.314,42.878,11.936-42.878h23.4l-21.6,67.5,23.634,71.875H165.15L151.462,26.356,137.727,71.135H113.761L137.727-1.5Zm83.238,0h21.456v48.773h23.445V-68.242h21.55V71.135h-21.55V14.757H220.633V71.135H199.178Zm83.57,0h57.5v29.758h-36v22.152h33.391V12.095H304.25V39.571h37.038V71.135H282.747Zm73.008,0h21.456V36.814H410.7V71.135H355.755Zm67.371,0h28.229l10.894,84.805,10.846-84.805h28.134V71.135H483.7V-35.156L470.111,71.135H454.244L440.7-35.156V71.135H423.126Zm94.653,0h57.5v29.758h-36v22.152h33.391V12.095H539.282V39.571H576.32V71.135H517.779Zm68.129,0h65.219v34.416H629.246V71.135H607.79V-33.825H585.908Zm74.1,93.267,20.414-2.567q.663,9.983,2.7,15.212,3.315,8.462,9.473,8.462a7.781,7.781,0,0,0,7.081-4.326,19.769,19.769,0,0,0,2.487-10.03,19.685,19.685,0,0,0-2.368-9.7Q697.422,17.8,688.8,14q-14.114-6.37-20.129-16.923Q662.61-13.48,662.61-29.832a65.33,65.33,0,0,1,3.1-20.3q3.1-9.555,9.331-15.022t17.074-5.467q13.309,0,20.3,9.935t8.312,31.612L700.5-26.695q-.805-9.412-3.386-13.691a7.963,7.963,0,0,0-7.128-4.278,6.152,6.152,0,0,0-5.636,3.185,14.9,14.9,0,0,0-1.895,7.748,11.607,11.607,0,0,0,1.563,5.99q1.516,2.757,7.2,5.134,14.067,6.085,20.153,12.312a36.841,36.841,0,0,1,8.857,15.449A71.583,71.583,0,0,1,723,25.785,79.239,79.239,0,0,1,719.3,50.5q-3.694,11.314-10.325,17.161T692.26,73.512q-17.714,0-24.534-13.691T660.005,25.025Z" transform="translate(-3.363 70.619)"/>
</svg>
