<svg xmlns="http://www.w3.org/2000/svg" width="994.121" height="442.483" viewBox="0 0 994.121 442.483">
  <g id="background-logo" transform="translate(-435.148 0.131)" opacity="0.2">
    <g id="グループ_11" data-name="グループ 11" transform="translate(435.148 -0.131)">
      <path id="パス_53" data-name="パス 53" d="M173.922,346.789c1.542-.954,3.3-1.468,4.919-2.276,3.084-1.542,6.021-3.157,9.031-4.772a81.151,81.151,0,0,0,9.4-5.58A64.265,64.265,0,0,1,203,329.9c5.139-3.23,9.985-6.975,15.345-9.912a19.407,19.407,0,0,0,3.818-3.157c1.982-2.056,4.846-2.79,6.9-4.846,3.157-3.23,7.489-5.139,10.5-8.664,3.3-1.175,4.479-4.626,7.2-6.534a43,43,0,0,0,7.929-7.122c3.377-4.185,7.929-7.122,11.233-11.38a52.213,52.213,0,0,1,4.112-3.891c2.863-2.79,5.8-5.653,8.59-8.59a67.846,67.846,0,0,0,9.692-12.261,77.046,77.046,0,0,0,6.241-11.968c1.1-2.937,2.863-5.58,4.258-8.37a21.078,21.078,0,0,0,1.615-4.038,39.941,39.941,0,0,1,1.395-4.185,23,23,0,0,0,1.322-6.388,125.865,125.865,0,0,0,.661-12.922,23.07,23.07,0,0,0-.881-6.608,11.742,11.742,0,0,0-1.395-.808c-1.248-.587-2.276-1.762-3.965-1.468-2.2.441-4.552.734-6.167,2.643a6.055,6.055,0,0,1-2.423,1.689c-2.5,1.322-4.112,3.524-6.094,5.36-3.524,3.231-6.02,7.342-9.178,10.866-3.451,3.818-6.755,7.856-10.132,11.747a59.835,59.835,0,0,0-5.213,6.828,19.644,19.644,0,0,1-6.388,6.608c-.441.22-.954.661-1.028,1.028-.441,2.276-2.423,3.377-3.744,4.919-2.863,3.3-6.167,6.388-8.59,9.985a124.258,124.258,0,0,1-8.15,10.426c-.587.661-.661,1.836-1.322,2.276-3.157,1.982-5.066,5.286-8.223,7.2a10.779,10.779,0,0,1-3.891,1.395,15.63,15.63,0,0,0-1.982.587c-3.671,1.248-7.122.147-10.205-1.542-1.835-1.028-2.937-3.3-4.332-5.066-.22-.294-.073-.808-.073-1.175,0-1.909.587-3.744-.294-5.727-.367-.808.514-2.2.881-3.3a28.527,28.527,0,0,1,1.689-4.993c.587-1.175-.147-2.5.954-3.451.954-.808,1.1-2.2,1.909-3.01.954-.954.734-2.57,1.909-3.3a.513.513,0,0,0,.147-.294c.147-2.937,2.2-4.919,3.671-7.2s2.423-4.772,3.965-6.975a16.269,16.269,0,0,0,2.056-4.258,23.116,23.116,0,0,1,1.982-4.332c2.2-4.038,4.405-8.076,6.9-11.894,1.836-2.863,2.79-6.094,4.625-8.957,1.028-1.542,2.056-3.157,3.157-4.7,2.5-3.6,4.112-7.636,6.608-11.233.954-1.4,1.175-3.377,2.57-4.846,3.157,1.615,7.489.808,9.471,4.919a2.545,2.545,0,0,1-.587.808c-3.671,2.2-4.552,6.534-7.122,9.618.22,2.717-2.57,3.818-3.3,6.167-.661,2.129-2.276,3.891-3.3,5.874-3.3,6.534-6.975,12.849-9.912,19.53-1.468,3.3-3.671,6.241-5.58,9.324-1.615,2.423-3.6,4.626-4.258,7.709-.22,1.028-1.1,1.836-1.615,2.79l-4.185,8.15a9.005,9.005,0,0,1-1.248,2.349,4.58,4.58,0,0,0-1.175,3.6,7.149,7.149,0,0,1-.147,1.762c-.294,1.689.441,3.451,1.836,3.744,1.542.294,3.01.734,4.7-.514,4.772-3.6,9.031-7.415,11.894-12.849a19.505,19.505,0,0,1,3.818-4.772,134.1,134.1,0,0,0,9.838-10.573,102.683,102.683,0,0,0,7.415-9.471c1.615-2.276,3.6-4.479,5.286-6.681s3.671-4.112,5.433-6.167c.587-.661.441-1.468.881-2.2a27.876,27.876,0,0,1,4.7-5.507c2.79-2.423,4.846-5.653,6.975-8.737a11.8,11.8,0,0,1,3.3-3.3,42.229,42.229,0,0,0,5.433-4.112,13.4,13.4,0,0,0,3.157-3.891,6.041,6.041,0,0,1,4.405-3.231c2.717-.587,4.993-1.836,7.636-3.01a11.9,11.9,0,0,0,6.608,1.762,4.827,4.827,0,0,1,4.7,2.5,12.252,12.252,0,0,0,2.5,3.3,4.353,4.353,0,0,1,1.468,3.157c-.22,3.6,1.689,7.048.294,10.646.661,1.836.367,3.744.514,5.58a9.688,9.688,0,0,1-1.248,5.727c-.441.661-.881,1.322-.147,2.2,2.57-3.084,5.36-5.874,7.562-9.178,1.836-2.79,4.626-4.332,6.975-6.461,1.248-1.175,2.056-3.01,3.891-3.451a10.1,10.1,0,0,0,4.552-2.643c3.01-2.863,6.755-4.625,10.206-6.828,1.468-.954,2.643-2.2,4.405-3.01,2.643-1.175,5.507-1.395,8.223-2.276a6.425,6.425,0,0,0,1.175-.147c.954-.441,1.982-.954,3.01-.514,3.157,1.175,6.461,2.056,8.076,5.507a9.056,9.056,0,0,1,.881,3.744,53.17,53.17,0,0,1,.147,5.874,26.415,26.415,0,0,1-2.2,7.342,87.787,87.787,0,0,1-8.3,13.876c-1.395,1.982-2.57,4.258-4.993,5.433-2.129,1.028-2.79.954-3.6-1.4a10.775,10.775,0,0,0-.661-1.248c2.717-.881,3.451-3.377,4.846-5.36,2.5-3.524,4.479-7.415,6.828-11.087a14.563,14.563,0,0,0,2.349-7.562,4.271,4.271,0,0,1,.294-2.349c.808-1.468.22-2.5-.954-3.377-3.818-2.863-5.8-2.79-9.324,0a9.624,9.624,0,0,1-4.332,2.349c-1.322.294-3.01.661-3.671,2.276,0,.073,0,.294-.073.294-3.084.22-3.744,3.671-6.241,4.7-2.79,3.744-7.122,5.874-9.985,9.618a50.994,50.994,0,0,1-7.856,8.59c-1.836,1.468-2.79,3.965-4.405,5.874-2.056,2.423-3.3,5.36-5.36,7.856-.808.954-.954,2.5-1.615,3.744a55.192,55.192,0,0,0-4.919,11.747,41.029,41.029,0,0,1-1.909,4.625c-1.395,3.524-1.836,7.269-2.79,10.866-1.028,3.965,2.717,8.37,6.9,8.957a17.852,17.852,0,0,0,10.719-1.982,227.193,227.193,0,0,0,20.631-11.527,4.942,4.942,0,0,0,1.1-1.028c1.909-2.129,4.479-3.451,6.755-5.066,2.129-1.542,4.332-3.084,6.461-4.552l3.744-2.423c2.423-1.542,5.066-2.79,5.947-5.874.147-.514.734-.954,1.175-1.322.514-.441,1.1-.881,1.615-1.4,2.423-2.863,5.653-4.919,7.929-7.929a13.961,13.961,0,0,1,2.2-2.423,17.626,17.626,0,0,0,5.653-7.415c.514-1.175,1.615-2.056,2.423-3.157,2.129-2.863,4.846-5.286,6.021-8.737,2.863-1.909,3.671-5.286,5.653-7.783a70.6,70.6,0,0,0,5.947-9.471c1.762-3.157,4.112-6.094,5.36-9.545,0-.073.073-.22.147-.22,3.377-3.231,4.479-7.783,6.755-11.674,2.056-3.6,3.818-7.342,6.167-10.793,1.468-2.129,2.2-4.626,3.744-6.681a59.6,59.6,0,0,0,5.286-9.178,45.423,45.423,0,0,1,3.671-6.02,39.151,39.151,0,0,0,2.276-3.744c2.57-4.919,5.947-9.324,8.811-14.1,1.175-1.982,2.276-4.185,4.112-5.8a4.754,4.754,0,0,0,.587-.661,126.3,126.3,0,0,1,6.975-10.646c2.349-3.524,4.993-6.828,7.122-10.5a37.9,37.9,0,0,1,6.461-7.636c2.863-2.937,5.8-5.727,8.664-8.664a4.775,4.775,0,0,1,1.982-1.248,11.744,11.744,0,0,0,5.213-2.643,2.678,2.678,0,0,1,2.57-.587,28.286,28.286,0,0,1,4.185,1.468c3.6,1.836,4.626,4.332,3.524,8.517a58.606,58.606,0,0,1-4.919,12.922c-2.5,4.846-4.919,9.692-7.636,14.39s-4.993,9.692-8.884,13.656c-.587,2.5-3.23,3.671-3.965,6.094-.294,1.028-1.542,1.762-2.2,2.79-1.689,2.5-3.084,5.286-5.066,7.562-2.056,2.349-4.479,4.479-6.314,7.048-1.982,2.79-4.772,4.993-6.167,8.3-.808,1.909-2.717,3.01-4.112,4.552a46.859,46.859,0,0,0-5.727,6.9c0,.073-.073.22-.147.22-2.423,1.468-3.451,4.185-5.433,6.094a8.462,8.462,0,0,0-2.276,2.79,4.156,4.156,0,0,1-1.689,1.689,18.869,18.869,0,0,0-5.653,5.653,4.485,4.485,0,0,1-1.542,1.322c-2.717,1.836-4.552,4.7-7.048,6.828a7.781,7.781,0,0,0-.954,2.056c.881-.441,1.615-.514,1.982-.954a10.615,10.615,0,0,1,5.507-2.57,11.784,11.784,0,0,0,3.524-1.4c1.836-1.175,3.891-1.468,5.8-2.056,5.213-1.542,10.059,0,14.1,3.3,3.377,2.863,4.332,6.9,3.6,11.38a55.176,55.176,0,0,1-3.671,11.821c-1.248,3.157-3.3,6.02-5.066,9.031-1.468,2.5-3.01,4.846-4.258,7.489-2.5,5.066-5.8,9.618-8.664,14.537-2.57,4.479-5.58,8.664-7.342,13.509a13.169,13.169,0,0,1-1.468,2.863c-2.57,4.332-4.038,9.178-6.314,13.656-1.909,3.744-3.3,7.709-4.993,11.6-.44,1.028-1.395,1.615-1.982,2.643-1.836,3.23-2.643,6.755-3.451,10.352-.367,1.689-.514,3.377-.881,4.993a7.576,7.576,0,0,0,1.028,6.021c.734,1.248,1.689,1.468,3.01.734,4.7-2.5,8.664-6.094,13.142-8.957,2.349-3.524,6.167-5.433,9.1-8.3,1.836-1.836,3.818-3.524,5.727-5.213,1.982-1.689,3.23-4.185,5.8-5.286.881-.367.367-1.689,1.175-2.349,2.056-1.542,3.084-4.038,5.066-5.58,3.524-2.717,5.653-6.681,8.517-9.985a9.381,9.381,0,0,1,3.01-2.717c.661-1.1-.587-1.689-.22-2.5.147-.954,1.322-.367,1.762-1.395-.367-3.524.734-7.269.734-11.087,0-1.982.147-4.332,1.982-5.947.367-.294.22-.734.294-1.1a30.845,30.845,0,0,1,2.79-8.443,90.383,90.383,0,0,1,5.727-11.674,59.066,59.066,0,0,1,5.507-7.269,125.058,125.058,0,0,1,10.132-10.573,51.276,51.276,0,0,1,11.16-8.3c.881-.441,1.836-.734,2.717-1.1,3.744-1.322,7.416-2.863,11.38-3.157a38.744,38.744,0,0,1,9.178.734c2.643.441,3.818,3.01,5.286,4.919.441.587.294,1.762.22,2.643-.367,3.965-.661,7.856-2.349,11.527a5.586,5.586,0,0,1-.881,1.395,8.968,8.968,0,0,0-1.762,3.3c-.587,1.982-2.2,3.6-3.524,5.286-1.689,2.056-3.6,3.965-4.846,6.388a4.622,4.622,0,0,1-1.762,1.982c-3.3,1.909-5.139,5.213-7.709,7.929-2.349,2.423-4.405,5.213-7.636,6.461-.147,0-.367.22-.44.367-2.056,2.717-5.139,4.112-7.636,6.241a77.862,77.862,0,0,1-6.755,5.139c-3.084,2.2-6.461,4.038-9.545,6.314-1.175.881-2.5,1.542-3.744,2.349a1.712,1.712,0,0,0-.734,2.2,24.578,24.578,0,0,1,.808,4.038c.294,3.084,2.129,5.433,4.038,7.783a2.638,2.638,0,0,0,2.349,1.028,28.117,28.117,0,0,0,7.342-1.028c2.643-.881,5.433-1.322,8-2.57,3.3-1.689,6.755-3.3,9.618-5.8,1.322-1.175,2.79-2.276,4.185-3.3a15.412,15.412,0,0,0,4.185-4.258,7.74,7.74,0,0,1,1.762-1.982c3.377-2.57,5.58-6.094,8.223-9.251,1.762-2.056,3.451-4.405,6.094-5.507,1.615-.661,1.909-2.2,2.717-3.377,1.028-1.615,1.762-3.377,3.3-4.552a2.252,2.252,0,0,0,.954-1.762,2.259,2.259,0,0,1,2.5-2.423c1.1,0,1.542-.661,1.909-1.615.734-1.615,1.615-3.23,2.2-4.846,2.129-5.874,4.919-11.38,7.489-17.034a67.134,67.134,0,0,1,5.066-9.985,63.823,63.823,0,0,0,3.23-6.314c3.157-6.094,6.314-12.114,10.719-17.4a86.632,86.632,0,0,0,5.36-8.15.661.661,0,0,0,0-.808,33.815,33.815,0,0,0-8.517,1.762,10.921,10.921,0,0,1-2.643.367H544.476a8.4,8.4,0,0,1-3.745-.808c-1.835-.808-3.744-1.322-5.507-2.056a33.359,33.359,0,0,1-6.534-4.038,21.709,21.709,0,0,1-6.241-6.167,8.708,8.708,0,0,1-1.835-5.8,8.213,8.213,0,0,0-.367-2.643,6.459,6.459,0,0,1,.44-5.213,9.873,9.873,0,0,0,1.028-3.671,11.753,11.753,0,0,1,3.377-6.461,7.553,7.553,0,0,0,1.468-2.276,26.608,26.608,0,0,1,10.352-11.821c3.818-2.5,7.783-4.993,12.335-6.094a66.8,66.8,0,0,0,8.737-2.57c3.671-1.322,7.489-1.542,11.233-1.836,4.552-.367,9.251-1.248,13.73.22,2.276.734,4.846,1.028,6.241,3.451.587.954,2.056.881,2.57,2.349-.514.587,0,1.836-1.322,2.349-.881.294-1.615.881-2.717.441-1.028-.367-1.468.954-2.423,1.1-1.909-1.248-4.479-.514-6.534-1.689-1.175.881-2.79.147-3.965,1.028a2.522,2.522,0,0,1-3.01-.147c-2.276-1.762-4.919-1.322-7.2-.734-4.185,1.028-8.517,1.836-12.408,3.891a38.975,38.975,0,0,0-9.178,6.241c-1.836,1.762-4.112,3.01-5.947,4.7-2.423,2.349-4.993,4.772-5.947,8.223-.514,1.689-1.175,3.377-1.689,5.066a13.83,13.83,0,0,0,.514,10.132c1.248,3.157,3.965,4.626,6.534,6.167,2.863,1.689,6.094,1.982,9.4,2.276,4.405.441,8.517-1.028,12.7-1.909,2.2-.441,4.552-.661,6.608-1.615,2.423-1.1,4.993-1.175,7.562-1.689a11.235,11.235,0,0,0,8.223-6.534c1.762-3.671,4.038-6.9,6.094-10.352,2.129-3.451,3.965-7.048,6.167-10.5,1.689-2.643,3.744-5.066,5.58-7.636a51.786,51.786,0,0,0,5.507-9.1c.734-1.615,2.276-2.79,3.3-4.258,1.542-2.2,3.157-4.332,4.552-6.681.441-.734,1.175-1.028,1.689-1.542,2.423-2.423,4.112-5.433,6.388-7.929,2.129-2.276,3.451-5.36,6.094-7.2,2.717-1.836,4.185-4.993,6.9-6.755,2.129-1.395,3.451-3.744,5.8-4.772,2.863-1.322,5.653-2.129,8.884-1.1,3.084.954,6.021,2.056,8.076,4.626.661.881,1.689,1.762.881,3.157-.22.367.22.734.294,1.1a12.271,12.271,0,0,1-.294,5.874,39.011,39.011,0,0,0-1.836,7.122,9.165,9.165,0,0,1-2.129,4.772A6.406,6.406,0,0,0,651.67,102c-.808,2.717-2.57,4.846-4.038,7.2s-3.451,4.332-4.993,6.681c-1.028,1.615-2.937,2.717-3.6,4.332-1.248,3.01-4.112,4.332-5.874,6.755a22.339,22.339,0,0,1-6.828,5.947,21.247,21.247,0,0,0-3.451,2.79,116.373,116.373,0,0,1-13.8,11.013c-3.965,2.643-8.3,4.993-12.335,7.489-3.671,2.349-7.562,4.332-11.38,6.388a8.047,8.047,0,0,0-2.937,2.937c-2.129,3.231-4.185,6.608-6.314,9.838-2.717,4.038-4.625,8.59-7.122,12.849-1.322,2.276-3.157,4.258-4.332,6.608a68.593,68.593,0,0,1-3.377,6.534c-2.423,3.744-4.625,7.636-6.828,11.454-1.322,2.276-2.349,4.846-3.671,7.2-1.909,3.3-3.01,7.048-4.7,10.5-1.322,2.57-1.4,5.507-2.863,8.076,1.028,2.5-.881,4.112-1.762,6.167-1.1,2.717-1.615,5.653-2.5,8.517-1.1,3.6-1.542,7.342-2.276,11.013a38.435,38.435,0,0,0-.808,9.251c.073,2.717.881,4.625,3.524,5.58a23.346,23.346,0,0,0,11.233-8.811c.954-1.468,2.57-2.423,3.744-3.671,3.3-3.6,6.608-7.2,9.618-11.087a62.283,62.283,0,0,0,5.36-7.122c1.542-2.643,3.965-4.405,5.8-6.828a50.526,50.526,0,0,1,7.636-7.709c1.689-1.542,3.891-2.5,4.552-4.993,3.671-2.276,5.433-6.608,9.471-8.59,1.982-1.028,3.377-3.084,5.139-4.552a51.186,51.186,0,0,0,5.653-4.919c.954-1.1,2.423-1.395,3.451-2.276,1.982-1.615,3.891-3.377,5.874-4.993,2.5-1.982,5.433-3.157,8.15-4.625a1.329,1.329,0,0,1,1.175-.073c2.276,1.175,5.139.954,7.269,2.5a8.862,8.862,0,0,1,3.671,8.37c0,.441-.367.881-.073,1.542a4.545,4.545,0,0,0,1.689-1.4c1.836-2.5,4.552-4.038,6.828-6.167,1.1-1.028,2.717-1.028,3.891-2.056a17.813,17.813,0,0,1,4.552-2.717c2.349-.954,4.7-1.762,7.416-.881,1.982.661,4.112.954,6.021,1.982a8.624,8.624,0,0,1,2.643,1.982,4.974,4.974,0,0,1,1.542,3.084,22.765,22.765,0,0,0,1.248,5.139c.294.661.073,1.395.44,2.2,1.248-.954,2.276-2.129,3.451-3.084,2.79-2.2,6.094-3.524,9.178-5.286,3.891-2.2,8.223-2.643,12.482-3.451a11.679,11.679,0,0,1,7.048.514,5.22,5.22,0,0,1,3.3,5.213,49.22,49.22,0,0,1-.294,6.534c-.294,1.836,0,3.818-1.322,5.433-.441.514.22,1.028.147,1.615-.294,2.937-1.542,5.507-2.643,8.15-2.276,5.727-5.727,10.866-8.737,16.153-2.57,4.552-5.507,8.957-7.783,13.656-2.937,5.947-5.8,11.968-8.37,18.061-1.836,4.332-3.451,8.737-5.653,12.922a33.987,33.987,0,0,0-3.157,9.178c-.367,2.056.661,3.818,1.762,5.653,3.671-2.349,7.562-4.112,10.866-6.975,3.084-2.643,5.433-5.8,8-8.737,1.689-1.836,3.01-3.965,4.552-5.874,1.836-2.349,3.671-4.919,6.021-6.755,1.4-1.1,1.615-2.643,2.643-3.818,2.129-2.349,4.258-4.772,6.314-7.269,2.423-3.01,4.258-6.461,6.388-9.618,1.909-2.79,2.5-6.021,3.524-9.1,1.615-4.625,2.937-9.4,5.8-13.509.514-.734.44-1.468.881-2.2a35.735,35.735,0,0,1,3.451-4.772,56.448,56.448,0,0,0,4.479-5.874,28.3,28.3,0,0,1,5.58-5.874c1.175-1.028,2.276-2.2,3.377-3.3a45.31,45.31,0,0,1,8.81-7.048c2.129-1.322,4.038-3.084,6.461-4.038a19.5,19.5,0,0,1,13.363-.954,20.084,20.084,0,0,1,5.874,2.643c1.762,1.248,1.982,3.157,3.231,4.479.441.441.294,1.615-.073,2.349-1.836,3.3-3.084,6.975-5.947,9.692-.881.808-1.1,2.056-1.836,3.01a34.787,34.787,0,0,1-6.534,6.608c-3.01,2.423-5.507,5.507-8.443,8a1.079,1.079,0,0,1-.881.294c-.587.147-1.4.22-1.615,1.028-.514,1.689-1.909,2.349-3.3,3.157a11.848,11.848,0,0,0-3.745,2.937c-1.762,2.349-4.625,3.377-6.755,5.286a56.021,56.021,0,0,1-6.828,4.993c-1.909,1.248-3.744,2.57-5.58,3.965-.22.147-.661.22-.734.441-.587,1.836-1.982,2.57-3.745,3.157,0,3.744-.294,7.415.147,11.013a12.806,12.806,0,0,0,2.717,6.021c2.2,3.01,5.727,3.524,8.957,4.038,3.671.587,7.2-.441,10.646-1.982a40.874,40.874,0,0,0,12.408-9.031c1.762-1.762,3.377-3.6,5.213-5.213a18.671,18.671,0,0,0,5.507-7.342c.881-2.129,2.937-2.863,4.552-4.038,1.982-1.468,4.185-3.157,4.479-5.507.294-2.2,1.468-3.965,2.349-5.653,1.175-2.276,1.762-4.772,3.231-6.9,2.2-3.3,3.3-7.122,5.066-10.646a11.125,11.125,0,0,1,2.349-3.744,2.953,2.953,0,0,0,.881-1.542c.881-3.744,3.524-6.534,5.139-9.912.881-1.909,2.643-3.451,2.937-5.653-.661-.734-1.395-.514-2.056-.514a5.882,5.882,0,0,1-5.286-2.276,4.011,4.011,0,0,0-2.129-1.468c-1.615-.441-2.056-2.056-2.5-3.377a1.437,1.437,0,0,1,1.248-1.982,6.126,6.126,0,0,0,2.57-.734c1.542-.734,3.084-1.028,4.479.22a1.979,1.979,0,0,0,1.982.367,20.9,20.9,0,0,1,6.388-.514,2.017,2.017,0,0,0,2.056-1.4c1.762-3.818,3.891-7.415,5.58-11.307,2.129-4.919,5.58-9.1,7.856-13.877a74.575,74.575,0,0,1,7.048-11.894c1.4-1.909,2.423-4.038,3.745-6.02.147-.22.514-.514.44-.734-.44-1.909,1.322-3.01,1.468-4.7.954-.441,1.909-.147,2.717-.294a6.7,6.7,0,0,1,7.342,3.6,5.39,5.39,0,0,1-1.762,2.863c-.661.661-1.322,1.248-1.175,2.276a2.187,2.187,0,0,1-.587,1.322c-1.836,1.982-3.01,4.332-4.479,6.534-2.056,3.157-3.745,6.461-5.507,9.765s-3.451,6.608-5.286,9.838a64.462,64.462,0,0,1-4.332,7.2c-1.542,1.982-1.982,4.479-4.038,6.02,1.468,1.468,2.717.294,3.745,0a8.227,8.227,0,0,1,7.416.808,16.433,16.433,0,0,1,2.643,2.423c0,.881-.808,1.395-1.1,2.056a6.133,6.133,0,0,1-5.727,3.965,8.083,8.083,0,0,0-2.937.367c-1.909.808-3.744-.22-5.507-.587-2.276-.441-2.056-.441-3.6,1.248a15.911,15.911,0,0,0-2.423,4.7,104.383,104.383,0,0,1-5.727,11.013c-3.01,5.066-5.286,10.5-7.929,15.785-1.615,3.157-2.937,6.461-4.772,9.471-.367.587-.661.954-.147,1.542a.744.744,0,0,1-.147,1.1c-1.689,1.248-1.836,3.231-2.423,4.993-1.248,3.744-2.717,7.415-3.6,11.307a22.781,22.781,0,0,0,.294,11.747c.514,1.615,1.028,1.762,2.79,1.615,3.818-.294,6.975-2.2,9.765-4.552a91.033,91.033,0,0,1,8.37-6.755c3.377-2.276,3.377-4.993,3.084-8.3-.147-1.762-.587-3.451,0-5.286a8.317,8.317,0,0,0,.073-3.3,16.946,16.946,0,0,1,2.056-8.811c.734-1.322.441-3.157,1.615-4.332a13.281,13.281,0,0,0,2.423-4.185c1.4-2.79,2.717-5.653,5.139-7.929,3.6-3.377,7.122-6.681,11.013-9.692,1.615-1.248,3.377-2.423,5.139-3.524,1.468-.954,2.423-2.57,4.038-3.3,1.615-.808,3.377-1.248,4.552-2.717.661-.881,1.689-.441,2.5-.734a45.6,45.6,0,0,1,5.433-1.468,6.727,6.727,0,0,1,2.423-.073c3.3.587,6.681.734,9.838,1.835a9.575,9.575,0,0,1,3.891,2.79c5.653-5.653,11.968-10.352,17.474-16.006,3.231-3.3,5.507-7.269,8.37-10.866.881-1.1.514-2.276.367-3.451-.514-4.552-.661-7.929.734-11.527a36.8,36.8,0,0,0,1.762-8.076,18.135,18.135,0,0,1,3.01-7.636c.147-.147.367-.294.367-.441.587-3.818,4.038-4.993,6.534-6.975a67.026,67.026,0,0,1,6.167-3.891,5.707,5.707,0,0,1,3.818-.881c2.717.22,5.36.294,7.783,1.689a3.459,3.459,0,0,1,2.056,3.01,24.378,24.378,0,0,1-2.129,11.6,28.673,28.673,0,0,1-5.066,7.929c-2.937,3.157-5.14,6.9-7.783,10.279a60.572,60.572,0,0,1-6.975,8c-1.468,1.322-1.1,3.157-1.468,4.7a24.118,24.118,0,0,0-.22,7.636c.147,1.909.147,3.891.147,5.8v5.727a54.9,54.9,0,0,1,0,6.021,130,130,0,0,1-3.01,15.051c-1.028,4.112-1.762,8.3-2.937,12.335-.294,1.175-.881,2.2-1.248,3.3-1.1,3.451-2.349,6.9-3.377,10.352a45.98,45.98,0,0,1-7.489,14.611c-1.468,1.982-2.79,4.038-4.185,6.021,3.744,3.01,8.076,3.524,12.555,3.965,6.975.734,13.95,1.028,21,1.248a40.952,40.952,0,0,0,7.416-.808,43.382,43.382,0,0,0,10.059-2.276c3.084-1.1,6.167-2.129,8.59-4.479a5.38,5.38,0,0,1,1.689-1.175c3.818-1.762,7.048-4.332,10.5-6.681a12.842,12.842,0,0,0,2.5-2.79,26.1,26.1,0,0,0-3.6-6.608,7.389,7.389,0,0,0-3.157-2.643c-2.129-.881-4.185-1.836-6.241-2.717a10.526,10.526,0,0,0-5.433-.661c-2.5.294-4.919,0-7.416.514a38.706,38.706,0,0,0-9.692,4.405c-1.689,1.175-3.01.808-3.891-1.175-.294-.587-1.1-.514-1.1-1.175.22-1.836,1.248-2.717,2.79-3.524,2.276-1.175,4.625-2.056,6.681-3.671,1.1-.954,3.3-.661,4.993-.808,1.175-.147,2.349-.22,3.524-.441a18.369,18.369,0,0,1,9.765.808,30.412,30.412,0,0,1,11.454,6.608c1.175,1.175,2.35,2.276,3.377,3.524.734.808.44,2.276,1.321,3.377,1.836-.661,2.423-2.423,3.157-3.965a9.571,9.571,0,0,1,1.615-2.79c1.395-1.542,2.056-3.524,3.084-5.286a44.983,44.983,0,0,0,4.7-13.656c.808-3.744,1.982-7.415,2.937-11.087.514-1.982.147-9.178,0-11.747-.147-2.349-1.175-4.332-1.615-6.534a2.488,2.488,0,0,0-2.57-.073c-1.836.954-3.818,1.028-5.727,1.468-3.891.954-7.489.514-10.352-2.717-1.028-1.175-2.2-2.2-3.3-3.3-2.276-2.423-1.836-4.993-.294-7.342,2.57-3.891,7.856-5.433,12.7-4.846a17.931,17.931,0,0,1,11.454,5.727c.22.22.514.294.734.514,3.157-2.129,4.772-5.36,6.314-8.59a28.836,28.836,0,0,0,2.643-13.583c-.22-4.112-.587-8.37-3.377-11.894a12.593,12.593,0,0,1-1.542-3.157c-2.276-4.7-6.241-7.122-11.233-8a1.623,1.623,0,0,0-1.836,1.175,34.891,34.891,0,0,0-1.248,3.6,16.01,16.01,0,0,1-8.517,9.985,15.5,15.5,0,0,0-3.3,2.056c-2.129,1.836-4.626,1.615-6.975-.073a21.428,21.428,0,0,0-2.937-1.836c-2.79-1.248-2.79-3.524-2.423-5.8a40.577,40.577,0,0,1,1.615-4.772,4.222,4.222,0,0,1,1.689-2.056c2.056-1.689,4.185-3.3,6.241-4.919a15.86,15.86,0,0,1,8.3-3.671c1.909-.147,1.836-.294,2.056-2.2a37.915,37.915,0,0,0-.954-11.821,25.583,25.583,0,0,0-2.35-7.636,42.009,42.009,0,0,0-9.178-10.866c-3.084-2.717-7.2-3.891-10.205-6.608-1.322-1.248-3.3-1.689-4.332-3.231-.514-.734-1.468-.514-2.2-.881a39.237,39.237,0,0,0-13.436-4.479c-.44,0-.881-.367-1.395-.514-3.524-.808-3.671-.734-4.919,2.863-.881,2.57-2.643,4.626-4.185,6.755-3.23,4.258-7.489,7.636-11.674,10.866a104.176,104.176,0,0,1-11.527,7.2,85.889,85.889,0,0,1-15.2,6.461c-3.891,1.322-7.783,2.643-11.821,3.671-2.276.587-4.7.661-6.828,1.909-3.451-.587-6.534,1.175-9.838,1.468-2.57.22-5.066-.147-7.636-.147-1.836,0-2.423-.808-3.01-2.643a32.671,32.671,0,0,0-1.175-3.084,5.338,5.338,0,0,1,3.965-1.175,53.82,53.82,0,0,0,11.38-1.028c3.744-.734,7.562-1.322,11.307-2.276a12.025,12.025,0,0,0,2.423-1.028c1.909-.808,3.891-1.028,5.8-1.689,5.36-1.982,10.94-3.6,15.859-6.461,3.891-2.276,7.562-4.919,11.38-7.342a50.514,50.514,0,0,0,8.737-7.562c1.982-1.982,4.038-3.965,4.993-7.2-1.762.881-3.01-.22-4.479-.147q-3.194.11-6.388,0a12.052,12.052,0,0,0-6.608,1.322,11.537,11.537,0,0,1-4.332.954A53.6,53.6,0,0,0,874.8,89.743c-2.056.661-4.258.808-6.314,1.395a62.834,62.834,0,0,0-17.768,7.636c-4.112,2.643-8.664,4.772-12.628,7.783a47.6,47.6,0,0,1-13,7.122,8.582,8.582,0,0,0-4.332,3.157c-1.615,2.349-4.552,2.863-6.608,4.552-.147.147-.587.073-.881,0-.881-.22-2.79-2.863-2.937-3.965-.22-1.322.734-1.982,1.615-2.643,4.7-3.6,9.545-7.122,14.17-10.793,1.542-1.175,3.3-1.982,4.772-3.3,1.542-1.322,3.524-2.129,5.213-3.377.367-.294,1.028-.587,1.322-.441,1.762.954,3.01-.367,4.112-1.1a106.481,106.481,0,0,1,18.943-9.545,64,64,0,0,1,8.15-2.276c1.615-.441,3.157-1.175,4.7-1.762,3.524-1.395,7.342-1.468,10.94-2.5,4.919-1.395,9.912-1.1,14.9-1.175,2.643,0,5.213-.808,7.929-.587.955.073,1.982-.294,2.79.514.294-.367.661-.587.661-.808a57.9,57.9,0,0,1,.734-8c.44-3.6-1.248-6.755-2.276-9.985-.587-1.762-2.056-3.231-1.982-5.213,0-.294-.367-.661-.661-.954-2.717-2.717-5.286-5.653-8.15-8.076A31.768,31.768,0,0,0,886.47,39.45a54.207,54.207,0,0,1-6.021-2.423,24.993,24.993,0,0,0-6.9-1.689c-5.947-.954-11.968-.808-17.841-2.276-1.689-.441-3.744-1.542-5.8-.294-.587.367-1.4-.587-2.276-.514-1.689.22-3.377-.367-5.066.514a1.712,1.712,0,0,1-1.468,0c-1.689-.661-3.3,0-4.919,0a82.117,82.117,0,0,0-13.363,1.689,8.163,8.163,0,0,0-3.01,1.762c-1.909-1.1-3.744,0-5.433.441l-3.965,1.1a27.338,27.338,0,0,0-5.653,2.423c-1.689.881-3.157,1.836-5.139,2.056-1.175.147-2.129,1.395-3.377,1.836-1.909.661-3.744,1.762-5.8,1.615-.514.954.073,1.762-.367,2.643a4.023,4.023,0,0,0,.734,4.258,3.24,3.24,0,0,1,.881,2.717,5.2,5.2,0,0,0,.734,2.863,22.1,22.1,0,0,1,2.129,8.59c.22,4.112,1.175,8.15.734,12.261A50.672,50.672,0,0,1,792.638,89.6c-.734,2.349-2.276,4.626-3.524,6.9-1.982.073-.661,1.762-1.248,2.57-1.1,1.615-1.909,3.524-3.231,4.993a25.828,25.828,0,0,0-3.084,4.7,15.431,15.431,0,0,1-3.3,4.185c-2.79,2.643-5.213,5.727-8.517,7.856-2.863,1.836-4.993,4.552-7.93,6.314-2.863,1.689-5.727,3.524-8.59,5.286-4.993,3.157-10.5,5.36-15.712,8.223a14.471,14.471,0,0,1-4.185,1.836,34.194,34.194,0,0,0-4.625.881c-3.3.808-6.755,1.4-10.132,2.129a37.509,37.509,0,0,0-6.314,1.468c-1.468.587-3.084-.22-4.332-.734-2.2-1.028-4.552-1.322-6.828-1.982a22.383,22.383,0,0,1-4.185-1.615c-.294-.734-.367-1.982-.954-2.276-1.4-.661-.147-1.982-1.028-2.643-.881-.587-1.028-1.615-1.468-2.5-1.762-3.377-1.1-6.9-.734-10.279.294-3.377,2.2-6.534,2.2-10.059,2.2-4.258,2.863-9.1,5.58-13.289,1.909-2.937,4.185-5.727,5.433-9.1a10.769,10.769,0,0,1,3.524-4.479,42.531,42.531,0,0,0,4.993-5.286c2.276-2.643,4.919-4.772,7.342-7.2,1.909-1.909,3.891-3.744,5.8-5.58A13.635,13.635,0,0,1,730.6,67.5c1.468-.734,2.423-2.276,3.744-3.157a25.979,25.979,0,0,0,3.818-3.084,16.881,16.881,0,0,1,2.57-1.468c4.625-2.717,8.884-5.874,13.363-8.81,2.056-1.395,3.965-3.3,6.755-3.157,1.542-1.836,4.332-1.542,5.947-3.671.881-1.175,2.863-1.615,4.405-2.276.734-.294,1.322-.441,1.468-1.322-1.1-.734-2.276-1.468-3.377-2.2-.294-.22-.881-.367-.954-.661-.661-2.276-2.863-2.717-4.552-3.524a126.617,126.617,0,0,0-16.96-6.975c-5.286-1.689-10.573-3.6-16.079-4.626-3.377-.661-6.608-1.836-9.985-2.643a63.333,63.333,0,0,0-8.15-1.468c-2.863-.367-5.58-1.175-8.443-1.468-2.717-.294-5.433-1.028-8.223-1.028-5.139,0-10.206-.587-15.272-.734-4.112-.147-8.3-1.542-12.408-.954a40.3,40.3,0,0,1-11.087.367c-5.8-.734-11.6-.441-17.4-.367a72.332,72.332,0,0,0-11.16.954c-1.836.294-3.818.367-5.727.661-3.377.514-6.534,1.542-9.912,1.909-2.423.294-4.552,1.322-6.9,1.542-3.524.367-7.048,1.1-10.573,1.468a24.161,24.161,0,0,0-4.7.808c-7.636,2.349-15.565,3.377-23.348,5.286-4.332,1.028-8.517,2.423-12.7,3.818-2.2.808-4.552,1.395-6.755,2.2-3.671,1.322-7.489,2.2-11.16,3.671a44.457,44.457,0,0,1-6.681,2.2c-4.625,1.1-8.957,2.937-13.583,4.038-4.772,1.175-9.031,3.451-13.583,5.139-4.552,1.615-8.81,4.112-13.509,5.286-6.167,1.615-11.6,4.846-17.548,6.9-2.2.808-4.112,2.2-6.388,3.157-2.349.954-4.919,1.395-7.269,2.57-1.909.954-4.038,1.615-5.8,2.937-.881.661-2.056.587-3.084.954-4.993,1.762-9.912,3.965-15.051,5.139-4.112.954-8,2.79-12.114,3.671-4.919.954-9.545,3.084-14.537,4.038a16.579,16.579,0,0,0-3.6,1.395c-3.744,1.615-7.856,1.836-11.674,3.231-2.056.734-4.552.367-6.828.661-3.744.514-7.562.587-10.94,2.643a2.457,2.457,0,0,1-1.689.441c-4.258-.661-8.517.22-12.849.22h-1.028c-2.79-.22-5.58-.514-8.3.294-2.056.661-4.112-.441-6.167-.661a36.027,36.027,0,0,0-4.919-.441,6.424,6.424,0,0,1-2.57-.514,14.606,14.606,0,0,0-6.388-1.248,8.486,8.486,0,0,1-3.524-.587A63.929,63.929,0,0,1,316.5,83.209a83.177,83.177,0,0,1-10.793-8.15c-4.258-3.671-6.314-8.59-7.489-14.023a25.971,25.971,0,0,1,.294-13c.441-1.395.147-2.937,1.1-4.112a3.108,3.108,0,0,0-2.863-.587c-5.433.954-10.5-.661-15.639-1.909a60.686,60.686,0,0,1-11.16-3.818,6.743,6.743,0,0,0-2.056-.367c-3.6-.954-7.122-2.2-10.646-3.451-2.056-.734-4.258-.808-6.388-1.322a104.7,104.7,0,0,1-13.216-3.891,81.15,81.15,0,0,0-9.4-2.717c-3.01-.734-6.021-1.248-9.031-1.762-1.175-.22-2.423,0-3.6-.147a203.317,203.317,0,0,0-25.036-.367c-2.937.073-5.947-.147-8.884-.22-4.258,0-8.443.441-12.628.734-3.965.22-7.856,1.248-11.821,1.028a23.548,23.548,0,0,0-6.755,1.028,56.363,56.363,0,0,0-8.223,2.643c-2.717,1.175-5.58,1.909-8.37,2.863-3.451,1.175-7.048,1.982-10.279,3.671a45.257,45.257,0,0,0-10.352,7.048,86.061,86.061,0,0,0-11.16,13.069,25.821,25.821,0,0,0-3.965,7.269c-.587,1.615-1.909,2.937-2.937,4.479-.881,1.322-.808,1.909.587,2.57,3.377,1.615,6.02,4.112,8.884,6.388,2.423,1.909,3.744,4.772,5.36,7.342-.514,3.01.294,6.314-1.175,8.957a6.651,6.651,0,0,1-4.993,3.671c-3.01.367-6.021,1.1-8.737-.587a17.147,17.147,0,0,1-4.552-4.038c-1.982-2.717-3.891-5.58-4.7-8.81a18.253,18.253,0,0,1-.367-7.489c.073-.587,1.248-.367.881-1.468-.147-.147-.367-.514-.734-.587C81.852,72.2,74.877,73,70.986,74.839a14.426,14.426,0,0,1-1.836.954c-5.213,1.542-8.37,5.213-10.793,9.838-1.542,3.01-2.276,6.314-3.965,9.251-.367.661-.147,1.395-.22,2.056,0,.587.073,1.395-.22,1.762-1.615,1.982-.514,4.479-1.322,6.608-.147.294.367.881.734,1.468,2.643-.734,4.993.587,7.342,1.468a12.981,12.981,0,0,1,4.626,3.377c.954.954,1.982,1.909,2.937,2.863,1.395,1.395,3.01,2.717,2.937,4.993,1.395.954,1.175,2.129.661,3.6a6.565,6.565,0,0,1-4.258,4.112,13.69,13.69,0,0,1-6.461.808,6.619,6.619,0,0,1-4.258-1.836,91.146,91.146,0,0,1-7.269-7.783c-1.028-1.322-1.395-3.084-2.717-4.332-3.744,1.175-7.489,2.349-10.793,4.552-1.909,1.248-3.965,2.056-5.653,3.744a22.968,22.968,0,0,0-5.8,9.545,72.418,72.418,0,0,0-2.863,9.618c-.147.808-.147,1.615-.22,2.349-.147,2.2.294,4.405-.514,6.534-.514,1.322.367,2.717.587,4.038a57.528,57.528,0,0,0,2.276,10.426,22.349,22.349,0,0,0,1.248,2.717,28.551,28.551,0,0,0,7.636-5.36,4.5,4.5,0,0,1,1.689-1.1c3.671-1.1,7.269-2.423,11.013-3.451,4.332-1.248,8.81-2.129,13.142-3.3,2.129-.587,4.258-.661,6.314-1.542a2.94,2.94,0,0,1,2.349.147c.367.147.881.441,1.1.294,2.276-1.175,4.258-.22,6.241.587h4.552c1.248,0,2.056,1.248,3.451,1.175a3.2,3.2,0,0,0,.808-.661c1.248-2.056,3.524-3.157,4.772-5.139,1.322-2.129,3.818-3.01,5.8-4.332a20.512,20.512,0,0,1,5.433-2.57A6.312,6.312,0,0,0,101.6,140.7c2.2-1.982,5.213-2.276,7.489-3.965.294-.22.808-.294,1.028-.514,2.717-2.863,6.608-3.377,9.912-5.066,2.056-1.1,4.552-1.1,6.9-1.468,3.6-.587,7.2-.22,10.793-.514,2.717-.22,4.993,1.248,7.562,1.468,3.01.294,5.58,1.542,8.37,2.57,4.846,1.762,9.1,4.038,12.408,8.15,2.276,2.717,4.552,5.36,5.36,8.957.147.661.661.954.954,1.468s.808,1.175.734,1.615c-.587,2.349.734,4.405.734,6.608a6.278,6.278,0,0,0,0,1.175,9.919,9.919,0,0,1-.587,6.975,1.526,1.526,0,0,0,1.836,0c3.3-2.276,7.122-3.6,10.719-5.433,3.01-1.468,6.02-3.01,8.884-4.772a32.7,32.7,0,0,1,4.7-2.57,46.632,46.632,0,0,0,10.719-6.828c3.3-2.57,7.048-4.552,9.838-7.783.954-1.1,2.276-1.836,3.3-2.863,1.615-1.762,2.276-4.112,3.084-6.314a58.853,58.853,0,0,1,5.947-11.747c.147-.147.367-.367.367-.441-1.028-1.762.954-2.79.954-4.332a4.743,4.743,0,0,1,.734-2.5c1.689-2.57,1.689-5.874,3.744-8.37.661-.808.734-2.2,1.028-3.3a18.8,18.8,0,0,1,2.2-4.772c1.542-2.2,1.836-4.919,2.937-7.342,1.542-3.157,2.2-6.828,4.405-9.545,2.423-2.937,3.965-6.388,6.608-9.251,2.2-2.423,4.552-4.626,6.681-7.048,1.1-1.248,2.349-2.2,4.112-2.056a2.278,2.278,0,0,0,1.615-.661,2.778,2.778,0,0,1,3.6,0c3.377,2.056,5.727,4.626,5.8,8.957,0,3.451-.441,6.755-.661,10.132a1.432,1.432,0,0,1-.073.587c-1.836,2.717-1.542,6.167-3.23,8.884-1.689,2.643-3.01,5.507-4.552,8.223-2.2,3.744-5.139,6.975-7.415,10.719a44.76,44.76,0,0,1-3.818,4.552,73.607,73.607,0,0,0-5.8,7.562,23.6,23.6,0,0,1-5.653,6.388c-1.542,1.175-2.276,2.937-3.451,4.332-2.57,3.231-6.021,5.58-8.517,8.81-1.322,1.689-2.57,3.084-2.863,5.36-.22,1.689-1.248,3.3-1.982,4.919a19.011,19.011,0,0,0-1.542,4.479,42.99,42.99,0,0,1-2.643,7.856c-1.248,3.157-1.762,6.461-2.79,9.618-1.762,5.433-2.863,11.013-5.213,16.3-1.468,3.451-3.01,6.828-4.479,10.279-2.2,5.139-4.038,10.426-6.094,15.639-1.175,2.79-2.129,5.8-3.671,8.3-2.5,4.112-4.479,8.517-7.562,12.335-2.276,2.863-4.112,6.021-6.461,8.884-1.1,1.322-1.689,3.084-2.57,4.552-1.615,2.717-3.891,4.919-5.139,7.783-2.423,1.028-3.01,3.671-4.919,5.286-3.157,2.717-6.461,5.286-9.545,8.15a11.957,11.957,0,0,1-2.79,1.615c-1.836,1.028-3.377,2.423-5.286,3.451s-3.818,1.982-5.727,3.01a27.183,27.183,0,0,1-7.269,2.349,98.063,98.063,0,0,0-11.16,3.451c-2.276.808-4.772.808-7.122,1.175-3.157.514-6.241,0-9.324.147a45.091,45.091,0,0,1-15.565-2.129,44.227,44.227,0,0,0-7.562-1.395,14.188,14.188,0,0,1-3.891-1.248c-1.395-.587-2.5-2.129-3.744-2.2-1.762-.073-2.79-1.028-4.038-1.836a32.746,32.746,0,0,1-3.818-2.276A36.437,36.437,0,0,0,73.7,269.11a2.879,2.879,0,0,0-2.276-.441c-3.891,1.1-7.783.514-11.674.367-2.2-.073-4.405-.294-6.608-.514a31.019,31.019,0,0,1-9.251-1.909c-1.836-.734-3.818-.954-5.653-1.689-1.762-.734-3.671-1.175-5.36-2.349a14.074,14.074,0,0,0-4.185-2.129c-2.129-.587-3.744-2.2-5.433-3.6-1.1-.881-2.349-1.468-3.451-2.276a17.61,17.61,0,0,1-4.479-4.552c-.954-1.615-1.836-3.157-3.524-4.038a4.655,4.655,0,0,1-1.689-1.689c-1.909-3.451-4.258-6.608-6.094-10.132a43.111,43.111,0,0,1-3.3-10.426,21.237,21.237,0,0,1-.514-7.416c.587-4.112.073-8.223.661-12.261.441-2.937.587-6.02,2.2-8.884a45.531,45.531,0,0,0,3.231-6.9,12.686,12.686,0,0,1,3.231-5.58,3.931,3.931,0,0,0,1.248-1.982c.367-2.276,2.276-3.6,3.231-5.507.661-1.322,2.276-1.909,3.524-2.717a9.2,9.2,0,0,0,1.982-1.762c-.954-2.2-2.5-4.038-3.3-6.314-.808-2.2-.661-4.479-1.468-6.681a22.09,22.09,0,0,1-.808-3.157,8.982,8.982,0,0,1,0-4.626,10.666,10.666,0,0,0-.881-6.314c.147-.587,1.1-.881.954-1.689-.587-3.157,1.1-5.874,1.909-8.664,1.028-3.671,2.643-7.2,4.038-10.793a2.367,2.367,0,0,1,.587-1.028c2.643-1.689,4.185-4.405,6.167-6.755a3.318,3.318,0,0,1,1.762-1.1c1.762-.441,3.231-1.689,5.139-2.056,1.468-.22,2.57-1.909,4.332-2.349,2.423-.514,4.846-1.395,7.415-2.2,0,.073.073-.073,0-.294-.881-4.552.514-8.81,1.248-13.142v-.294c1.762-2.57,1.542-5.874,3.451-8.443a19.721,19.721,0,0,0,1.909-3.965,14.527,14.527,0,0,1,2.79-4.112c1.322-1.395,2.863-2.5,3.744-4.258a1.371,1.371,0,0,1,.881-.808c2.349-.661,4.112-2.79,6.755-2.79.954,0,1.615-.661,2.423-1.028A14.168,14.168,0,0,1,74,66.469a6.465,6.465,0,0,0,2.863-.587c1.689-.661,3.451,0,5.213.147,1.542.073,3.01.661,4.7.294,2.056-3.157,4.185-6.314,5.36-9.985,0-.22.22-.367.294-.514,1.762-2.5,3.818-4.772,5.433-7.342.441-.734,1.322-1.395,1.762-2.276.881-1.909,2.937-2.643,3.965-4.332.587-.881,1.322-1.762,1.982-2.57,2.129-2.423,4.258-5.139,7.269-6.461,2.5-1.1,4.7-2.57,7.269-3.6a88.819,88.819,0,0,1,12.628-4.405c2.5-.661,4.919-1.175,7.122-2.79,1.248-.954,3.01-.881,4.552-1.175,2.349-.441,4.7-1.175,7.048-1.542a118.568,118.568,0,0,1,12.408-1.322c6.241-.367,12.408-1.1,18.649-1.689,1.175-.147,2.2.661,3.524.587,3.524-.147,7.048.22,10.573-.147,2.717-.294,5.286.147,7.929.073,2.643,0,5.286-.367,7.856.073,2.937.514,5.947.441,8.884.954a60.434,60.434,0,0,1,11.38,3.01,67.378,67.378,0,0,0,6.681,1.395c1.689.441,2.937,1.836,4.846,2.056,3.084.441,6.241,1.1,9.324,1.542a41.663,41.663,0,0,1,10.279,2.717,12.442,12.442,0,0,0,4.772,1.468,6.347,6.347,0,0,1,2.57.661c4.258,2.2,9.031,2.643,13.583,4.112,4.112,1.322,8.37,1.468,12.482,2.349a12.442,12.442,0,0,0,3.3,0,3.734,3.734,0,0,0,2.717-1.542,13.551,13.551,0,0,0,1.762-2.937c2.2-3.744,5.36-6.388,8.664-8.884,4.772-3.671,10.132-6.681,14.831-10.5a1.841,1.841,0,0,1,.514-.294c4.846-1.175,8.664-4.772,13.509-5.947,1.542-.367,2.863-1.322,4.332-1.836,1.395-.514,2.937-.441,4.332-1.175a14.107,14.107,0,0,1,4.332-.734c2.276-.22,4.479-.808,6.755-1.028,1.542-.147,2.937.147,4.552-.147,2.276-.441,4.7-.734,6.975-1.1a7.888,7.888,0,0,1,1.322,0c2.2.954,4.332.073,6.388-.441A14.482,14.482,0,0,1,385.006.17c1.542,0,3.157-.147,4.7-.294,1.468-.073,2.937.441,4.552.367,1.395,0,2.863.661,4.405.514A6.667,6.667,0,0,0,401.6.317a4.626,4.626,0,0,1,2.643,0,79.331,79.331,0,0,0,10.132,1.175,23.623,23.623,0,0,1,5.58.587c3.744.881,7.636.954,11.454,1.689,2.79.514,5.36,1.836,8,2.937.294.073.441.587.881.661a21.05,21.05,0,0,1,8.3,3.084c4.552,2.57,8.884,5.58,11.16,10.5a5.9,5.9,0,0,1,0,4.479c-1.836,4.626-4.112,8.957-7.929,12.261a28.775,28.775,0,0,0-1.836,2.349,23.56,23.56,0,0,1-9.618,6.167,21.318,21.318,0,0,0-3.01,1.175c-4.185,2.349-8.737,2.863-13.363,3.6-4.332.661-8.737.587-13.069,1.689a10.312,10.312,0,0,1-2.129,0c-1.615,0-3.23-.147-4.846-.147a32.4,32.4,0,0,1-4.626,0c-1.248-.147-2.57,1.1-3.377.294-1.1-1.1-2.056,0-3.01-.22a29.409,29.409,0,0,0-3.6,0c-1.982-.147-3.891-.587-5.947-.661a21.817,21.817,0,0,0-5.36,0H377c-.734-.441-.294-1.248-.954-1.689-.22.073-.587.073-.734.294-1.028,1.1-1.982,2.056-3.6.881-.147-.073-.367,0-.587,0-4.405.367-8.737-.881-13.142-.661a27.268,27.268,0,0,1-8.37-1.028c-1.982-.514-4.112-.367-6.241-.661l-6.828-.881c-4.846-.587-9.765-.587-14.537-1.542a34.086,34.086,0,0,0-6.828-.808c-2.863,0-5.727-.514-8.957-.808-.514,1.836-1.175,3.744-1.615,5.727a25.158,25.158,0,0,0-.808,4.7c0,1.762-.294,3.524.22,5.286.147.367.514.734.441,1.1-.367,4.112,2.937,5.874,5.36,8.15.661.587,1.395,1.1,2.056,1.689a33.876,33.876,0,0,0,18.5,8.664,65.458,65.458,0,0,1,8.37,1.836,18.048,18.048,0,0,0,4.405.514c1.909,0,3.818-.294,5.653.514a4.175,4.175,0,0,0,2.129,0,26.148,26.148,0,0,1,9.251-.294,3.9,3.9,0,0,0,2.423-.22c2.57-1.028,5.58-.367,8.15-1.468a3.552,3.552,0,0,1,4.332.734,52.833,52.833,0,0,1,10.059-1.909,36.648,36.648,0,0,0,9.618-1.615c4.405-1.542,9.031-2.056,13.363-3.671,2.863-1.028,5.727-2.129,8.59-3.157,1.909-.661,4.038-.661,5.947-1.615,2.937-1.468,6.167-2.056,9.251-2.863,4.258-1.175,8.3-3.157,12.7-3.891a12.311,12.311,0,0,0,4.038-1.762c4.112-2.276,8.59-3.377,12.849-5.286,1.982-.881,4.038-1.615,5.947-2.57a177.446,177.446,0,0,1,23.128-9.031,30.03,30.03,0,0,0,5.8-2.349,40.732,40.732,0,0,1,4.112-1.762c3.377-1.1,6.388-2.937,9.765-4.038,4.552-1.542,9.251-2.79,13.95-3.965,2.2-.587,4.185-1.689,6.388-2.276,3.084-.808,6.02-2.276,9.031-3.377,5.874-2.129,11.894-3.451,17.841-5.36,3.01-.954,6.021-1.909,9.031-2.717,1.982-.514,4.185-.22,6.167-.808,3.451-1.028,7.2-1.248,10.573-2.717a12.418,12.418,0,0,1,4.038-.881c5.507-.441,10.793-2.056,16.226-2.863,3.818-.587,7.489-1.982,11.233-2.423,3.451-.367,6.828-1.322,10.279-1.395,1.4,0,2.643-.734,4.112-.734,5.066,0,9.985-1.689,15.125-1.175a31.67,31.67,0,0,0,6.461,0c2.276-.22,4.332.734,6.534.734,1.909,0,3.818-.587,5.8-.147,2.056.441,4.185.073,6.314.073h6.021c1.982,0,3.965-.22,5.947.514a5.092,5.092,0,0,0,3.3,0,13.269,13.269,0,0,1,5.066-.514c3.451,0,6.9-.661,10.352,0,3.084.514,6.314.294,9.4,1.175.808.22,1.468-.22,2.2-.22,4.185.147,7.783,2.129,11.747,2.937,2.643.587,5.213,1.615,7.856,2.423a26.286,26.286,0,0,0,7.2,1.615c2.056,0,4.112.587,6.167.441,1.1.954,1.248,2.349,2.129,3.377a1.479,1.479,0,0,1,2.056-.808c2.937,1.762,6.388,2.423,9.4,4.185.22.147.587.367.661.587.587,2.2,2.349,2.349,4.112,2.349a2.34,2.34,0,0,1,2.276,1.175c.734,1.248,2.2,1.615,3.377,2.349a44.557,44.557,0,0,1,6.608,4.993c1.689,1.542,3.6,2.79,5.433,4.185,4.258-1.322,8.517-2.5,12.7-3.891,4.772-1.542,9.765-2.5,14.464-4.185a133.476,133.476,0,0,1,18.355-4.405c3.891-.734,7.709-2.349,11.821-2.056.661,0,8,.22,8.664.22,3.6.22,7.122,1.689,10.719.514a1.076,1.076,0,0,1,.808.147,16.214,16.214,0,0,0,6.241,1.1c.734,0,1.689.441,2.57.441,5.213-.147,9.838,1.762,14.611,3.524,4.112,1.542,7.929,3.965,12.261,4.993a4.775,4.775,0,0,1,2.717,1.762,4.454,4.454,0,0,0,2.129,1.542c1.836.514,2.349,2.5,3.891,3.451,3.01,1.762,4.993,4.7,7.048,7.562a33.511,33.511,0,0,1,4.185,6.755,45.7,45.7,0,0,1,2.349,8.223,56.087,56.087,0,0,1,1.175,14.39c3.6,1.1,7.122,1.615,10.426,3.084a38.975,38.975,0,0,0,8.15,2.57c3.524.734,6.021,2.863,8.737,4.846,1.468,1.028,2.717,2.276,4.479,2.79a3.019,3.019,0,0,1,1.982,1.248c.881,1.909,2.5,3.084,3.818,4.552,2.129,2.57,4.185,5.286,6.314,7.929A11.6,11.6,0,0,1,962.9,106.7c.661,1.689,1.982,3.157,2.863,4.846,2.423,4.185,2.79,5.8,3.157,12.555a3.6,3.6,0,0,0,.514,1.395,3.245,3.245,0,0,1,.587,2.276c-.44,1.836.22,3.744-.367,5.727,2.276.514,4.405.587,6.388,1.542,5.213,2.5,9.618,5.727,12.114,11.16.073.294.073.661.294.808,2.863,2.2,3.01,5.58,3.965,8.59a36.976,36.976,0,0,1,1.542,5.58,8.33,8.33,0,0,1,.147,3.01,64.308,64.308,0,0,0-.587,7.489,8.211,8.211,0,0,1-1.1,3.671c-1.1,2.2-1.909,4.552-3.524,6.534-.147.22-.147.587-.367.808-.808.808,0,2.056-.955,2.79-1.909,1.689-3.891,3.3-6.021,5.139a4.775,4.775,0,0,0,.147,2.643c1.542,5.727,3.01,11.454,2.79,17.548-.073,2.643-.955,5.066-1.542,7.562-1.1,4.919-2.423,9.765-3.818,14.537a56.23,56.23,0,0,1-5.433,12.335,77.888,77.888,0,0,1-5.727,9.031c-1.4,1.762-2.5,3.744-4.332,5.433,2.5,2.423,1.615,5.8,2.57,8.664-1.321,2.79,0,5.947-1.028,8.884-.661,1.836-.147,3.891-.661,5.874a92.22,92.22,0,0,1-4.626,14.023,55.084,55.084,0,0,1-5.213,9.251c-2.276,3.084-4.112,6.534-6.461,9.545-2.129,2.717-3.965,5.727-6.534,7.856-2.056,1.762-3.6,4.258-6.534,5.066-1.028.294-1.175,1.615-2.129,2.349a88.371,88.371,0,0,1-13.289,7.562c-4.185,2.056-8.37,3.891-12.555,5.947a37.57,37.57,0,0,1-10.206,2.79c-3.818.661-7.562.367-11.38.514-2.349.073-4.552-1.248-6.9-.661a4.507,4.507,0,0,0-3.524-1.175c-3.01,0-5.507-1.542-8.076-2.79-.881.734-1.982,1.322-.881,2.643-.955,1.175-1.1,2.643-1.615,4.038-1.1,2.863-3.157,5.213-3.818,8.223,0,.294-.294.514-.441.734-2.349,2.643-3.891,6.02-6.314,8.59-4.7,4.846-8.076,10.719-12.775,15.565-3.231,3.377-6.314,6.9-9.471,10.352a36.712,36.712,0,0,1-4.846,3.965c-2.349,1.909-4.7,3.891-7.2,5.653a96.331,96.331,0,0,1-8.3,5.066c-3.231,1.909-6.388,3.891-9.618,5.727-.294.147-.441.441-.734.514-4.479,1.615-8.37,4.405-12.922,5.947-4.919,1.615-9.838,3.524-14.9,4.626-4.332.954-8.517,2.349-13,2.863-2.643.294-5.433,0-8,.955-3.965-1.1-7.489,1.175-11.307,1.175-3.23,0-6.388.441-9.618.147a4.916,4.916,0,0,0-1.468,0c-3.451.954-6.975.073-10.426.441-4.7.514-9.1-1.395-13.8-1.248-3.377.073-6.828-1.1-10.206-1.542a17.661,17.661,0,0,0-5.213-.22c-2.2.441-4.405-.22-6.461-.734a26.056,26.056,0,0,0-4.7-.441c-3.084-.147-5.874-.661-7.636-3.524-.147-.22-.44-.587-.661-.587-2.717.22-4.185-2.717-6.828-2.643-.661,0-1.028-.514-1.248-1.1-.22-.661-.367-1.322-.587-1.982,1.836-2.129,4.112-2.79,6.461-1.836A21.481,21.481,0,0,0,673.4,416.1a49.671,49.671,0,0,1,9.691,2.57c.734.22,1.468.587,1.982.22,1.762-1.1,3.377-.22,4.846.441a16.424,16.424,0,0,0,7.2,1.468,97.136,97.136,0,0,1,11.233,1.175c1.175.147,1.982,1.028,3.231,1.322,2.349.514,4.772.073,7.048,1.028a4.3,4.3,0,0,0,2.717,0c2.349-.808,4.772-.22,7.122-.587,3.6-.661,7.2-.147,10.719-.661,4.112-.587,8.3-.587,12.335-1.615a8.431,8.431,0,0,1,2.717,0,25.95,25.95,0,0,0,6.681-1.1c4.479-1.175,9.031-1.982,13.509-3.157a39.348,39.348,0,0,0,6.608-2.423c2.056-1.028,4.332-1.395,6.388-2.276a136.038,136.038,0,0,0,16.226-8.443c4.552-2.717,8.957-5.507,13.216-8.59,2.937-2.129,6.167-4.112,8.517-6.755,3.377-3.818,7.342-7.048,10.205-11.233l.441-.441c3.818-3.3,6.167-7.783,9.324-11.6,3.744-4.479,6.608-9.545,10.279-14.1,0-.073.147-.147.147-.294a92.086,92.086,0,0,0,3.231-10.573c-4.332-1.982-7.562-5.066-10.646-8.3-.147-1.762-1.615-2.57-2.717-3.6a3.375,3.375,0,0,1-1.1-1.689A9.729,9.729,0,0,0,843,323.735c-1.836-2.643-1.1-5.36,1.542-7.122,3.671-2.5,9.4-1.1,12.188,1.322a23.016,23.016,0,0,1,5.874,7.856,20.569,20.569,0,0,0,1.836,3.01c1.322,1.982,2.423,4.112,1.982,6.755a1.971,1.971,0,0,0,1.4,1.982c4.332,1.762,9.1,1.836,13.436,3.451a9.839,9.839,0,0,0,1.468.073c2.349.22,4.772,0,7.2.367a11.769,11.769,0,0,0,4.625-.661,98.215,98.215,0,0,0,16.74-5.8c2.79-1.322,5.507-2.643,8.3-3.965A67.278,67.278,0,0,0,934.12,320.8c3.965-3.451,6.975-7.783,10.206-11.821,1.175-1.468,2.643-2.937,3.01-4.993.073-.44.587-.808.881-1.175a71.76,71.76,0,0,0,6.9-11.674,22.573,22.573,0,0,0,1.322-4.846c.587-2.863,2.2-5.507,2.5-8.517.22-2.57,1.1-5.066.954-7.636-.073-2.276.734-4.626-.44-6.9-2.937,1.982-5.8,4.112-8.81,5.947-3.524,2.2-6.9,4.846-10.94,6.094-3.451,1.028-7.122,1.689-10.5,3.01a2.75,2.75,0,0,1-1.542,0c-2.5-.367-4.919.661-7.416.734-1.175,0-2.2.441-3.377,0a2.207,2.207,0,0,0-1.689,0c-.881.954-1.982-.441-2.717.367-2.643-1.028-5.36-.367-8-.514a27.96,27.96,0,0,1-5.507-.514,15.313,15.313,0,0,0-5.8-.441c-1.4.294-3.231-.514-4.772-1.322a12.017,12.017,0,0,0-4.993-1.542c-1.028,0-1.468-.881-2.276-1.175-1.689-.661-2.937-.808-4.552.441-1.689,1.395-3.3,2.863-4.919,4.405a28.105,28.105,0,0,1-11.087,6.608,55.487,55.487,0,0,1-9.838,1.909,8.909,8.909,0,0,1-4.772-.367,10.011,10.011,0,0,0-3.377-.294c-3.157,0-6.461.881-9.471-.514a50.814,50.814,0,0,1-6.167-3.451c-1.909-1.248-3.965-2.349-5.433-4.185a5.007,5.007,0,0,0-3.084-1.689c-2.937-.514-4.552-2.423-6.021-4.772a20.359,20.359,0,0,0-1.615-2.129,62.986,62.986,0,0,1-12.335,8.811,22.32,22.32,0,0,1-12.7,2.57,7.586,7.586,0,0,1-4.258-2.423,21.624,21.624,0,0,0-2.276-2.2,4.659,4.659,0,0,1-1.689-2.717,15.265,15.265,0,0,1-.734-6.314,23.83,23.83,0,0,0,0-3.965,17.361,17.361,0,0,0-6.534,5.286,26.346,26.346,0,0,1-2.863,2.863A16.444,16.444,0,0,0,764,275.5c-.955,1.689-2.79,2.717-4.332,3.6-1.909,1.175-3.744,2.423-5.727,3.6a7.164,7.164,0,0,1-3.818,1.395c-2.423-.147-4.479,1.1-6.9,1.028a9.7,9.7,0,0,1-2.5-.147,15.4,15.4,0,0,0-4.112-.514,9.378,9.378,0,0,1-5.727-1.689,8.81,8.81,0,0,0-2.717-1.1c-2.349-.734-3.524-2.79-5.066-4.552,0,0,0-.22-.073-.294-2.349-1.982-3.3-4.772-4.258-7.636-.294-.808-.44-1.762-1.322-2.276a10.586,10.586,0,0,0-1.909,2.717,32.549,32.549,0,0,1-4.846,7.048c-2.276,2.643-4.038,5.58-6.681,7.929-.881.734-1.762,1.542-2.643,2.276-2.349,1.909-4.112,4.332-6.241,6.314-3.451,3.3-6.9,6.681-10.573,9.838a14.022,14.022,0,0,1-4.919,3.084,55.169,55.169,0,0,0-5.727,2.349,3.657,3.657,0,0,1-2.57.441c-3.744-.881-7.415-1.836-9.985-5.139-1.175-1.468-.808-3.084-.734-4.479a24.37,24.37,0,0,1,1.468-7.856c1.1-2.863,1.615-5.874,3.01-8.664,1.836-3.744,3.891-7.342,5.507-11.16,1.982-4.7,4.846-8.957,6.755-13.583,1.175-2.717,3.084-4.993,3.6-8,.22-1.1,1.689-1.689,1.982-2.937a12.361,12.361,0,0,1,1.909-4.112c2.863-4.552,5.066-9.471,7.709-14.17a93.439,93.439,0,0,0,6.02-13.216,19.421,19.421,0,0,0,.808-9.912,13.293,13.293,0,0,0-9.178,2.129c-2.056,1.322-4.038,2.863-6.241,4.112a19.137,19.137,0,0,0-6.167,5.727,8.444,8.444,0,0,1-2.423,2.129c-2.937,1.836-4.552,4.772-5.874,7.709-1.689,3.6-3.671,6.975-5.653,10.352-2.2,3.744-4.846,7.342-7.2,11.013-.734,1.175-1.028,2.5-1.689,3.671-1.028,1.689-1.542,3.671-2.937,5.286a74.936,74.936,0,0,0-9.618,14.758c-1.982,3.744-3.524,7.636-5.947,11.16-.514.808-.881,1.542-1.982,1.468a2.9,2.9,0,0,0-1.836.881,2.384,2.384,0,0,1-2.57.22c-1.689-1.542-4.258-1.762-5.433-4.185,2.349-2.423,3.451-5.727,5.507-8.37,2.57-3.3,4.405-7.048,6.681-10.5,1.909-2.937,3.3-6.241,5.139-9.178a71.44,71.44,0,0,0,4.772-9.471c1.4-3.377,3.451-6.388,4.919-9.692,3.377-7.415,7.856-14.39,9.4-22.614a10.268,10.268,0,0,1,1.1-2.423,8.252,8.252,0,0,0-.147-7.2,7.813,7.813,0,0,0-6.461,1.542,58.748,58.748,0,0,0-5.066,3.157c-2.57,1.982-5.36,3.6-7.415,6.167a27.776,27.776,0,0,1-4.405,4.405c-1.689,1.322-2.129,3.451-3.965,4.7-1.762,1.175-2.643,3.157-3.818,4.919a51.712,51.712,0,0,1-5.213,6.755,19.166,19.166,0,0,0-3.377,5.507,43.708,43.708,0,0,1-3.524,5.947,5.538,5.538,0,0,0-.734,1.248c-.954,3.231-3.231,5.653-5.213,8.223-.808,1.028-1.1,2.276-1.836,3.3-2.5,3.524-5.066,6.975-7.562,10.5a4.85,4.85,0,0,0-.367,1.1c-.954,2.056-1.689,4.258-3.524,5.8a5.068,5.068,0,0,0-1.248,1.982c-.587,1.689-1.909,2.79-3.01,4.038a3.491,3.491,0,0,1-4.185.661,8.839,8.839,0,0,1-2.863-2.129c-1.395-1.322-1.395-2.2-.147-3.6,1.542-1.689,2.643-3.744,4.038-5.507,1.248-1.542,1.909-3.6,3.084-5.286,1.468-2.129,3.377-3.965,4.332-6.314,1.175-3.01,3.157-5.507,4.846-8.15,3.524-5.36,7.122-10.719,10.426-16.226,1.1-1.762,1.762-3.744,2.79-5.58,1.542-2.643,2.717-5.507,4.7-7.856.147-.22.44-.441.514-.734.22-2.57,1.982-4.405,3.01-6.608,1.689-3.6,3.157-7.2,3.01-11.454-3.3,1.1-6.388,2.5-8.664,4.919-1.175,1.248-2.863,1.395-3.891,2.57-2.129,2.349-4.7,4.112-6.828,6.461-1.248,1.395-2.79,2.57-4.112,3.891-.734.734-1.762,1.322-1.836,2.643,0,.734-.808,1.028-1.468,1.322a11.834,11.834,0,0,0-4.552,4.185,15.128,15.128,0,0,1-4.258,4.112c-.587.367-1.322.808-1.468,1.395-.661,2.79-3.01,4.112-4.846,5.874-1.836,1.836-3.084,4.185-5.213,5.8-3.01,2.349-4.919,5.727-8.223,7.709a.856.856,0,0,0-.44.441c-1.028,2.5-3.377,3.818-5.139,5.653-2.129,2.276-3.891,4.919-6.534,6.755-.587,2.056-2.276,3.3-3.6,4.7a81.4,81.4,0,0,1-5.947,6.314,46.625,46.625,0,0,1-7.048,4.919c-3.745,2.129-8,1.468-11.307-1.468a25.1,25.1,0,0,1-5.8-8.517c-.514-1.1-1.468-1.836-1.542-3.3a31.263,31.263,0,0,1,.954-11.38,5.96,5.96,0,0,0,.22-3.01c-2.349,1.175-4.7,2.349-5.653,4.993-.367.954-1.248,1.248-1.836,1.836-3.084,3.23-6.681,5.874-9.618,9.324a13.775,13.775,0,0,1-7.269,4.919c-2.129.514-3.377,2.276-5.213,3.157-2.423,1.1-4.846,2.129-7.342,3.084-2.2.881-4.332,1.982-6.608,2.717-5.433,1.689-9.912.441-14.244-2.79a16.354,16.354,0,0,1-4.185-5.36,4.3,4.3,0,0,0-.734-1.248,4.524,4.524,0,0,1-1.909-3.524c0-.294-.514-.587-.808-.881-.294.147-.734.22-.808.367-2.349,4.258-6.241,7.342-8.957,11.307a60.648,60.648,0,0,1-5.8,7.2,11.062,11.062,0,0,1-1.689,1.542c-2.57,1.836-4.772,4.112-7.489,5.874a22.928,22.928,0,0,0-4.846,4.772c-1.395,1.689-2.423,3.671-4.772,4.185-.441.073-.808.587-1.1.954a17.2,17.2,0,0,1-5.36,3.744,6.62,6.62,0,0,0-2.643,1.836,7.116,7.116,0,0,1-4.185,2.717c-1.1.22-1.322,1.689-2.423,1.248-.808-.367-1.689.661-2.423-.22-.734.954-1.762.661-2.643.367-1.175-.294-2.2,1.1-3.377.147-2.863.514-4.993-1.468-7.562-2.056-.881-.147-2.056-1.982-2.056-3.01a4.179,4.179,0,0,0-.808-2.129,4.106,4.106,0,0,1-.073-4.552,3.94,3.94,0,0,0,.587-2.57c-.147-1.468.514-2.717.734-4.038.514-2.79,2.2-5.066,2.937-7.709a42.95,42.95,0,0,1,3.084-7.562c1.762-3.3,3.3-6.681,4.846-10.059,1.836-3.891,3.451-7.929,5.213-11.894a29.677,29.677,0,0,1,3.01-5.653,104.717,104.717,0,0,0,6.388-10.646c3.965-6.975,8.59-13.583,12.335-20.7,2.349-4.552,5.286-8.884,7.489-13.509,1.615-3.451,3.818-6.828,3.377-10.94-.073-.808.808-1.4.44-2.5-2.717-1.542-5.874-.808-8.884-.881a1.719,1.719,0,0,0-1.322.587c-1.248,1.909-3.965,1.322-5.213,3.157-.514.661-1.1-.441-1.836,0-3.377,2.129-7.562,2.863-9.912,6.755-.954,1.542-2.717,2.57-4.258,3.744a84.091,84.091,0,0,0-9.031,7.929c-2.643,2.57-4.919,5.507-8.076,7.636a6.4,6.4,0,0,0-1.762,2.349c-2.79,5.213-6.314,10.059-9.471,15.051-2.423,3.818-4.479,7.929-7.2,11.527-2.129,2.863-3.818,6.02-6.02,8.811-1.468,1.836-2.129,4.258-3.451,6.241-1.175,1.689-1.982,3.671-3.157,5.36-.881,1.248-1.322,3.01-2.129,4.479a14.22,14.22,0,0,1-3.23,4.258c-1.322,1.248-1.395,1.1-3.23.073a19.321,19.321,0,0,1-4.479-2.863,2.2,2.2,0,0,1-.514-2.643c.808-2.423,2.423-4.258,3.965-6.167a41.465,41.465,0,0,0,4.038-6.681,41.45,41.45,0,0,1,2.643-4.258,83.636,83.636,0,0,0,4.552-8.3.557.557,0,0,0-.294-.734c-3.524,3.451-6.828,7.048-10.646,10.205a88.581,88.581,0,0,1-11.38,8.076c-2.937,1.689-6.167,3.084-9.031,4.919a20.934,20.934,0,0,0-3.01,1.909c-5.36,4.405-11.674,6.608-18.282,7.929-3.157.661-6.314-.367-9.251-1.615-.881-.367-1.762-.954-2.717-1.248a6.933,6.933,0,0,1-4.332-4.258c-.734-2.056-1.982-3.818-2.57-5.874a4.724,4.724,0,0,1-.22-2.643c.954-3.23.587-6.681,2.129-9.838,0-.147-.294-.441-.514-.881-2.2,2.717-3.965,5.727-6.828,7.783-1.322.954-2.056,2.423-3.01,3.671a58.218,58.218,0,0,1-4.552,4.919c-3.3,3.377-6.167,7.2-10.206,9.838-2.2,1.468-4.038,3.6-6.02,5.433-2.349,2.129-4.772,4.258-7.2,6.314-2.276,1.836-4.038,4.405-6.975,5.507-.808.294-1.322,1.175-1.982,1.836-1.175,1.175-2.349,2.5-4.038,3.01a2.371,2.371,0,0,0-1.248.734c-2.129,3.3-5.874,4.626-8.664,7.048-4.185,3.671-9.1,6.388-13.142,10.279a25.062,25.062,0,0,1-4.772,3.524,78.373,78.373,0,0,0-12.041,8.076,7.776,7.776,0,0,1-2.423,1.028c-3.891,1.542-7.2,4.038-11.087,5.653-2.5,1.028-4.846,2.57-7.489,3.6.954,2.129,2.937,2.349,4.332,3.3q2.863,1.872,5.507,3.965c1.909,1.542,4.185,2.5,6.167,3.965a89.81,89.81,0,0,0,11.6,7.2c4.185,2.2,7.415,5.653,11.527,7.856,3.377,1.762,6.241,4.552,10.279,4.919,1.175.073,1.468,1.468,2.423,1.615,4.258.734,7.415,3.965,11.454,5.286,2.937,1.028,5.727,2.5,8.737,3.451a22.137,22.137,0,0,1,4.185,2.056c4.112,2.276,8.59,3.6,12.775,5.58a57.383,57.383,0,0,0,10.866,3.671,81.317,81.317,0,0,1,11.454,3.965,11.447,11.447,0,0,0,6.02,1.468,5.3,5.3,0,0,1,2.056.367c3.818,1.468,8,1.982,11.821,3.671,2.57,1.1,5.58,1.322,8.37,1.909a32.551,32.551,0,0,1,5.066,1.395c1.395.514,3.157.294,4.626,1.028,3.23,1.615,6.9,1.615,10.352,2.423a2.3,2.3,0,0,0,1.395-.294,3.261,3.261,0,0,1,2.349-.147,31.934,31.934,0,0,0,13.95.073,2.643,2.643,0,0,1,1.615.367,12.388,12.388,0,0,0,6.314.661c4.846-.587,9.838-.22,14.464-1.909,3.744-1.395,7.709-.734,11.38-1.762a42.135,42.135,0,0,0,6.681-2.276,38.335,38.335,0,0,1,7.122-2.717c2.57-.661,4.7-2.129,6.828-3.377.661-.367,1.542-.514,1.909-1.395a1.113,1.113,0,0,0-1.175-.954c-3.524.294-6.975-1.468-10.646-.22-1.175.367-2.863-.734-4.185-.367a9.4,9.4,0,0,1-4.258.294c-4.332-.881-8.37.441-12.482,1.4h-.881c-5.727,0-11.307,1.395-16.96,1.835-2.349,1.4-4.993.955-7.562,1.322a36.081,36.081,0,0,0-4.846,1.248c-2.129.734-3.377,0-4.993-1.248a27.035,27.035,0,0,1,0-3.451c.22-2.2,1.468-2.79,3.671-3.23,2.5-.514,5.066-.441,7.562-1.248a10.068,10.068,0,0,1,4.7-.734,11.056,11.056,0,0,0,2.643-.441c3.6-.514,7.2-1.175,10.94-1.468,3.157-.22,6.241-1.248,9.324-1.395,3.524-.147,6.975-1.836,10.573-.367,1.909-.881,4.038.808,6.02-.367a2.479,2.479,0,0,1,1.468-.147c3.818,1.028,7.783.441,11.674,1.1,2.056.367,3.965,1.1,6.094,1.395a3.685,3.685,0,0,0,3.6-1.175,10.677,10.677,0,0,1,3.01-2.423,4.923,4.923,0,0,0,2.276-2.57,13.112,13.112,0,0,1,4.332-5.874c1.542-1.1,1.468-1.248,3.744-1.175,1.762,3.3,1.322,5.066-1.322,7.415a57.5,57.5,0,0,0-6.461,7.269c5.213.954,9.985,1.835,14.831,2.643a26.276,26.276,0,0,1,2.57.661c8.223,2.276,16.593,3.451,24.816,5.507,5.653,1.395,11.38,2.349,16.96,3.818,3.6.954,7.269,2.349,11.16,2.2,1.762,0,3.524,1.028,5.433,1.322a43.6,43.6,0,0,1,5.139,1.248c4.258,1.175,8.664,1.909,13,2.79.954.22,1.909.514,2.863.808,5.8,1.909,11.6,3.818,17.474,5.433,3.157.808,6.388,1.395,9.545,2.129,3.6.808,7.048-.808,10.573-1.468,2.129-.367,4.038-1.542,6.388-1.689,2.056-.147,4.038-1.248,6.167-1.909,4.332-1.248,8.59-2.863,12.922-4.258a155.06,155.06,0,0,1,15.271-3.891c1.615-.367,3.231-.881,4.846-1.395,6.828-2.129,13.877-3.3,20.778-5.066,3.157-.808,6.167-2.2,9.4-2.5a44.351,44.351,0,0,0,9.251-2.056c4.038-1.322,8.223-1.982,12.261-3.084,5.286-1.542,10.719-2.717,16.079-3.818,5.213-1.028,10.352-2.79,15.639-3.157,3.084-.22,6.167-1.1,9.251-.661,1.762.22,3.3-.367,4.993-.514,2.423-.22,4.625.808,6.975.514a24.026,24.026,0,0,1,8.517,1.028c1.762.441,3.6.441,5.507,1.175,2.423.955,3.6,3.157,5.433,4.552,0,2.2.587,4.405,0,6.608-1.028,3.818-3.157,6.02-7.2,6.9-2.5.514-5.139.587-7.489,1.468-1.4-1.175-3.084.587-4.479-.514-2.2.587-4.479-.367-6.681.073a5.95,5.95,0,0,1-1.615,0,83.439,83.439,0,0,0-11.307-1.395,3.705,3.705,0,0,1-2.349-1.1c-.734-.661-1.542-1.248-2.2-1.836,1.4-3.377,1.542-3.451,4.479-2.717a36.318,36.318,0,0,0,5.58.734c2.717.22,5.36.881,8,.808,5.727-.22,11.527.661,17.034-1.468,1.468-.587,3.01-.881,4.332-2.2-2.056-1.615-3.818-3.23-6.755-3.744a78.622,78.622,0,0,0-15.492-1.542,40.162,40.162,0,0,0-9.765,1.028,1.79,1.79,0,0,1-.881,0c-4.258-.367-8.15,1.4-12.261,1.982-2.937.441-5.727,1.542-8.737,1.689-2.276.147-4.405,1.248-6.755,1.615-4.038.661-8,1.982-12.114,2.643-2.57.44-4.919,1.762-7.489,2.2-5.727.954-11.233,3.157-16.887,4.405-7.342,1.615-14.684,3.157-21.879,5.213-3.524,1.028-6.975,2.2-10.5,2.937a125.3,125.3,0,0,0-14.758,4.112c-2.717.881-5.58,1.248-8.15,2.643a6.274,6.274,0,0,1-2.349.294c-.881,0-1.542.294-1.689,1.322.808.661,1.689.294,2.57.367a17.426,17.426,0,0,1,3.818.441,10.671,10.671,0,0,0,4.038,0c2.276-.294,4.7.881,6.9-.367,2.129.954,4.552.147,6.755.881a2.254,2.254,0,0,0,1.1.294c2.349-.734,4.846.587,7.2-.441a6.739,6.739,0,0,1,2.717-.073,24.437,24.437,0,0,0,10.279-1.395c3.891-1.322,7.856-2.276,11.674-3.965a16.885,16.885,0,0,0,5.286-3.744c2.2-2.129,3.3-2.349,6.241-1.028.294,1.542.587,3.23.881,4.772a35.61,35.61,0,0,1-6.388,4.038,9.173,9.173,0,0,0-2.2,1.909c-1.322,1.395-2.5,3.01-4.7,3.084-.734,0-1.4.661-2.129.954a5.006,5.006,0,0,1-2.57.734c-2.129-.367-4.185.441-6.167.808a34.989,34.989,0,0,1-4.7.441c-4.919,0-9.765,1.028-14.684.661-6.9-.587-13.877-.587-20.852-.734a34.87,34.87,0,0,1-8.737-.734c-2.937-.734-6.021-1.028-8.884-2.056-3.451-1.248-6.975-.734-10.573.147-4.332,1.1-8.664,2.349-13,2.57-4.625.294-9.178,1.028-13.8,1.542-7.709.734-15.492,1.028-23.2,1.1-1.982,0-3.891.954-5.947.514-1.175-.22-2.2-.954-3.451-.147-1.909-1.175-3.965-.073-6.021-.22-3.084-.22-6.167-.661-9.251-.881-2.937-.147-5.874-.294-8.737-.587-2.349-.294-4.626-1.028-6.975-1.395a21.233,21.233,0,0,1-3.6-.514c-.661-1.028-1.395-2.056-2.056-3.157a7.2,7.2,0,0,1,.073-3.3c.661-1.468,1.982-1.762,3.377-1.689a6.963,6.963,0,0,1,1.689.367c4.993,1.468,10.132,1.836,15.2,2.5,2.423.294,4.993,0,7.342,1.028a1.493,1.493,0,0,0,1.468,0c1.4-.954,2.937-.441,4.185-.22,4.332.734,8.664,0,13,.22,2.276.073,4.479-1.028,6.828-.587,2.863.514,5.8,0,8.664-.147,4.332-.367,8.737-.514,13.069-1.1,1.982-.22,3.818-.954,5.8-.22a1.328,1.328,0,0,0,1.395-1.248c-1.615-.441-3.3-1.028-4.993-1.4a6.783,6.783,0,0,1-1.982-.587c-3.231-1.689-6.755-2.056-10.279-2.423-2.2-.22-4.038-1.468-6.241-1.689a42.963,42.963,0,0,1-9.618-2.423c-3.6-1.248-7.415-1.395-11.013-2.276s-7.415-1.395-11.013-2.276c-5.874-1.468-11.821-2.276-17.621-3.818a41.09,41.09,0,0,0-8.15-1.615c-2.5-.147-4.919-1.322-7.415-1.835-4.626-.881-9.251-2.056-13.876-2.79-1.982-.294-3.671-1.395-5.8-1.395a9.52,9.52,0,0,1-4.258-.441,2.112,2.112,0,0,0-2.423.808c-2.57,3.01-6.388,4.7-9.1,7.562a3.456,3.456,0,0,1-3.23,1.248,1.923,1.923,0,0,0-1.909.587c-.954,1.4-2.57,1.762-4.038,2.423-3.3,1.395-6.534,2.79-9.765,4.258-.367.147-.734.514-1.1.514-2.643-.147-4.919,1.689-7.415,1.689s-4.7,1.1-7.122,1.248c-2.2.147-4.332.808-6.534.734-1.322,0-2.5,1.028-3.818.661-2.423-.661-4.846,0-7.269,0h-7.269a67.013,67.013,0,0,1-10.866-.734c-3.377-.367-6.681-1.689-9.985-2.5a15.888,15.888,0,0,0-4.919-1.028,2.112,2.112,0,0,1-1.175-.22c-2.5-2.2-5.727-2.129-8.664-2.643a52,52,0,0,1-10.573-2.717,21.962,21.962,0,0,0-4.772-1.322c-1.762-.367-3.377-1.175-5.139-1.615-4.919-1.248-9.765-3.084-14.611-4.626-1.982-.661-3.744-1.836-5.874-1.909a.441.441,0,0,1-.294-.073c-3.524-3.377-8.59-3.377-12.555-5.727-4.038-.294-7.562-2.423-11.087-3.965-3.3-1.468-6.755-2.643-10.059-4.185-2.056-.954-4.185-1.836-6.241-2.79-4.038-1.836-7.636-4.479-11.894-5.8-2.2-.661-3.891-2.643-5.947-3.818-3.524-1.982-6.608-4.625-9.985-6.9-2.863-1.909-5.947-3.377-8.884-5.213a139.572,139.572,0,0,0-14.023-8.15c-.734-.367-1.395.661-1.836-.147A4.739,4.739,0,0,0,185.743,360a6.442,6.442,0,0,0-1.542-.881,29.255,29.255,0,0,1-8.37-4.332,2.323,2.323,0,0,0-2.717-.147c-2.349,1.1-4.7,2.056-7.122,2.937a7.942,7.942,0,0,1-3.451.808c-1.689-.294-3.084.881-4.479,1.322-3.965,1.395-8.15,1.615-12.114,2.79-.661.22-1.322.367-1.982.661a6.358,6.358,0,0,1-4.479.661c-1.468-.441-2.79.367-4.038.734-1.909.587-3.818,1.175-5.653,1.615a94.762,94.762,0,0,1-11.087,1.982c-3.451.367-6.975,0-10.352,1.028a6.9,6.9,0,0,1-2.129,0H96.536a30.592,30.592,0,0,1-6.828-.514,26,26,0,0,0-6.755,0A49.177,49.177,0,0,1,71.133,367.2c-2.423-.514-4.919-.514-7.342-.808-4.112-.514-8.15-1.615-12.261-2.2-4.332-.661-8.223-2.79-12.555-3.377a1.336,1.336,0,0,1-.808-.294c-2.349-2.2-5.507-3.084-8.37-4.405a12.659,12.659,0,0,1-3.6-2.643c-1.028-.954-2.349-2.2-2.276-3.3.22-2.863-1.322-5.874.514-8.664a9.971,9.971,0,0,1,4.258-3.891c7.122-3.377,14.831-4.7,22.393-6.461,3.451-.808,6.9-1.615,10.352-2.57a62.907,62.907,0,0,1,9.031-1.615c1.1-.147,2.056-.661,3.157-.734a40.076,40.076,0,0,0,6.608-.514c5.653-1.175,11.38-.661,17.107-.587a60.737,60.737,0,0,1,10.94,1.1,59.586,59.586,0,0,0,6.241.514,91.057,91.057,0,0,1,11.747,1.909c4.993,1.028,9.912,2.349,14.758,3.671,3.01.881,6.094,1.542,9.1,2.5a23.67,23.67,0,0,1,5.727,2.2,16.281,16.281,0,0,0,6.314,2.5c1.468.22,2.2,2.2,3.965,1.468,2.5,2.056,5.653,2.643,8.737,4.038ZM84.716,266.981a16.143,16.143,0,0,0,5.213,3.377c3.451,1.322,7.122,2.349,10.5,3.818a17.458,17.458,0,0,0,7.269,1.248c6.167-.147,12.408-.881,18.575-.661a24.968,24.968,0,0,0,5.213-.881A69.172,69.172,0,0,0,145.8,269.33c2.937-1.322,6.094-2.349,8.811-4.258,3.891-2.717,8.517-4.405,11.747-8.223.587-.661,1.248-1.1,1.322-2.129a2.962,2.962,0,0,1,2.717-3.01c.734-.073,1.248-.808,1.762-1.468,2.276-2.863,4.258-5.947,6.461-8.81,2.349-2.937,4.626-6.021,6.828-9.031,2.79-3.818,5.066-8,7.489-12.041,4.038-6.534,6.828-13.73,9.765-20.851,1.028-2.57,1.542-5.286,2.643-7.856,1.028-2.423,1.909-4.993,2.937-7.415.954-2.349.954-5.139,2.79-7.122.147-3.3,2.276-6.094,2.643-9.4.367-2.57,1.689-4.993,2.423-7.562a28.855,28.855,0,0,0,1.615-7.415c-2.349,1.982-4.919,3.084-7.122,4.772a35.625,35.625,0,0,1-6.094,3.524,45.77,45.77,0,0,0-6.681,3.744,61.411,61.411,0,0,1-7.783,4.258c-2.349,1.248-5.066,1.836-7.342,3.157-2.79,1.689-5.727,3.084-8.664,4.552-1.909.954-3.891,1.468-3.524,4.185l-.147.294c-2.5,4.185-3.451,8.957-5.066,13.509a92.829,92.829,0,0,1-8.957,17.915,21.588,21.588,0,0,0-1.836,3.377,8.788,8.788,0,0,1-1.322,2.276c-2.056,2.937-4.405,5.58-6.388,8.517a31.76,31.76,0,0,1-2.276,3.744c-2.79,3.157-5.36,6.461-8.3,9.4a57.1,57.1,0,0,1-10.426,8.884c-3.01,1.836-5.433,4.7-8.664,6.241-.881,1.836-2.717,2.129-4.332,2.79-1.468.587-2.937,1.175-4.405,1.836-4.846,2.129-9.912,3.157-15.051,4.258a28.7,28.7,0,0,0-8.81,2.863ZM777.293,50.316a40.2,40.2,0,0,1-7.048,3.084,28.3,28.3,0,0,0-6.461,2.937c-3.6,2.2-7.269,4.405-11.013,6.388-1.028.514-2.276-.22-2.937.514-2.276,2.349-5.58,2.937-7.929,5.066-3.891,3.377-8.3,6.094-11.968,9.912A75.18,75.18,0,0,1,723.7,83.8a10.321,10.321,0,0,0-3.671,5.433,1.893,1.893,0,0,0-2.2.587,28.622,28.622,0,0,0-6.02,6.975c-2.349,4.258-4.7,8.443-7.2,12.555-2.2,3.744-4.038,7.709-3.671,12.335v.587c-1.175,3.3-.294,6.755-.587,10.059,1.836.954,2.129,1.028,2.349,2.79a2.023,2.023,0,0,0,1.322,1.762,17.392,17.392,0,0,0,8.81,1.909c1.762-.073,3.818-1.689,5.213.441a16.891,16.891,0,0,0,7.342-3.377,3.326,3.326,0,0,1,1.615-.587c5.36-1.468,10.719-2.717,15.492-5.653.587-.367,1.248-.661,1.836-.954a8.663,8.663,0,0,0,4.258-3.671,1.971,1.971,0,0,1,1.248-1.175c5.507-1.615,9.692-5.213,13.95-8.81a50.526,50.526,0,0,0,8.664-9.471c1.248-1.762,2.79-3.23,4.112-4.919,2.276-3.084,3.744-6.534,5.506-9.838,1.909-3.6,2.643-7.636,3.965-11.38.294-.808-.881-.661-.881-1.248a1.843,1.843,0,0,0,1.175-2.056,17.936,17.936,0,0,1,.294-7.122c.734-3.3-.881-6.241-2.129-9.1-.441-1.028-.294-2.643-.881-3.084-1.322-1.028-1.615-2.349-2.2-3.671-.294-.661-.661-1.762-1.175-1.542-1.542.587-2.056-.734-2.937-1.248ZM160.412,182.694c-2.423.808-4.332,2.056-6.534,2.57-1.248.294-2.717.294-3.671.954a15.567,15.567,0,0,1-7.122,2.643c-4.405.661-8.37,2.937-12.775,3.671-3.965.661-7.783,2.5-11.968,2.056a2.238,2.238,0,0,0-1.175.22,26.092,26.092,0,0,1-7.856,1.468c-4.479.367-8.81,1.468-13.363,1.395-1.395,0-2.79.734-4.332,0-.367-.22-.954,0-1.468,0a28.672,28.672,0,0,1-6.608.514,46.787,46.787,0,0,1-7.2-.587c-2.717-.514-5.507-.147-8.3-1.1a11.258,11.258,0,0,0-1.175,2.717,41.248,41.248,0,0,1-1.322,5.8c-.514,1.689-.734,3.524-1.248,5.139-.661,2.2-.22,4.552-.954,6.755-.661,2.056-.294,4.332-.514,6.461-.147,1.4.514,3.084.367,4.7-.294,3.231.954,6.314.661,9.545a3.872,3.872,0,0,0,.22.881,65.38,65.38,0,0,0,6.975,16.3c1.322,2.056,2.643,4.185,4.7,5.507,1.175-.441,2.129-1.028,3.157-1.322,2.349-.661,4.626-1.689,6.975-2.5a158.063,158.063,0,0,1,15.051-5.139c1.028-.294,1.689-1.395,3.157-.954.954.294,2.276-1.028,3.451-1.468,1.1-.441,2.276-.734,3.377-1.1a8.836,8.836,0,0,0,1.762-1.1c1.175-.661,2.2-1.909,3.6-2.056,1.615-.147,2.57-1.1,3.744-2.056a13.738,13.738,0,0,1,2.57-2.056c4.846-2.717,7.856-7.415,11.968-10.94.073,0,.147-.147.22-.22,2.863-5.066,7.269-9.178,10.132-14.244,1.982-3.524,4.552-6.828,6.094-10.5,1.615-3.965,3.818-7.562,5.653-11.38,1.468-3.01,2.349-6.241,3.744-9.324.147-.294,0-.808,0-1.395ZM309.236,38.936c.441.294.734.734,1.028.734,3.818.441,7.636,1.322,11.527,1.322a9.361,9.361,0,0,1,1.468.073,57.263,57.263,0,0,0,13.216,1.762c1.762,0,3.6.441,5.36.514,2.056.073,4.112.587,6.241.808,2.276.147,4.7,0,6.828.661,3.377.954,6.755.147,10.059.808,2.643.514,5.507.294,8.223.587a90.719,90.719,0,0,0,9.985.294,27.4,27.4,0,0,1,6.021.441,10.743,10.743,0,0,0,5.066,0c.367-.073.808-.367,1.1-.294,3.524,1.175,7.2.294,10.793.514a28.516,28.516,0,0,0,7.489-.734,56.687,56.687,0,0,1,9.031-1.542c5.066-.22,9.4-2.423,13.8-4.185a21.466,21.466,0,0,0,9.178-6.461,26.191,26.191,0,0,1,3.157-3.231c2.717-2.276,2.717-5.139,1.909-8.15-1.1-4.112-4.332-6.094-7.856-7.489-3.744-1.542-7.636-2.643-11.38-4.185a9.458,9.458,0,0,0-3.744-.734c-5.727,0-11.233-1.468-16.96-1.982-4.332-.367-8.737-.734-13.069-.954a50.438,50.438,0,0,0-11.968.441c-4.772.881-9.692.661-14.537,1.248-4.993.587-10.059.808-15.051,1.909-5.653,1.248-11.233,2.57-16.373,5.58-2.643,1.615-5.727,2.349-8.3,4.405a44.408,44.408,0,0,1-6.755,4.038c-2.2,1.248-3.818,3.3-5.947,4.479A20.973,20.973,0,0,0,312.76,34.9a28.357,28.357,0,0,1-3.744,4.185ZM59.385,196.13q-1.1-.441-2.423-.881a38.315,38.315,0,0,0-5.727-1.4c-2.276-.294-4.332-1.909-6.534-2.643a25.3,25.3,0,0,1-7.415-3.451c-1.1-.808-2.643-.808-3.671-1.909-1.689-1.836-4.258-2.717-5.8-4.919-.587-.881-1.248-2.276-2.863-2.643-1.689,1.468-3.524,3.084-5.36,4.7a5.23,5.23,0,0,0-1.322,1.982c-2.056,3.6-3.818,7.342-6.241,10.719a9.5,9.5,0,0,0-1.395,3.451c-.441,1.615-.367,3.3-.881,4.919-1.322,3.818-1.248,8-1.909,11.968a6.478,6.478,0,0,0,.22,2.643c.514,2.423,1.175,4.772,1.468,7.2a30.971,30.971,0,0,0,3.744,10.5,31.781,31.781,0,0,0,6.461,8.737,67.053,67.053,0,0,0,16.153,10.866,9.242,9.242,0,0,0,4.846,1.322c2.349-.22,4.479.514,6.681,1.1a66.129,66.129,0,0,0,16.079,2.5c.587,0,1.248.22,1.615-.514,0-.147.073-.441,0-.587a67.268,67.268,0,0,1-4.185-7.856c-1.689-3.377-2.643-6.975-3.891-10.5a28,28,0,0,1-1.395-6.975c-.294-2.643-.294-5.36-.514-8.076a47.892,47.892,0,0,1,.514-13.73,108.044,108.044,0,0,1,3.744-14.317,3.416,3.416,0,0,0,.294-2.423ZM93.6,157.878c2.717,1.175,5.947,1.4,8.076,3.891a6.034,6.034,0,0,0,1.836.808c1.395.587,3.157.734,4.185,1.982a3.8,3.8,0,0,0,1.615,1.028c2.717,1.028,4.772,2.643,5.433,5.727.514,2.57-1.909,2.643-2.863,3.891-.734.954-1.762.808-2.717.367-.073,0-.147-.147-.22-.22-3.524-1.836-6.388-4.479-9.838-6.461a69.756,69.756,0,0,0-10.352-4.846,1.76,1.76,0,0,0-2.5.734c-2.349,3.3-4.7,6.534-7.122,9.692a39.283,39.283,0,0,0-3.451,5.139c-1.322,2.57-3.157,5.066-3.891,7.929-.22.881-2.056,1.028-.954,2.5a11.272,11.272,0,0,0,3.157.147c3.965-.147,8-.22,11.968-.147,4.185,0,8.37-.147,12.555-.147,3.3,0,6.314-1.1,9.324-1.909,4.112-1.1,8.517-.734,12.408-2.5a5.122,5.122,0,0,1,1.836,0,6.546,6.546,0,0,0,2.056-.22c2.863-.954,5.8-1.909,8.737-2.717,1.248-.367,2.2-1.248,3.6-1.322,2.056,0,3.891-.954,5.727-1.762a5.743,5.743,0,0,1,1.982-.661,38.376,38.376,0,0,0,11.38-3.01c1.836-.734,3.671-1.468,5.507-2.129,2.57-.954,2.717-1.175,2.056-3.891a23.358,23.358,0,0,1-.954-5.58,31.414,31.414,0,0,0-2.79-13.216,12.832,12.832,0,0,0-2.5-4.332,37.147,37.147,0,0,0-7.783-6.534,21.131,21.131,0,0,0-7.2-2.57c-.808-.147-1.909.587-2.79,0-1.1-.808-2.056,1.028-3.084,0-2.423.514-4.772,1.248-7.2,1.175-.147,0-.294.514-.514.661a7.275,7.275,0,0,1-1.248.808c-2.056.734-4.112,1.395-6.167,2.056-1.542.514-3.377.808-4.626,1.689a16.436,16.436,0,0,1-3.965,1.909,20.875,20.875,0,0,0-4.772,2.423c-4.405,2.863-8.884,5.727-13.289,8.59-.441.294-.808.587-.734,1.175Zm-62.848,192c3.084,1.468,5.947,3.451,9.1,4.919,2.423,1.1,5.139,1.175,7.636,2.349a14.647,14.647,0,0,0,2.57.661c3.891.661,7.929.881,11.674,2.056,4.846,1.542,9.912,2.056,14.831,2.643a97.938,97.938,0,0,0,13.142.808c2.2,0,4.405-.367,6.534.514a3.281,3.281,0,0,0,2.056,0c1.615-.808,3.377-.514,5.066-.514s3.01-.954,4.626-1.322c2.5-.514,4.993-.734,7.489-1.028,2.863-.294,5.8-.073,8.59-1.175,3.377.881,6.534-.881,9.838-1.1a58.674,58.674,0,0,0,8.737-1.468,38.638,38.638,0,0,0,6.534-1.615,58.484,58.484,0,0,1,12.7-3.157c.881-.147,1.542-.367,1.542-1.468a8.438,8.438,0,0,1-3.451-1.689,2.873,2.873,0,0,0-1.542-.808c-2.57-.22-4.552-1.909-6.828-2.79-.808-.294-1.615-.734-2.423-1.028-4.185-1.542-8.59-2.129-12.775-3.6-1.909-.661-3.965,0-5.8-1.1a5.736,5.736,0,0,0-3.451-.661,6.654,6.654,0,0,1-2.423-.147c-5.947-1.762-12.188-1.909-18.208-2.863a79.52,79.52,0,0,0-15.051-.661,53.8,53.8,0,0,0-7.709.808c-2.349.367-4.772.661-7.048.881-5.066.367-10.132.734-15.125,1.248a46.391,46.391,0,0,0-10.94,2.5c-1.909.661-3.965.367-5.874.808-2.643.661-5.213,1.909-7.856,2.5-3.3.734-4.993,2.57-6.094,5.58Zm788.1-85.682a7.159,7.159,0,0,0,.587,3.451c.734,1.468,1.762,2.79,2.57,4.185a10.7,10.7,0,0,0,4.405,4.258,17.569,17.569,0,0,1,3.891,3.084c2.129,1.909,4.405,3.524,7.709,2.79a9.361,9.361,0,0,1,5.286.294,10.689,10.689,0,0,0,5.066.367,31.238,31.238,0,0,0,8.517-2.349c4.846-2.129,9.471-4.626,12.7-9.4-3.377-2.129-7.489-2.276-10.205-4.919-.734,0-1.175.808-1.836.294-2.276-1.689-4.993-1.322-7.489-.954a8.882,8.882,0,0,1-7.636-2.2,6.068,6.068,0,0,0-1.542-1.248c-1.1-.367-1.468-1.395-1.909-2.129-1.248-1.982-.294-4.185,2.129-4.846a1.614,1.614,0,0,0,1.322-.954c.661-1.175,1.909-1.175,3.084-1.1a3.328,3.328,0,0,0,1.689-.147c1.1-.587,1.762,0,2.423.881,1.028,1.542,1.615,1.542,3.157.661,4.772-2.79,7.709-7.2,9.912-12.041,1.248-2.717,1.689-5.874,2.57-8.737.808-2.717.44-5.727,1.689-8.37a2.985,2.985,0,0,0-1.175-3.451c-1.836,1.468-3.671,2.863-4.7,4.846a3.045,3.045,0,0,1-1.615,1.689c-3.377,1.322-4.919,4.993-8,6.608-1.982,3.23-5.433,4.993-8,7.636-2.643,2.717-5.066,5.727-8.3,7.856a2.236,2.236,0,0,0-.661.954,2.037,2.037,0,0,1-.955,1.1,17.069,17.069,0,0,0-7.562,6.461,1.266,1.266,0,0,1-.441.441c-2.717.881-4.112,3.6-6.681,4.772ZM897.263,191.5c-.587-.587-1.248-.587-1.322-.367-.514,1.615-2.349,1.909-3.23,3.377a20.5,20.5,0,0,1-4.846,5.213c-2.056,1.689-3.377,4.038-5.947,5.139-.514.22-.734.881-.954,1.4a6.321,6.321,0,0,1-2.129,2.79,26.924,26.924,0,0,0-4.112,3.451,2.5,2.5,0,0,0-.661,3.23,19.177,19.177,0,0,1,.955,4.625c.22,1.542-.294,3.231.073,4.552,1.028,3.6-.22,6.828-.808,10.205a1.978,1.978,0,0,1-.367,1.1,6.413,6.413,0,0,0-1.4,3.524,7.31,7.31,0,0,1-.661,1.909c-1.542,3.157-3.231,6.241-4.772,9.4-1.321,2.79-2.643,5.58-5.653,6.9-.881.367-1.1,1.248-1.322,2.056,3.671,1.689,7.562,2.717,11.087,4.7,1.4.808,3.524.881,4.038,0,2.423-3.6,5.433-6.9,6.9-11.013,1.615-4.552,2.423-9.324,4.626-13.656.073-.147,0-.441,0-.587,1.1-3.3,1.835-6.681,3.3-9.765a21.14,21.14,0,0,0,1.982-6.094c.661-4.7,1.4-9.4,2.349-14.023.294-1.468,1.1-3.231.587-4.625a6.464,6.464,0,0,1,.294-3.965,12.227,12.227,0,0,0,.44-3.231,11.5,11.5,0,0,1,1.248-6.388ZM592.2,147.746c2.2-1.395,4.112-2.423,5.8-3.671q3.855-2.863,7.709-5.507c2.276-1.615,4.258-3.524,6.534-5.139,1.615-1.1,2.79-2.79,4.258-4.038,3.157-2.643,5.8-5.8,8.884-8.443,2.056-1.762,3.451-4.112,5.58-5.727a23.281,23.281,0,0,0,6.167-6.681c1.909-3.3,3.671-6.755,5.8-9.912,3.084-4.626,4.405-9.765,5.139-15.125.22-1.615-.073-2.056-1.835-2.423-2.2-.514-3.891.514-5.36,2.056A11.474,11.474,0,0,1,637.794,86a5.1,5.1,0,0,0-1.836,1.909,27.175,27.175,0,0,1-2.423,2.643c-1.542,1.689-3.231,3.3-4.7,5.066a107.394,107.394,0,0,0-7.929,10.352c-.441.734-1.4.954-1.836,1.836-2.57,4.7-6.388,8.443-9.178,13-1.982,3.3-4.772,6.094-6.755,9.4-.734,1.175-.881,2.717-1.615,3.744-2.056,2.863-3.6,6.094-5.947,8.811-1.175,1.322-2.863,2.5-3.451,5.213ZM470.615,250.828c.587.954,1.248,1.395,2.129.881a28.67,28.67,0,0,0,4.552-2.717c4.038-3.084,8-6.314,11.894-9.618,3.524-3.084,7.269-6.094,10.279-9.692,2.276-2.717,5.36-4.772,7.269-7.783a58.329,58.329,0,0,0,4.405-6.681,36.92,36.92,0,0,0,4.038-13.8c0-.587.881-1.248-.22-1.909-2.129.661-4.552,1.028-6.534,2.2-2.056,1.175-4.552,1.542-6.314,3.231a.743.743,0,0,1-.514.294c-3.157.734-5.36,2.937-7.709,4.919A74.524,74.524,0,0,0,482.068,223.3c-1.1,1.542-2.863,3.084-2.57,5.433.073.587-.514.808-.734,1.248a46.243,46.243,0,0,0-3.3,6.608,68.788,68.788,0,0,1-3.23,6.608,9.482,9.482,0,0,0-1.175,4.258c0,1.175.147,2.349-.587,3.3ZM29.944,174.618c1.468,2.129,3.6,3.231,5.433,4.7,2.57,2.129,5.727,3.451,8.664,5.066a16.018,16.018,0,0,0,8.15,2.349,17.236,17.236,0,0,1,6.9,1.322c1.322.514,2.2.661,3.3,0,.514-2.57,1.762-4.626,2.643-6.975.734-2.129,2.2-3.891,3.157-5.947a31.972,31.972,0,0,1,6.755-9.692,3.856,3.856,0,0,0,1.322-3.6c-2.2.808-4.332-.587-6.461.587a1.724,1.724,0,0,1-1.762-.147,1.8,1.8,0,0,0-1.689-.294c-2.349.808-4.846.881-7.269,1.248a83.186,83.186,0,0,0-12.555,3.3,56.912,56.912,0,0,0-9.545,3.965,50.965,50.965,0,0,1-5.213,2.79c-.661.294-1.322.294-1.836,1.248Zm453.593-89.28c-3.084.808-2.937.881-5.36,3.891-1.322,1.615-2.349,3.451-4.038,4.772a3.461,3.461,0,0,0-1.1,1.395,25.7,25.7,0,0,1-5.727,8.884c-3.451,3.451-5.507,7.783-8.15,11.674-2.937,4.405-5.36,9.178-8.737,13.363-1.468,1.762-2.863,3.818-2.863,6.388a5.038,5.038,0,0,1-.954,2.129c-2.937,4.993-5.947,9.985-8.957,15.051-1.395,2.349-2.79,4.7-4.405,6.975a22.938,22.938,0,0,0-3.891,7.2c1.395-1.542,2.423-2.423,3.23-3.524a36.632,36.632,0,0,1,4.479-5.507c1.909-1.762,3.23-3.891,5.213-5.507,2.129-1.762,3.451-4.332,5.653-6.094,1.615-1.322,3.6-2.57,4.772-4.405,1.689-2.717,3.891-4.993,5.8-7.562,1.689-2.349,3.671-4.479,5.36-6.755,2.423-3.377,4.405-6.975,6.755-10.352a125.705,125.705,0,0,0,9.618-16.667c1.1-2.129,2.5-4.258,3.084-6.608a30.146,30.146,0,0,1,3.01-6.681c-1.175-.367-1.762-1.248-2.717-1.982ZM818.556,254.573c3.231-3.6,7.562-5.433,10.426-9.1,1.689-2.2,4.258-3.6,6.241-5.58,2.056-2.129,4.038-4.258,6.241-6.167,1.982-1.689,3.377-3.818,5.36-5.36a40.336,40.336,0,0,0,5.947-5.8c1.615-1.835,3.084-3.891,4.919-5.653,1.468-1.395,3.084-3.377,2.276-5.874,1.1-.808,2.056,1.028,3.157.073-1.322-1.982-3.671-1.028-5.507-1.835a5.723,5.723,0,0,1-4.993.661,7.071,7.071,0,0,1-2.57,1.542,47.414,47.414,0,0,0-15.639,9.985,61.424,61.424,0,0,0-11.16,13.436c-.954,1.615-2.276,3.084-2.79,4.993-.441,1.615-1.1,3.157-1.468,4.772-.661,3.084-1.982,6.167-.514,9.912Zm-89.573-8.3c.808-.661,1.689-1.395,2.643-2.056,2.276-1.542,4.625-3.23,6.755-4.993a42.574,42.574,0,0,1,8.664-6.241c.22-.147.587-.367.661-.587.367-2.129,2.276-2.5,3.671-3.451a17.372,17.372,0,0,0,3.524-3.01,22.586,22.586,0,0,1,4.185-4.185,22.861,22.861,0,0,0,8.15-9.178,10.165,10.165,0,0,1,2.056-3.23c2.056-1.615,2.056-4.185,3.3-6.167.367-.587-.294-1.395-.808-1.248-2.276.734-4.772-.147-7.048,1.028-1.836.954-3.524,2.2-5.286,3.231-6.02,3.3-10.646,8.223-15.345,13.069a53.685,53.685,0,0,0-4.772,6.021c-1.175,1.615-2.129,3.3-3.157,4.993-2.937,4.625-6.241,9.1-7.562,14.611-.147.587-.22.881.44,1.322ZM269.3,68.378a19.781,19.781,0,0,0-6.02,7.415c-.661,1.175-.954,2.863-1.909,3.524-2.79,1.909-4.258,4.846-5.653,7.489a83.553,83.553,0,0,0-4.772,9.178c-.587,1.468-1.248,2.863-1.909,4.332-.881,1.836-1.689,3.744-2.717,5.507-2.276,3.744-3.3,8.076-5.8,11.674-.441.587-1.248,1.468-.514,2.423,1.4-.734,1.909-2.276,2.937-3.3a65.674,65.674,0,0,0,6.975-9.178c2.57-3.965,4.919-8.076,7.783-11.894,1.248-1.615,2.79-3.157,3.451-5.139a17.811,17.811,0,0,1,3.01-5.727,8.326,8.326,0,0,0,1.395-3.231,17.965,17.965,0,0,1,1.248-3.3,35.188,35.188,0,0,0,2.57-9.692Zm648.966,76.284c-1.395.661-2.717.294-4.185.073a15.668,15.668,0,0,1-2.79,4.772,20.806,20.806,0,0,0-4.405,8.223c-.367,1.542-.44,3.084-.954,4.626a5.76,5.76,0,0,0,.367,4.185c1.175-2.937,2.937-4.919,4.258-7.122a5.657,5.657,0,0,1,2.276-2.276A5.007,5.007,0,0,0,915.1,154.5a27.263,27.263,0,0,1,3.157-4.993c1.175-1.468,1.689-3.084,0-4.846ZM92.278,75.059c0,3.671-.441,7.489.587,11.16A5.5,5.5,0,0,0,98,89.963h2.129a2.936,2.936,0,0,0,1.1-1.322c1.909-3.084,1.762-5.213-1.028-7.783-1.836-1.689-3.891-3.231-5.947-4.772-.514-.367-.881-1.175-2.056-1.028ZM970.977,189.3c-.294-.954-.881-1.1-1.321-1.468-2.937-2.79-7.709-1.909-9.471-.22-.734.661-1.762,1.395-.954,2.5.734,1.028,1.542,2.423,3.084,1.836,1.248-.441,2.643-.22,3.744-.661,1.615-.587,3.524-.661,4.846-2.056ZM53,113.972c.954,2.349,2.863,3.744,4.258,5.507,1.248,1.542,2.349,1.909,4.479,1.615,1.836-.294,2.129-.587,1.909-2.129a14.982,14.982,0,0,1-1.982-1.689c-1.909-2.2-4.479-3.084-7.122-4.038-.808-.294-1.1.22-1.542.808ZM850.42,324.029c-.881,2.056.955,3.377,1.542,4.993a10.6,10.6,0,0,0,6.241,5.8,1.887,1.887,0,0,0-.147-2.056c-1.028-1.909-1.835-3.891-2.79-5.8-1.542-2.937-1.395-3.01-4.846-2.863ZM950.933,152.151a8.053,8.053,0,0,1,4.038-2.937,7.193,7.193,0,0,0,3.377-3.231c.808-1.248,2.2-2.129,1.836-3.965-.955.514-2.056.881-2.937,1.468-1.836,1.322-3.6,2.79-5.433,4.112a6.886,6.886,0,0,0-1.689,2.423c-.367.734-.22,1.395.808,2.129Z" transform="translate(-0.06 0.131)" fill="#25a4c2" fill-rule="evenodd"/>
      <path id="パス_54" data-name="パス 54" d="M67.649,79.876A28.477,28.477,0,0,1,69.925,84.8a7.9,7.9,0,0,0,1.248,2.643c1.468,1.909,1.615,4.185,1.468,6.534-.073,1.248-.734,1.689-1.909,1.762a6.052,6.052,0,0,1-6.021-3.671c-.367-.808-1.248-1.322-1.395-2.2-.954-.22-1.248.587-1.762.954a8.613,8.613,0,0,1-6.314,1.322,28.847,28.847,0,0,0-4.919-.881c-1.542-.073-2.643-1.542-4.332-1.028-1.615-2.276-4.552-2.863-6.094-5.36-2.129-3.451-2.863-7.269-4.112-11.013-.954-3.01-.147-6.167-1.175-9.1.954-3.451.881-7.269,3.377-10.205a7.15,7.15,0,0,0,1.1-1.762c2.056-4.405,5.947-6.021,10.279-6.608,1.762-.22,3.524-1.248,5.286-.587a41.886,41.886,0,0,1,4.7,2.57,11.647,11.647,0,0,0,3.01,1.175c1.248.367,2.5.734,3.084,2.056.22.587.734.587,1.175.734a2.712,2.712,0,0,1,1.909,2.129,1.539,1.539,0,0,0,.294.808,20.04,20.04,0,0,1,2.717,8.664A28.837,28.837,0,0,1,68.9,77.306c-.367.808-.073,1.836-1.1,2.423Zm-13.877-1.1c1.836-2.717,4.626-2.2,7.048-2.5.808-2.276,1.615-4.405,2.349-6.534a19.052,19.052,0,0,0,.22-11.454c-.587-2.129-1.542-4.258-4.185-4.846a25.126,25.126,0,0,1-2.5-.954c-2.423-.881-4.625.22-6.388,1.468A18.626,18.626,0,0,0,45.183,60.2c-1.762,3.23-2.2,6.681-2.79,10.132-.441,2.423.587,4.7,1.322,6.9C44.889,80.684,46.8,83.4,50.542,84.8a5.288,5.288,0,0,0,5.507-.808c.881-.661,1.1-1.395.294-2.276-.808-.954-1.615-1.909-2.643-3.01Z" transform="translate(219.06 288.703)" fill="#25a4c2" fill-rule="evenodd"/>
      <path id="パス_55" data-name="パス 55" d="M52.267,88.7a13,13,0,0,1-5.653-3.965c-.514-.587-.881-1.542-.294-1.836,2.2-.954,2.276-3.3,3.377-4.919,1.468-2.276,2.717-4.7,4.772-6.534a6.068,6.068,0,0,0,1.542-2.863A67.878,67.878,0,0,1,61,59.92a25.29,25.29,0,0,0,3.3-6.241,14.548,14.548,0,0,1,4.112-6.388,7.033,7.033,0,0,1,6.755-1.468c1.909.514,2.57,2.423,2.863,4.185a14.293,14.293,0,0,0,2.5,6.755,6.333,6.333,0,0,1,1.175,3.01c.367,3.01,1.762,5.58,2.79,8.37a27.748,27.748,0,0,1,1.468,6.021,18.91,18.91,0,0,0,1.248,3.6c.661,2.2,1.762,4.405.808,6.9-.734,1.909-2.349,2.863-4.112,2.129-2.276-1.028-4.552-2.129-4.038-5.36.147-.881-.514-1.468-.954-2.349-2.937.294-5.947-.22-8.957,0a23.9,23.9,0,0,1-9.1-1.1,1.853,1.853,0,0,0-2.643,1.175c-.808,1.909-2.129,3.451-2.643,5.58a6.571,6.571,0,0,1-3.3,3.965ZM77.744,72.549c-2.349-5.139-3.3-10.646-5.58-16.006-1.762,1.395-1.982,3.6-3.157,5.066-1.322,1.689-1.762,3.744-2.937,5.433-1.1,1.542-2.79,2.79-3.01,5.066a18.037,18.037,0,0,0,4.846.22,36.662,36.662,0,0,1,4.919,0c1.468.22,2.937,1.028,4.919.294Z" transform="translate(291.417 289.716)" fill="#25a4c2" fill-rule="evenodd"/>
      <path id="パス_56" data-name="パス 56" d="M106.8,73.708c1.542-.514,2.717.147,3.524-.881,3.157,1.468,3.891,3.377,6.388,6.388a10.531,10.531,0,0,1,4.038-.367c1.028,0,1.762-.367,1.909-1.468.147-1.175,1.1-2.056,1.248-3.3.22-2.937-1.175-5.947-3.965-6.975-1.615-.587-2.717-2.056-4.552-2.129a.293.293,0,0,1-.294-.147c-1.542-2.643-4.772-4.479-4.552-8.076.073-1.395-.734-2.5-.661-3.818,0-.954-.587-1.909.147-2.79.808-1.028,1.615-2.349,2.79-2.643,2.276-.514,4.405-1.542,6.681-1.836a21.248,21.248,0,0,1,7.122.514,8.022,8.022,0,0,1,5.507,3.965,26.694,26.694,0,0,1,2.937,6.608c.661,2.129-1.028,3.671-.22,5.36-3.671,1.982-4.7.954-7.2-.881a1.818,1.818,0,0,1-.808-1.542c0-.367,0-1.028-.22-1.1-2.2-.734-1.468-2.863-2.056-4.258-1.248-3.01-2.863-3.524-5.286-1.248-.22.22-.367.441-.587.661,0,.22-.147.441-.073.587.954,1.615.22,3.818,1.468,5.213,1.175,1.322,3.23,1.322,4.625,2.5,1.909,1.615,4.258,2.57,5.947,4.552.881,1.028,1.762,1.982,1.762,3.377a4.238,4.238,0,0,0,.661,1.982,4.449,4.449,0,0,1,.147,3.744c-.734,2.129-1.028,4.552-2.643,6.167-2.056,1.982-3.157,4.919-6.094,6.094a9.523,9.523,0,0,1-4.038.881c-2.863-.147-5.8-.147-8.37-1.762a12.583,12.583,0,0,1-4.112-3.3c-1.322-1.909-2.276-3.6-1.248-6.021.44-1.1,0-2.57,0-3.891Z" transform="translate(673.666 289.806)" fill="#25a4c2" fill-rule="evenodd"/>
      <path id="パス_57" data-name="パス 57" d="M121.512,74.749c-1.4,1.468-2.863,2.57-3.451,4.405a2.768,2.768,0,0,1-.881,1.175,20.524,20.524,0,0,1-7.929,4.552,11.3,11.3,0,0,1-7.856-1.028c-2.717-1.395-5.653-2.349-8.15-4.112a22.347,22.347,0,0,1-5.139-5.727c-.808-1.1-.661-2.863-.808-4.332a42.532,42.532,0,0,1-.147-10.132A8.443,8.443,0,0,1,88.62,55.44a7,7,0,0,0,.954-2.129,10.01,10.01,0,0,1,6.02-5.8,39.622,39.622,0,0,1,6.608-1.689,14,14,0,0,1,10.5,2.5c2.57,1.762,4.625,4.258,6.828,6.534a5.43,5.43,0,0,1,.954,2.423c.661,2.863,1.322,5.8,1.836,8.664a12.965,12.965,0,0,1-.881,6.461,4.283,4.283,0,0,0,.147,2.349Zm-6.975-9.4c-.147-.734.661-1.248.073-2.2a13.156,13.156,0,0,1-1.542-5.066c-.294-2.276-2.129-3.744-4.258-3.01-2.79,1.028-5.36,0-7.929-.367a3.414,3.414,0,0,0-2.643.514,6.259,6.259,0,0,0-2.57,3.891,35.641,35.641,0,0,0,0,12.482,6.716,6.716,0,0,0,4.552,5.58,24.3,24.3,0,0,1,2.423,1.1,4.392,4.392,0,0,0,4.258.147,11.368,11.368,0,0,0,4.993-4.258,15.942,15.942,0,0,0,2.643-8.81Z" transform="translate(550.73 290.306)" fill="#25a4c2" fill-rule="evenodd"/>
      <path id="パス_58" data-name="パス 58" d="M106.315,63.94c1.836-1.1,3.744.514,5.727.147,1.909-.367,3.818-.881,5.727-1.395.514-.734.22-1.542.294-2.276a20.478,20.478,0,0,1,.514-4.7c.587-2.643-.294-5.286-1.028-7.856.808-2.5,3.23-1.909,4.846-2.2,1.835-.367,3.818.587,5.36,2.056.294,1.615.367,3.157-1.175,4.332-.661.514-.514,1.248-.514,1.982,0,3.23.22,6.534-.587,9.692-.367,1.468.661,2.863.22,4.332a11.5,11.5,0,0,0-.22,4.185c.294,3.157-.587,6.167-.734,9.251,0,1.468-.734,3.3-2.5,3.671-1.615.367-3.377.367-4.7-1.1-.441-.514-.954-1.028-1.468-1.542a1.362,1.362,0,0,1-.294-1.689,12.382,12.382,0,0,0,1.248-4.258c.147-.808.514-1.468,0-2.276-.441-.661,0-1.322.22-1.982.514-1.909,0-2.643-1.982-2.643h-9.545c-.294,1.762-.808,3.3-.367,5.139.294,1.1-.147,2.423-.22,3.524,0,2.129-.514,4.258-.367,6.388a2.369,2.369,0,0,1-2.423,2.5A5.9,5.9,0,0,1,96.4,83.249a2.13,2.13,0,0,1,0-1.175,42.284,42.284,0,0,0,1.1-10.94c-.147-6.828.954-13.656.661-20.484a22.374,22.374,0,0,1,.808-3.965c1.982.073,3.891-.661,5.653,1.028a4.045,4.045,0,0,1,1.248,4.919c-.147.294-.441.587-.367.808,1.248,3.157-.734,6.241,0,9.4a1.376,1.376,0,0,0,.808,1.028Z" transform="translate(610.42 290.029)" fill="#25a4c2" fill-rule="evenodd"/>
      <path id="パス_59" data-name="パス 59" d="M41.193,67.517c-.514-4.846.808-9.545.661-14.39,0-1.836.587-3.671.514-5.58,0-1.1.661-1.542,1.542-1.909,2.276-.808,5.286.881,6.094,3.084.441,1.175-.22,2.129-.441,3.084a33.783,33.783,0,0,0-.441,3.818c-.367,2.643.073,5.286,0,7.929a22.338,22.338,0,0,1-.441,5.36c-.587,2.056.441,4.038.881,6.094a30.9,30.9,0,0,1,.881,3.744c.294,2.717,1.836,3.891,4.626,3.891a10.81,10.81,0,0,0,3.451-.22,4.23,4.23,0,0,0,3.23-3.891,7.923,7.923,0,0,1,1.322-3.6c1.1-1.982,1.248-4.332,1.395-6.534a19.328,19.328,0,0,1,.514-4.258c1.1-3.451.22-6.828.441-10.205a7.538,7.538,0,0,0-.367-1.762,2.209,2.209,0,0,1,1.322-2.79c3.377-1.689,4.405-1.468,6.534,1.689.808,1.175,1.395,2.276.587,3.818-.441.881-.147,2.2-.147,3.3,0,3.6-.881,7.122-1.028,10.646-.147,4.185-1.615,7.929-2.717,11.821-.808,2.937-2.349,5.58-5.433,6.975a8.141,8.141,0,0,1-2.57.587c-1.468.073-3.01.294-4.405.294-1.689.073-3.818.147-5.433-.881-2.2-1.468-4.626-2.57-6.608-4.332a7.524,7.524,0,0,1-2.717-5.433c0-.367.147-.881,0-1.175-1.836-2.863-.881-6.021-1.1-9.1Z" transform="translate(260.054 289.095)" fill="#25a4c2" fill-rule="evenodd"/>
      <path id="パス_60" data-name="パス 60" d="M127.955,64.706a8.825,8.825,0,0,0,2.056,2.717c-1.028,2.937-1.542,3.23-4.405,3.451-3.891.294-7.709.073-11.527,0a4.284,4.284,0,0,0-2.5.294c-.367,2.349-.808,4.772-1.248,7.2a8.446,8.446,0,0,0,6.608,1.1,19.451,19.451,0,0,1,9.178-.808,3.207,3.207,0,0,1,2.79,2.57c.367,2.129-1.175,3.891-3.3,3.3a4.383,4.383,0,0,0-2.2.147c-2.57.441-5.066,1.615-7.783.734a12.442,12.442,0,0,0-3.3,0c-1.248,0-2.57.294-3.818-.514a1.127,1.127,0,0,0-1.175,0c-2.57,1.468-3.524-.734-4.919-2.056-1.322-1.248-.954-2.79-.441-4.185a6.478,6.478,0,0,0,.22-2.643,11.44,11.44,0,0,1,.587-3.524,38.366,38.366,0,0,0,1.248-8.223c.22-3.377-.587-6.828.514-10.132.073-.294-.294-.734-.294-1.1-.294-2.717-.441-5.36,1.762-7.342,5.36.881,10.573,1.395,15.859.441a16.853,16.853,0,0,1,8.076.514,3.445,3.445,0,0,1,2.056,3.3,2.357,2.357,0,0,1-2.423,2.2c-3.377-.147-6.681.514-10.059.294a26.274,26.274,0,0,0-4.7.514c-.22.294-.367.881-.808,1.1-2.2.881-2.129,2.57-2.056,4.479.073,1.762,0,3.6,0,5.36a15.416,15.416,0,0,0,9.031.881c1.542-.367,3.01-.808,4.626,0,.587.294,1.395,0,2.349,0Z" transform="translate(643.258 290.731)" fill="#25a4c2" fill-rule="evenodd"/>
      <path id="パス_61" data-name="パス 61" d="M113.2,73.934c.147.881-.22,2.129.808,3.157-2.423,2.2-3.671,5.213-6.608,6.681-.954.514-1.836,1.248-3.01,1.1a3.891,3.891,0,0,0-1.982.587c-3.524,1.395-7.048.587-10.426-.441a19.355,19.355,0,0,0-2.2-.734c-5.727-1.248-9.324-4.846-11.087-10.352-.441-1.395-.881-2.863-2.276-3.744,1.248-1.468-.294-3.157.514-4.552-1.028-2.643.367-4.993,1.248-7.269a24.252,24.252,0,0,1,6.241-9.692,9.959,9.959,0,0,1,9.4-2.643c2.129.441,4.405,0,6.608.147a14.409,14.409,0,0,1,9.324,4.038c1.322,1.175,1.615,2.863,2.2,4.479.294.734-.294,1.322-1.028,1.836-.954-.147-1.689-1.395-3.084-.661-.808.441-1.542-.294-1.982-1.322-1.028-2.717-2.129-3.157-5.066-3.084a38.992,38.992,0,0,1-5.066-.22c-2.79-.22-4.332,1.395-5.8,2.937-2.5,2.643-3.818,6.167-5.433,9.471a3.725,3.725,0,0,0-.294,1.762,17.871,17.871,0,0,0,1.248,7.048,28.12,28.12,0,0,0,2.2,4.772c.294.367.367.808.954,1.028,3.451,1.248,6.828,2.5,10.646,1.248,2.937-.954,5.139-2.57,5.947-5.58a2.019,2.019,0,0,1,2.349-1.762,6.724,6.724,0,0,1,5.653,1.909Z" transform="translate(484.222 291.194)" fill="#25a4c2" fill-rule="evenodd"/>
      <path id="パス_62" data-name="パス 62" d="M86.419,67.276c.073,4.332-.22,8.37.587,12.408.22,1.175-.147,2.423.073,3.6.367,2.2-1.175,3.23-2.423,4.479a.936.936,0,0,1-1.1.294c-1.762-.881-3.818-1.028-5.139-2.79a3.672,3.672,0,0,1-.367-3.451A9.892,9.892,0,0,0,78.49,78c0-1.909-.147-3.891,0-5.8a15.916,15.916,0,0,0-.954-5.874c-.22-.808-.367-1.322.441-2.056a2.809,2.809,0,0,0-.294-3.744c-1.836-1.248-3.01-3.157-4.479-4.7a51.413,51.413,0,0,0-4.552-4.405,16.107,16.107,0,0,1-2.129-2.863c-.734-.954.294-1.836.734-2.717a13.107,13.107,0,0,1,8.15,2.129,11,11,0,0,1,2.937,3.157c1.689,2.643,4.038,4.479,6.534,6.608,3.524-2.5,7.562-4.258,10.132-8.223A12.819,12.819,0,0,1,100,45.25c.587.514,1.322.367,1.982.441,1.322.147,2.79.441,3.01,1.982.22,1.689.587,3.6-1.322,4.846-.22.147-.44.441-.734.514-3.01.881-4.552,3.6-6.681,5.507-1.762,1.615-3.3,3.377-5.653,4.258a3.8,3.8,0,0,0-1.689,1.982A4.541,4.541,0,0,1,86.272,67.2Z" transform="translate(419.819 287.94)" fill="#25a4c2" fill-rule="evenodd"/>
      <path id="パス_63" data-name="パス 63" d="M73.245,53.783c-1.028.294-2.276,1.028-3.524,0-.22-.22-.734,0-1.175,0-3.157.587-6.681-1.468-7.489-4.258a2.98,2.98,0,0,1,1.395-2.717,3.254,3.254,0,0,1,2.57-.514c2.937.367,5.874,0,8.81,0a23.437,23.437,0,0,0,4.993-.734c3.6-.734,7.2-.073,10.719.514,2.57.514,2.79,1.836,1.615,4.258-1.028,2.056-2.276,3.084-4.846,2.79-1.4-.22-2.937.808-4.479,1.248-.514,4.919-.441,9.692-.587,14.537-.147,4.772-.587,9.618.22,14.684-.514,1.175-2.056,1.468-3.084,2.423a.8.8,0,0,1-.808.147c-2.2-.734-4.552-1.468-5.507-3.965a2.772,2.772,0,0,1,.22-2.276,12.933,12.933,0,0,0,.881-5.286c0-5.433.881-10.866.734-16.3,0-.881.514-1.909.441-2.863a1.783,1.783,0,0,0-1.028-1.836Z" transform="translate(386.518 287.85)" fill="#25a4c2" fill-rule="evenodd"/>
      <path id="パス_64" data-name="パス 64" d="M62.578,79.961a13.389,13.389,0,0,0,6.388.441c2.937-.514,6.02-.147,9.031-.147a3.574,3.574,0,0,1,.881.073c1.542.587,3.157,1.468,3.377,3.084s-1.468,2.643-2.643,3.3a5.319,5.319,0,0,1-3.671.514,31.73,31.73,0,0,0-10.205,0c-.881.073-1.615.441-2.57,0a4.66,4.66,0,0,0-1.762-.147c-1.028,0-2.056-.22-2.937.367-.661-1.175-1.909-1.175-3.01-1.615-1.909-.734-2.276-1.322-2.276-3.3a19.311,19.311,0,0,1,.734-4.112c.441-2.056-.147-4.258.881-6.241.367-.734,0-1.836,0-2.717.147-4.112,1.1-8.15.881-12.335-.073-1.762.514-3.6.367-5.433,0-.661.294-1.542,0-2.056A2.386,2.386,0,0,1,56.41,46.7,4.806,4.806,0,0,1,60.3,45.38a5.634,5.634,0,0,1,3.6,1.909c.587.661,1.028,1.468.661,2.129-1.028,1.762,0,3.818-1.028,5.507-.073.147-.147.441,0,.587,1.028,2.423-.147,4.846-.147,7.269s-.661,5.139-.881,7.636c-.294,3.157-.073,6.388-.073,9.545Z" transform="translate(336.833 288.471)" fill="#25a4c2" fill-rule="evenodd"/>
      <path id="パス_65" data-name="パス 65" d="M94.441,50.477a35.061,35.061,0,0,0-2.57,8.884c-.367,2.276.661,4.258.367,6.461-.147,1.028,1.028,2.2-.441,3.084.441,1.322,0,2.79.367,4.038a4.163,4.163,0,0,1,0,3.377c-.514,1.028.294,1.836,1.615,1.909h3.6c2.643,0,5.213.073,7.856,0,1.468-.073,2.717.587,4.112.661.954,0,1.4.661,1.468,1.615a2.044,2.044,0,0,0,.514,1.689,6.176,6.176,0,0,1-5.213,2.57,65.04,65.04,0,0,0-10.573,1.322c-2.5.514-5.433.954-7.709-1.248-.514-.514-1.1-.367-1.689-.441-2.056-.294-2.79-2.056-3.744-3.524-.367-.587,0-1.468.441-2.2.808-1.395,1.909-2.863.881-4.7-.514-.881.514-1.395.441-2.276-.294-3.084.294-6.167-.367-9.251-.294-1.468.294-3.084.367-4.626.22-3.524,1.322-6.9,1.175-10.5A1.505,1.505,0,0,1,86.805,45.7a11.782,11.782,0,0,1,5.286.587,1.491,1.491,0,0,1,1.1,1.248,11.011,11.011,0,0,0,1.248,2.937Z" transform="translate(521.194 290.422)" fill="#25a4c2" fill-rule="evenodd"/>
      <path id="パス_66" data-name="パス 66" d="M91.82,48.575c1.028-2.79,1.028-3.01,3.818-2.79,5.36.441,10.646.587,16.006.587a29.479,29.479,0,0,0,3.6-.147,6.318,6.318,0,0,1,5.433,1.542c1.248,1.248.881,2.863.514,4.258-.367,1.615-2.423,1.468-3.3,1.248-1.322-.294-2.863.441-3.818-.954a5.21,5.21,0,0,0-1.175,3.3c0,1.762.367,3.6-.514,5.36a1.76,1.76,0,0,0,.147,1.468,2.663,2.663,0,0,1,0,2.57,2.438,2.438,0,0,0-.073,1.762c.587,1.689,0,3.157-.441,4.772a11.7,11.7,0,0,0-.294,6.755,5.617,5.617,0,0,1-2.643,6.388,1.732,1.732,0,0,1-2.423-.147,18.609,18.609,0,0,0-1.982-1.322c-1.322-.881-1.982-2.423-1.248-3.671.734-1.175,0-2.056.073-3.084.587-4.7,2.129-9.324,1.615-14.17a16.744,16.744,0,0,1,.44-5.36,20.618,20.618,0,0,0,.073-4.772c-.881.073-1.248.881-2.423.294a8.8,8.8,0,0,0-4.185-.441c-3.3.514-5.213-1.175-7.2-3.451Z" transform="translate(581.89 290.93)" fill="#25a4c2" fill-rule="evenodd"/>
      <path id="パス_67" data-name="パス 67" d="M69.509,49.5a4.756,4.756,0,0,1-.147,1.468c-1.395,3.3-1.468,6.755-1.615,10.205-.22,3.744-.073,7.489,0,11.233a8.3,8.3,0,0,1,0,1.909c-.661,1.982.22,4.038-.294,6.094-.881,3.6-3.157,4.7-6.02,2.5-.441-.367-1.028-.587-1.468-.954a3.121,3.121,0,0,1-1.322-3.157c1.395-4.919.808-9.912,1.248-14.831.294-2.863,0-5.727.954-8.59a6.3,6.3,0,0,0,0-3.3c-.22-1.542.587-2.937.734-4.405a2.033,2.033,0,0,1,1.542-1.689,7.106,7.106,0,0,1,5.213.587c.954.514,1.175,1.762,1.1,2.937Z" transform="translate(370.87 290.891)" fill="#25a4c2" fill-rule="evenodd"/>
      <path id="パス_68" data-name="パス 68" d="M43.81,35.068a6.643,6.643,0,0,1-5.066-2.056,30.212,30.212,0,0,1-3.23-4.185,1.864,1.864,0,0,1,.073-2.643,18.515,18.515,0,0,0,2.056-3.231c1.909-3.377,4.552-4.038,8.223-3.01a10.2,10.2,0,0,1,5.653,4.112,1.63,1.63,0,0,1,.367.808,13.718,13.718,0,0,1-2.349,7.122,12.008,12.008,0,0,1-1.982,1.762,4.774,4.774,0,0,1-3.818,1.4Z" transform="translate(221.534 124.629)" fill="#25a4c2" fill-rule="evenodd"/>
    </g>
  </g>
</svg>
